<?xml version="1.0" encoding="UTF-8"?>
<svg width="1280px" height="900px" viewBox="0 0 1280 900" version="1.1" xmlns="http://www.w3.org/2000/svg" xmlns:xlink="http://www.w3.org/1999/xlink">
    <!-- Generator: Sketch 51.1 (57501) - http://www.bohemiancoding.com/sketch -->
    <title>クッキー</title>
    <desc>Created with Sketch.</desc>
    <defs></defs>
    <g id="クッキー" stroke="none" stroke-width="1" fill="none" fill-rule="evenodd">
        <text id="1回目" font-family="NotoSansCJKjp-Bold, Noto Sans CJK JP" font-size="40" font-weight="bold" fill="#8C8C8C">
            <tspan x="318.22" y="155">1回目</tspan>
        </text>
        <text id="2回目" font-family="NotoSansCJKjp-Bold, Noto Sans CJK JP" font-size="40" font-weight="bold" fill="#8C8C8C">
            <tspan x="318.22" y="606">2回目</tspan>
        </text>
        <g id="General/AWSManagementConsole" transform="translate(168.000000, 154.000000)">
            <path d="M111.239939,108.000069 L71.8271374,108.000069 C70.814181,107.993805 69.8406667,108.412458 69.1222886,109.163271 C68.4039104,109.914083 67.9999825,110.935063 68,112 L114.999933,112 C115.005887,110.945387 114.613086,109.931484 113.907946,109.181348 C113.202807,108.431211 112.243093,108.006291 111.239939,108.000069 L111.239939,108.000069 Z" id="Shape"></path>
            <path d="M71.8047619,116 L111.217619,116 C113.297861,116.000039 114.987691,114.212985 115,112 L68,112 C68.0245171,114.21682 69.7208071,116.000153 71.8047619,116 Z" id="Shape"></path>
            <path d="M114.120144,112 C114.120144,114.049607 112.432676,115.711141 110.351079,115.711141 L71.0769784,115.711141 C70.0714402,115.716982 69.1047314,115.329266 68.3895259,114.633288 C67.6743204,113.93731 67.2692069,112.990085 67.2633094,112 L0,112 L0,115.711141 C0,120.841222 4.22366192,124.999974 9.43381295,124.999974 L114.521583,124.999974 C117.029503,125.005805 119.437056,124.030437 121.214606,122.288441 C122.992155,120.546446 123.994092,118.180519 124,115.711141 L124,112 L114.120144,112 Z" id="Shape" fill="#9D5125" fill-rule="nonzero"></path>
            <path d="M121.043267,67 L114.940508,73.7092594 C114.928207,76.0843423 113.000181,78.0032173 110.626104,78.0031854 L15.3515414,78.0031854 C12.9861897,77.9909558 11.0717159,76.0756451 11.0594916,73.7092594 L5.91797368,67 L1,67 L1,73.7092594 C1.02465521,81.6177736 7.44645413,88.0123583 15.3515414,87.999982 L110.626104,87.999982 C118.534846,88.0123926 124.963053,81.6213815 125,73.7092594 L125,67 L121.043267,67 Z" id="Shape" fill="#9D5125" fill-rule="nonzero"></path>
            <path d="M114.521583,93.0002347 C117.025382,92.9827016 119.433069,93.9482616 121.211919,95.6832749 C122.990768,97.4182881 123.99413,99.7797179 124,102.245074 L124,109.711216 C123.994092,112.180574 122.992155,114.546482 121.214606,116.288463 C119.437056,118.030445 117.029503,119.005805 114.521583,118.999974 L9.45611511,118.999974 C6.95025046,119.005807 4.54498977,118.029748 2.77098018,116.287136 C0.996970585,114.544523 -7.00242878e-06,112.178557 0,109.711216 L0,102.267034 C0.00590789704,99.8093236 1.00314534,97.4545866 2.77232998,95.7208413 C4.54151461,93.9870961 6.93772296,93.0163631 9.43381295,93.0221939 L114.521583,93.0002347 Z M110.351079,109.711216 C112.432676,109.711216 114.120144,108.049695 114.120144,106.000104 C114.120144,103.950514 112.432676,102.288993 110.351079,102.288993 L71.0769784,102.288993 C68.9953814,102.288993 67.3079137,103.950514 67.3079137,106.000104 C67.3079137,108.049695 68.9953814,109.711216 71.0769784,109.711216 L110.351079,109.711216 L110.351079,109.711216 Z" id="Shape" fill="#F58535" fill-rule="nonzero"></path>
            <path d="M110.626104,1.82566863e-05 C118.52617,-0.0124580399 124.950788,6.37120932 125,14.2822942 L125,67.69532 C124.963053,75.6151596 118.534846,82.0124047 110.626104,81.9999819 L15.3515414,81.9999819 C7.44645413,82.0123703 1.02465521,75.6115482 1,67.69532 L1,14.3046802 C1.03694691,6.39720402 7.45514592,0.00998141875 15.3515414,0.0224042692 L110.626104,1.82566863e-05 Z M114.940508,67.69532 L114.940508,14.3046802 C114.940524,13.1608602 114.48526,12.0642117 113.675503,11.2575123 C112.865746,10.4508129 111.768295,10.0006084 110.626104,10.0065658 L15.3515414,10.0065658 C12.9811077,10.0065658 11.0594916,11.9308972 11.0594916,14.3046802 L11.0594916,67.69532 C11.0717159,70.0640139 12.9861897,71.9811928 15.3515414,71.9934344 L110.626104,71.9934344 C113.000181,71.9934663 114.928207,70.0727195 114.940508,67.69532 L114.940508,67.69532 Z" id="Shape" fill="#F58535" fill-rule="nonzero"></path>
        </g>
        <g id="General/AWSManagementConsole" transform="translate(168.000000, 630.000000)">
            <path d="M111.239939,108.000069 L71.8271374,108.000069 C70.814181,107.993805 69.8406667,108.412458 69.1222886,109.163271 C68.4039104,109.914083 67.9999825,110.935063 68,112 L114.999933,112 C115.005887,110.945387 114.613086,109.931484 113.907946,109.181348 C113.202807,108.431211 112.243093,108.006291 111.239939,108.000069 L111.239939,108.000069 Z" id="Shape"></path>
            <path d="M71.8047619,116 L111.217619,116 C113.297861,116.000039 114.987691,114.212985 115,112 L68,112 C68.0245171,114.21682 69.7208071,116.000153 71.8047619,116 Z" id="Shape"></path>
            <path d="M114.120144,112 C114.120144,114.049607 112.432676,115.711141 110.351079,115.711141 L71.0769784,115.711141 C70.0714402,115.716982 69.1047314,115.329266 68.3895259,114.633288 C67.6743204,113.93731 67.2692069,112.990085 67.2633094,112 L0,112 L0,115.711141 C0,120.841222 4.22366192,124.999974 9.43381295,124.999974 L114.521583,124.999974 C117.029503,125.005805 119.437056,124.030437 121.214606,122.288441 C122.992155,120.546446 123.994092,118.180519 124,115.711141 L124,112 L114.120144,112 Z" id="Shape" fill="#9D5125" fill-rule="nonzero"></path>
            <path d="M121.043267,67 L114.940508,73.7092594 C114.928207,76.0843423 113.000181,78.0032173 110.626104,78.0031854 L15.3515414,78.0031854 C12.9861897,77.9909558 11.0717159,76.0756451 11.0594916,73.7092594 L5.91797368,67 L1,67 L1,73.7092594 C1.02465521,81.6177736 7.44645413,88.0123583 15.3515414,87.999982 L110.626104,87.999982 C118.534846,88.0123926 124.963053,81.6213815 125,73.7092594 L125,67 L121.043267,67 Z" id="Shape" fill="#9D5125" fill-rule="nonzero"></path>
            <path d="M114.521583,93.0002347 C117.025382,92.9827016 119.433069,93.9482616 121.211919,95.6832749 C122.990768,97.4182881 123.99413,99.7797179 124,102.245074 L124,109.711216 C123.994092,112.180574 122.992155,114.546482 121.214606,116.288463 C119.437056,118.030445 117.029503,119.005805 114.521583,118.999974 L9.45611511,118.999974 C6.95025046,119.005807 4.54498977,118.029748 2.77098018,116.287136 C0.996970585,114.544523 -7.00242878e-06,112.178557 0,109.711216 L0,102.267034 C0.00590789704,99.8093236 1.00314534,97.4545866 2.77232998,95.7208413 C4.54151461,93.9870961 6.93772296,93.0163631 9.43381295,93.0221939 L114.521583,93.0002347 Z M110.351079,109.711216 C112.432676,109.711216 114.120144,108.049695 114.120144,106.000104 C114.120144,103.950514 112.432676,102.288993 110.351079,102.288993 L71.0769784,102.288993 C68.9953814,102.288993 67.3079137,103.950514 67.3079137,106.000104 C67.3079137,108.049695 68.9953814,109.711216 71.0769784,109.711216 L110.351079,109.711216 L110.351079,109.711216 Z" id="Shape" fill="#F58535" fill-rule="nonzero"></path>
            <path d="M110.626104,1.82566863e-05 C118.52617,-0.0124580399 124.950788,6.37120932 125,14.2822942 L125,67.69532 C124.963053,75.6151596 118.534846,82.0124047 110.626104,81.9999819 L15.3515414,81.9999819 C7.44645413,82.0123703 1.02465521,75.6115482 1,67.69532 L1,14.3046802 C1.03694691,6.39720402 7.45514592,0.00998141875 15.3515414,0.0224042692 L110.626104,1.82566863e-05 Z M114.940508,67.69532 L114.940508,14.3046802 C114.940524,13.1608602 114.48526,12.0642117 113.675503,11.2575123 C112.865746,10.4508129 111.768295,10.0006084 110.626104,10.0065658 L15.3515414,10.0065658 C12.9811077,10.0065658 11.0594916,11.9308972 11.0594916,14.3046802 L11.0594916,67.69532 C11.0717159,70.0640139 12.9861897,71.9811928 15.3515414,71.9934344 L110.626104,71.9934344 C113.000181,71.9934663 114.928207,70.0727195 114.940508,67.69532 L114.940508,67.69532 Z" id="Shape" fill="#F58535" fill-rule="nonzero"></path>
        </g>
        <g id="Compute/AmazonEC2/DBoninstance" transform="translate(1001.000000, 154.000000)" fill-rule="nonzero">
            <g id="Group">
                <path d="M21.0903704,5.87931034 L100.90963,5.87931034 C112.4757,5.87931034 121.851852,15.2424257 121.851852,26.7924138 L121.851852,61.8998276 C117.718519,59.7672414 108.671111,57.497069 95.2837037,57.497069 C90.155986,57.4754128 85.0345848,57.8587921 79.9674074,58.6436207 C70.942963,60.1341379 66.1896296,62.7024138 66.1896296,64.2846552 L66.1896296,123.905345 C66.1896296,124.891379 67.5444444,126.198448 70.1162963,127.482586 L21.0903704,127.482586 C9.52430041,127.482586 0.148148148,118.119471 0.148148148,106.569483 L0.148148148,26.8153448 C0.142053627,21.2648729 2.3457692,15.9396503 6.27385847,12.0127217 C10.2019477,8.085793 15.5321668,5.87930701 21.0903704,5.87931034 L21.0903704,5.87931034 Z" id="Shape" fill="#9D5025"></path>
                <path d="M21.0903704,0.857413793 L100.90963,0.857413793 C112.4757,0.857413793 121.851852,10.2205291 121.851852,21.7705172 L121.851852,56.855 C117.718519,54.7224138 108.671111,52.4522414 95.2837037,52.4522414 C90.155986,52.4305852 85.0345848,52.8139645 79.9674074,53.5987931 C70.942963,55.0893103 66.1896296,57.6575862 66.1896296,59.2398276 L66.1896296,118.860517 C66.1896296,119.846552 67.5444444,121.153621 70.1162963,122.437759 L21.0903704,122.437759 C9.52430041,122.437759 0.148148148,113.074643 0.148148148,101.524655 L0.148148148,21.7705172 C0.148148148,10.2205291 9.52430041,0.857413793 21.0903704,0.857413793 Z" id="Shape" fill="#F58536"></path>
                <path d="M97.3962963,68.4581034 C93.0911443,68.4398292 88.7912974,68.7618693 84.537037,69.4212069 C80.6807414,69.6719201 76.8087364,69.3316574 73.0555556,68.4122414 L73.0555556,74.145 C73.0555556,75.475 77.0740741,77.6305172 84.537037,78.8458621 C88.7894553,79.5210768 93.0905942,79.8432137 97.3962963,79.8089655 C113.240741,79.8089655 121.851852,76.0712069 121.851852,74.145 L121.851852,68.4122414 L97.3962963,68.4581034 Z" id="Shape" fill="#9D5025"></path>
                <path d="M72.4814815,85.2894828 L72.4814815,124.501552 C72.4814815,126.496552 79.3703704,130.165517 95.72,130.165517 C102.521688,130.330691 109.313724,129.559065 115.904444,127.872414 C119.165185,126.817586 121.484444,125.57931 121.737037,124.730862 L121.737037,85.7481034 C116.960741,88.7062069 107.10963,90.3343103 97.3274074,90.3343103 L96.6844444,90.3343103 L93.6762963,90.3343103 L93.262963,90.3343103 L90.8518519,89.9215517 L89.6118519,89.9215517 L87.682963,89.7610345 L86.6496296,89.6005172 L84.582963,89.3253448 C80.323168,88.7854179 76.2113052,87.4141055 72.4814815,85.2894828 L72.4814815,85.2894828 Z" id="Shape" fill="#9D5025"></path>
                <path d="M97.3962963,62.7482759 C93.0911443,62.7300016 88.7912974,63.0520418 84.537037,63.7113793 C76.9592593,64.9725862 73.0555556,67.1281034 73.0555556,68.4351724 C73.0555556,69.7422414 77.0740741,71.9206897 84.537037,73.1360345 C88.7894553,73.8112492 93.0905942,74.1333861 97.3962963,74.0991379 C113.240741,74.0991379 121.851852,70.3613793 121.851852,68.4351724 C121.851852,66.5089655 113.240741,62.7482759 97.3962963,62.7482759 Z" id="Shape" fill="#F58536"></path>
                <path d="M72.4814815,79.5567241 L72.4814815,118.768793 C72.4814815,120.763793 79.3703704,124.432759 95.72,124.432759 C102.521688,124.597932 109.313724,123.826306 115.904444,122.139655 C119.165185,121.084828 121.484444,119.846552 121.737037,118.998103 L121.737037,80.0153448 C116.960741,82.9734483 107.10963,84.6015517 97.3274074,84.6015517 L96.6844444,84.6015517 L93.6762963,84.6015517 L93.262963,84.6015517 L90.8518519,84.1887931 L89.6118519,84.1887931 L87.682963,83.8448276 L86.6496296,83.8448276 L84.582963,83.5696552 C80.3247812,83.0368236 76.2130088,81.6733328 72.4814815,79.5567241 L72.4814815,79.5567241 Z" id="Shape" fill="#F58536"></path>
                <path d="M21.0903704,122.391897 L70.0703704,122.391897 L70.0703704,127.413793 L21.0903704,127.413793 C9.52430041,127.413793 0.148148148,118.050678 0.148148148,106.50069 L0.148148148,101.455862 C0.142053627,107.006334 2.3457692,112.331557 6.27385847,116.258485 C10.2019477,120.185414 15.5321668,122.3919 21.0903704,122.391897 L21.0903704,122.391897 Z" id="Shape" fill="#9D5025"></path>
            </g>
        </g>
        <g id="Compute/AmazonEC2/DBoninstance" transform="translate(1001.000000, 630.000000)" fill-rule="nonzero">
            <g id="Group">
                <path d="M21.0903704,5.87931034 L100.90963,5.87931034 C112.4757,5.87931034 121.851852,15.2424257 121.851852,26.7924138 L121.851852,61.8998276 C117.718519,59.7672414 108.671111,57.497069 95.2837037,57.497069 C90.155986,57.4754128 85.0345848,57.8587921 79.9674074,58.6436207 C70.942963,60.1341379 66.1896296,62.7024138 66.1896296,64.2846552 L66.1896296,123.905345 C66.1896296,124.891379 67.5444444,126.198448 70.1162963,127.482586 L21.0903704,127.482586 C9.52430041,127.482586 0.148148148,118.119471 0.148148148,106.569483 L0.148148148,26.8153448 C0.142053627,21.2648729 2.3457692,15.9396503 6.27385847,12.0127217 C10.2019477,8.085793 15.5321668,5.87930701 21.0903704,5.87931034 L21.0903704,5.87931034 Z" id="Shape" fill="#9D5025"></path>
                <path d="M21.0903704,0.857413793 L100.90963,0.857413793 C112.4757,0.857413793 121.851852,10.2205291 121.851852,21.7705172 L121.851852,56.855 C117.718519,54.7224138 108.671111,52.4522414 95.2837037,52.4522414 C90.155986,52.4305852 85.0345848,52.8139645 79.9674074,53.5987931 C70.942963,55.0893103 66.1896296,57.6575862 66.1896296,59.2398276 L66.1896296,118.860517 C66.1896296,119.846552 67.5444444,121.153621 70.1162963,122.437759 L21.0903704,122.437759 C9.52430041,122.437759 0.148148148,113.074643 0.148148148,101.524655 L0.148148148,21.7705172 C0.148148148,10.2205291 9.52430041,0.857413793 21.0903704,0.857413793 Z" id="Shape" fill="#F58536"></path>
                <path d="M97.3962963,68.4581034 C93.0911443,68.4398292 88.7912974,68.7618693 84.537037,69.4212069 C80.6807414,69.6719201 76.8087364,69.3316574 73.0555556,68.4122414 L73.0555556,74.145 C73.0555556,75.475 77.0740741,77.6305172 84.537037,78.8458621 C88.7894553,79.5210768 93.0905942,79.8432137 97.3962963,79.8089655 C113.240741,79.8089655 121.851852,76.0712069 121.851852,74.145 L121.851852,68.4122414 L97.3962963,68.4581034 Z" id="Shape" fill="#9D5025"></path>
                <path d="M72.4814815,85.2894828 L72.4814815,124.501552 C72.4814815,126.496552 79.3703704,130.165517 95.72,130.165517 C102.521688,130.330691 109.313724,129.559065 115.904444,127.872414 C119.165185,126.817586 121.484444,125.57931 121.737037,124.730862 L121.737037,85.7481034 C116.960741,88.7062069 107.10963,90.3343103 97.3274074,90.3343103 L96.6844444,90.3343103 L93.6762963,90.3343103 L93.262963,90.3343103 L90.8518519,89.9215517 L89.6118519,89.9215517 L87.682963,89.7610345 L86.6496296,89.6005172 L84.582963,89.3253448 C80.323168,88.7854179 76.2113052,87.4141055 72.4814815,85.2894828 L72.4814815,85.2894828 Z" id="Shape" fill="#9D5025"></path>
                <path d="M97.3962963,62.7482759 C93.0911443,62.7300016 88.7912974,63.0520418 84.537037,63.7113793 C76.9592593,64.9725862 73.0555556,67.1281034 73.0555556,68.4351724 C73.0555556,69.7422414 77.0740741,71.9206897 84.537037,73.1360345 C88.7894553,73.8112492 93.0905942,74.1333861 97.3962963,74.0991379 C113.240741,74.0991379 121.851852,70.3613793 121.851852,68.4351724 C121.851852,66.5089655 113.240741,62.7482759 97.3962963,62.7482759 Z" id="Shape" fill="#F58536"></path>
                <path d="M72.4814815,79.5567241 L72.4814815,118.768793 C72.4814815,120.763793 79.3703704,124.432759 95.72,124.432759 C102.521688,124.597932 109.313724,123.826306 115.904444,122.139655 C119.165185,121.084828 121.484444,119.846552 121.737037,118.998103 L121.737037,80.0153448 C116.960741,82.9734483 107.10963,84.6015517 97.3274074,84.6015517 L96.6844444,84.6015517 L93.6762963,84.6015517 L93.262963,84.6015517 L90.8518519,84.1887931 L89.6118519,84.1887931 L87.682963,83.8448276 L86.6496296,83.8448276 L84.582963,83.5696552 C80.3247812,83.0368236 76.2130088,81.6733328 72.4814815,79.5567241 L72.4814815,79.5567241 Z" id="Shape" fill="#F58536"></path>
                <path d="M21.0903704,122.391897 L70.0703704,122.391897 L70.0703704,127.413793 L21.0903704,127.413793 C9.52430041,127.413793 0.148148148,118.050678 0.148148148,106.50069 L0.148148148,101.455862 C0.142053627,107.006334 2.3457692,112.331557 6.27385847,116.258485 C10.2019477,120.185414 15.5321668,122.3919 21.0903704,122.391897 L21.0903704,122.391897 Z" id="Shape" fill="#9D5025"></path>
            </g>
        </g>
        <path id="Line" d="M933,195.212963 L894,175.712963 L894,214.712963 L933,195.212963 Z M347.5,198.712963 L897.5,198.712963 L901,198.712963 L901,191.712963 L897.5,191.712963 L347.5,191.712963 L344,191.712963 L344,198.712963 L347.5,198.712963 Z" fill="#D6D6D6" fill-rule="nonzero"></path>
        <path id="Line" d="M347,256.20216 L386,275.70216 L386,236.70216 L347,256.20216 Z M908.5,252.70216 L382.5,252.70216 L379,252.70216 L379,259.70216 L382.5,259.70216 L908.5,259.70216 L912,259.70216 L912,252.70216 L908.5,252.70216 Z" fill="#D6D6D6" fill-rule="nonzero"></path>
        <g id="Group" transform="translate(540.000000, 92.000000)">
            <rect id="Rectangle" stroke="#D6D6D6" fill="#EEEEEE" x="0.5" y="13.5" width="199" height="69" rx="8"></rect>
            <text id="GET" font-family="NotoSansCJKjp-Bold, Noto Sans CJK JP" font-size="60" font-weight="bold" fill="#8C8C8C">
                <tspan x="41.29" y="70">GET</tspan>
            </text>
        </g>
        <g id="Group" transform="translate(467.000000, 263.000000)">
            <rect id="Rectangle" stroke="#D6D6D6" fill="#EEEEEE" x="0.5" y="16.5" width="332" height="69" rx="8"></rect>
            <text id="Response" font-family="NotoSansCJKjp-Bold, Noto Sans CJK JP" font-size="60" font-weight="bold" fill="#8C8C8C">
                <tspan x="31.01" y="70">Response</tspan>
            </text>
        </g>
        <path id="Line" d="M947,650.212963 L908,630.712963 L908,669.712963 L947,650.212963 Z M361.5,653.712963 L911.5,653.712963 L915,653.712963 L915,646.712963 L911.5,646.712963 L361.5,646.712963 L358,646.712963 L358,653.712963 L361.5,653.712963 Z" fill="#D6D6D6" fill-rule="nonzero"></path>
        <path id="Line" d="M361,711.20216 L400,730.70216 L400,691.70216 L361,711.20216 Z M922.5,707.70216 L396.5,707.70216 L393,707.70216 L393,714.70216 L396.5,714.70216 L922.5,714.70216 L926,714.70216 L926,707.70216 L922.5,707.70216 Z" fill="#D6D6D6" fill-rule="nonzero"></path>
        <g id="Group" transform="translate(554.000000, 547.000000)">
            <rect id="Rectangle" stroke="#D6D6D6" fill="#EEEEEE" x="0.5" y="13.5" width="199" height="69" rx="8"></rect>
            <text id="GET" font-family="NotoSansCJKjp-Bold, Noto Sans CJK JP" font-size="60" font-weight="bold" fill="#8C8C8C">
                <tspan x="41.29" y="70">GET</tspan>
            </text>
        </g>
        <g id="Group" transform="translate(481.000000, 716.000000)">
            <rect id="Rectangle" stroke="#D6D6D6" fill="#EEEEEE" x="0.5" y="18.5" width="332" height="69" rx="8"></rect>
            <text id="Response" font-family="NotoSansCJKjp-Bold, Noto Sans CJK JP" font-size="60" font-weight="bold" fill="#8C8C8C">
                <tspan x="31.01" y="70">Response</tspan>
            </text>
        </g>
        <text id="私はUser1です" font-family="NotoSansCJKjp-Bold, Noto Sans CJK JP" font-size="40" font-weight="bold" fill="#242424">
            <tspan x="503.68" y="72">私はUser1です</tspan>
        </text>
        <text id="ユーザー情報をください" font-family="NotoSansCJKjp-Bold, Noto Sans CJK JP" font-size="40" font-weight="bold" fill="#242424">
            <tspan x="434.9" y="547">ユーザー情報をください</tspan>
        </text>
        <text id="誰ですか?" font-family="NotoSansCJKjp-Bold, Noto Sans CJK JP" font-size="40" font-weight="bold" fill="#242424">
            <tspan x="550.22" y="870">誰ですか?</tspan>
        </text>
        <text id="User1の情報を返します" font-family="NotoSansCJKjp-Bold, Noto Sans CJK JP" font-size="40" font-weight="bold" fill="#242424">
            <tspan x="423.68" y="415">User1の情報を返します</tspan>
        </text>
        <path d="M161.5,470.5 L1156.5,470.5" id="Line-2" stroke="#979797" stroke-linecap="square"></path>
    </g>
</svg>