<?xml version="1.0" encoding="UTF-8"?>
<svg width="774px" height="252px" viewBox="0 0 774 252" version="1.1" xmlns="http://www.w3.org/2000/svg" xmlns:xlink="http://www.w3.org/1999/xlink">
    <!-- Generator: Sketch 52.1 (67048) - http://www.bohemiancoding.com/sketch -->
    <title>Group 4</title>
    <desc>Created with Sketch.</desc>
    <defs>
        <path d="M55.5,0.78 L55.5,3.24 C55.0981658,18.1390559 42.9044737,30.0083127 28,30.0083127 C13.0955263,30.0083127 0.901834182,18.1390559 0.5,3.24 L0.5,0.78 L55.5,0.78 Z" id="path-1"></path>
        <path d="M55.5,0.78 L55.5,3.24 C55.0981658,18.1390559 42.9044737,30.0083127 28,30.0083127 C13.0955263,30.0083127 0.901834182,18.1390559 0.5,3.24 L0.5,0.78 L55.5,0.78 Z" id="path-3"></path>
    </defs>
    <g id="app" stroke="none" stroke-width="1" fill="none" fill-rule="evenodd">
        <g id="Artboard" transform="translate(-15.000000, -66.000000)">
            <g id="Group-4" transform="translate(14.000000, 59.000000)">
                <g id="Group-3" transform="translate(0.000000, 53.000000)">
                    <g id="Group-2" transform="translate(0.000000, 30.000000)">
                        <g id="General/client" transform="translate(8.000000, 23.000000)">
                            <g id="Shape">
                                <path d="M30.1628571,29.325 L19.4710714,29.325 C19.1962797,29.3233835 18.9321877,29.4314128 18.7373082,29.6251527 C18.5424287,29.8188925 18.4328524,30.0823464 18.4328571,30.3571429 L31.1828571,30.3571429 C31.1844722,30.0850104 31.0779144,29.8233827 30.8866262,29.6298173 C30.6953381,29.4362519 30.4349897,29.3266055 30.1628571,29.325 L30.1628571,29.325 Z"></path>
                                <path d="M19.4710714,31.3771429 L30.1628571,31.3771429 C30.7271781,31.3771527 31.1855894,30.921454 31.1889286,30.3571429 L18.4389286,30.3571429 C18.4455795,30.9224319 18.9057433,31.377182 19.4710714,31.3771429 Z"></path>
                                <path d="M31.1889286,30.3571429 C31.1889286,30.9238265 30.7295407,31.3832143 30.1628571,31.3832143 L19.4710714,31.3832143 C19.1973287,31.3848293 18.9341567,31.2776318 18.7394527,31.0852051 C18.5447488,30.8927783 18.4344627,30.6308856 18.4328571,30.3571429 L0.121428571,30.3571429 L0.121428571,31.3832143 C0.121428571,32.8015999 1.27125727,33.9514286 2.68964286,33.9514286 L31.2982143,33.9514286 C31.9809579,33.9530407 32.6363783,33.683367 33.1202895,33.201733 C33.6042008,32.720099 33.8769631,32.0659579 33.8785714,31.3832143 L33.8785714,30.3571429 L31.1889286,30.3571429 Z" fill="#7D7C7C" fill-rule="nonzero"></path>
                                <path d="M32.7492857,18.1414286 L31.0917857,19.9628571 C31.0884448,20.6076442 30.5647957,21.1285801 29.92,21.1285714 L4.04357143,21.1285714 C3.40114546,21.1252513 2.88117724,20.6052831 2.87785714,19.9628571 L1.48142857,18.1414286 L0.145714286,18.1414286 L0.145714286,19.9628571 C0.152410604,22.1098592 1.89656157,23.8458599 4.04357143,23.8425 L29.92,23.8425 C32.0680023,23.8458692 33.8138938,22.1108387 33.8239286,19.9628571 L33.8239286,18.1414286 L32.7492857,18.1414286 Z" fill="#7D7C7C" fill-rule="nonzero"></path>
                                <path d="M31.2982143,25.2510714 C31.9798362,25.2462238 32.6352929,25.5131879 33.119558,25.9928953 C33.6038232,26.4726026 33.8769734,27.1255056 33.8785714,27.8071429 L33.8785714,29.8714286 C33.8769631,30.5541722 33.6042008,31.2083133 33.1202895,31.6899473 C32.6363783,32.1715813 31.9809579,32.441255 31.2982143,32.4396429 L2.69571429,32.4396429 C2.01353017,32.4412556 1.35873397,32.1713888 0.875786424,31.6895803 C0.392838881,31.2077717 0.121426665,30.5536146 0.121428571,29.8714286 L0.121428571,27.8132143 C0.123036908,27.1336912 0.394519865,26.4826387 0.876153886,26.0032819 C1.35778791,25.5239251 2.01011974,25.2555307 2.68964286,25.2571429 L31.2982143,25.2510714 Z M30.1628571,29.8714286 C30.7295407,29.8714286 31.1889286,29.4120407 31.1889286,28.8453571 C31.1889286,28.2786735 30.7295407,27.8192857 30.1628571,27.8192857 L19.4710714,27.8192857 C18.9043878,27.8192857 18.445,28.2786735 18.445,28.8453571 C18.445,29.4120407 18.9043878,29.8714286 19.4710714,29.8714286 L30.1628571,29.8714286 L30.1628571,29.8714286 Z" fill="#D2D3D3" fill-rule="nonzero"></path>
                                <path d="M29.92,0.0910714286 C32.065646,0.0876876663 33.8105627,1.81903578 33.8239286,3.96464286 L33.8239286,18.4510714 C33.8138938,20.5990529 32.0680023,22.3340835 29.92,22.3307143 L4.04357143,22.3307143 C1.89656157,22.3340742 0.152410604,20.5980735 0.145714286,18.4510714 L0.145714286,3.97071429 C0.155749011,1.82608594 1.89892225,0.0937735903 4.04357143,0.0971428571 L29.92,0.0910714286 Z M31.0917857,18.4510714 L31.0917857,3.97071429 C31.0917899,3.66049281 30.9681409,3.36306499 30.7482121,3.14427579 C30.5282834,2.92548658 30.2302173,2.80338426 29.92,2.805 L4.04357143,2.805 C3.39976521,2.805 2.87785714,3.32690806 2.87785714,3.97071429 L2.87785714,18.4510714 C2.88117724,19.0934974 3.40114546,19.6134656 4.04357143,19.6167857 L29.92,19.6167857 C30.5647957,19.6167944 31.0884448,19.0958585 31.0917857,18.4510714 L31.0917857,18.4510714 Z" fill="#D2D3D3" fill-rule="nonzero"></path>
                            </g>
                            <g id="Shape">
                                <path d="M30.1628571,29.325 L19.4710714,29.325 C19.1962797,29.3233835 18.9321877,29.4314128 18.7373082,29.6251527 C18.5424287,29.8188925 18.4328524,30.0823464 18.4328571,30.3571429 L31.1828571,30.3571429 C31.1844722,30.0850104 31.0779144,29.8233827 30.8866262,29.6298173 C30.6953381,29.4362519 30.4349897,29.3266055 30.1628571,29.325 L30.1628571,29.325 Z"></path>
                                <path d="M19.4710714,31.3771429 L30.1628571,31.3771429 C30.7271781,31.3771527 31.1855894,30.921454 31.1889286,30.3571429 L18.4389286,30.3571429 C18.4455795,30.9224319 18.9057433,31.377182 19.4710714,31.3771429 Z"></path>
                                <path d="M31.1889286,30.3571429 C31.1889286,30.9238265 30.7295407,31.3832143 30.1628571,31.3832143 L19.4710714,31.3832143 C19.1973287,31.3848293 18.9341567,31.2776318 18.7394527,31.0852051 C18.5447488,30.8927783 18.4344627,30.6308856 18.4328571,30.3571429 L0.121428571,30.3571429 L0.121428571,31.3832143 C0.121428571,32.8015999 1.27125727,33.9514286 2.68964286,33.9514286 L31.2982143,33.9514286 C31.9809579,33.9530407 32.6363783,33.683367 33.1202895,33.201733 C33.6042008,32.720099 33.8769631,32.0659579 33.8785714,31.3832143 L33.8785714,30.3571429 L31.1889286,30.3571429 Z" fill="#7D7C7C" fill-rule="nonzero"></path>
                                <path d="M32.7492857,18.1414286 L31.0917857,19.9628571 C31.0884448,20.6076442 30.5647957,21.1285801 29.92,21.1285714 L4.04357143,21.1285714 C3.40114546,21.1252513 2.88117724,20.6052831 2.87785714,19.9628571 L1.48142857,18.1414286 L0.145714286,18.1414286 L0.145714286,19.9628571 C0.152410604,22.1098592 1.89656157,23.8458599 4.04357143,23.8425 L29.92,23.8425 C32.0680023,23.8458692 33.8138938,22.1108387 33.8239286,19.9628571 L33.8239286,18.1414286 L32.7492857,18.1414286 Z" fill="#7D7C7C" fill-rule="nonzero"></path>
                                <path d="M31.2982143,25.2510714 C31.9798362,25.2462238 32.6352929,25.5131879 33.119558,25.9928953 C33.6038232,26.4726026 33.8769734,27.1255056 33.8785714,27.8071429 L33.8785714,29.8714286 C33.8769631,30.5541722 33.6042008,31.2083133 33.1202895,31.6899473 C32.6363783,32.1715813 31.9809579,32.441255 31.2982143,32.4396429 L2.69571429,32.4396429 C2.01353017,32.4412556 1.35873397,32.1713888 0.875786424,31.6895803 C0.392838881,31.2077717 0.121426665,30.5536146 0.121428571,29.8714286 L0.121428571,27.8132143 C0.123036908,27.1336912 0.394519865,26.4826387 0.876153886,26.0032819 C1.35778791,25.5239251 2.01011974,25.2555307 2.68964286,25.2571429 L31.2982143,25.2510714 Z M30.1628571,29.8714286 C30.7295407,29.8714286 31.1889286,29.4120407 31.1889286,28.8453571 C31.1889286,28.2786735 30.7295407,27.8192857 30.1628571,27.8192857 L19.4710714,27.8192857 C18.9043878,27.8192857 18.445,28.2786735 18.445,28.8453571 C18.445,29.4120407 18.9043878,29.8714286 19.4710714,29.8714286 L30.1628571,29.8714286 L30.1628571,29.8714286 Z" fill="#D2D3D3" fill-rule="nonzero"></path>
                                <path d="M29.92,0.0910714286 C32.065646,0.0876876663 33.8105627,1.81903578 33.8239286,3.96464286 L33.8239286,18.4510714 C33.8138938,20.5990529 32.0680023,22.3340835 29.92,22.3307143 L4.04357143,22.3307143 C1.89656157,22.3340742 0.152410604,20.5980735 0.145714286,18.4510714 L0.145714286,3.97071429 C0.155749011,1.82608594 1.89892225,0.0937735903 4.04357143,0.0971428571 L29.92,0.0910714286 Z M31.0917857,18.4510714 L31.0917857,3.97071429 C31.0917899,3.66049281 30.9681409,3.36306499 30.7482121,3.14427579 C30.5282834,2.92548658 30.2302173,2.80338426 29.92,2.805 L4.04357143,2.805 C3.39976521,2.805 2.87785714,3.32690806 2.87785714,3.97071429 L2.87785714,18.4510714 C2.88117724,19.0934974 3.40114546,19.6134656 4.04357143,19.6167857 L29.92,19.6167857 C30.5647957,19.6167944 31.0884448,19.0958585 31.0917857,18.4510714 L31.0917857,18.4510714 Z" fill="#D2D3D3" fill-rule="nonzero"></path>
                            </g>
                        </g>
                        <text id="User" font-family="NotoSansCJKjp-Bold, Noto Sans CJK JP" font-size="20" font-weight="bold" letter-spacing="0.8333333" fill="#F58536">
                            <tspan x="0" y="87">User</tspan>
                        </text>
                        <text id="①Request" font-family="NotoSansCJKjp-Bold, Noto Sans CJK JP" font-size="20" font-weight="bold" letter-spacing="0.8333333" fill="#F53636">
                            <tspan x="90" y="23">①Request</tspan>
                        </text>
                        <text id="④Response" font-family="NotoSansCJKjp-Bold, Noto Sans CJK JP" font-size="20" font-weight="bold" letter-spacing="0.8333333" fill="#F53636">
                            <tspan x="90" y="98">④Response</tspan>
                        </text>
                    </g>
                    <g id="Group-5" transform="translate(254.000000, 0.000000)">
                        <g id="Group" transform="translate(9.000000, 51.000000)">
                            <g id="General/traditionalserver" transform="translate(43.000000, 0.000000)">
                                <g id="Shape">
                                    <path d="M26.77,3.34 C28.4268542,3.34 29.77,4.68314575 29.77,6.34 L41.52,51.34 L41.52,54.12 C41.52,55.7768542 40.1768542,57.12 38.52,57.12 L3.52,57.12 C1.86314575,57.12 0.52,55.7768542 0.52,54.12 L0.52,51.61 L13.71,6.35 C13.71,4.69314575 15.0531458,3.35 16.71,3.35 L26.77,3.34 Z" fill="#4F4F4F" fill-rule="nonzero"></path>
                                    <path d="M38.52,0.86 C40.1768542,0.86 41.52,2.20314575 41.52,3.86 L41.52,51.61 C41.52,53.2668542 40.1768542,54.61 38.52,54.61 L3.52,54.61 C1.86314575,54.61 0.52,53.2668542 0.52,51.61 L0.52,3.87 C0.52,2.21314575 1.86314575,0.87 3.52,0.87 L38.52,0.86 Z" fill="#7D7C7C" fill-rule="nonzero"></path>
                                    <path d="M35.11,23.6 L6.88,23.6 L6.88,20.28 L35.11,20.28 L35.11,23.6 Z M35.11,17.99 L6.88,17.99 L6.88,14.67 L35.11,14.67 L35.11,17.99 Z M35.11,12.12 L6.88,12.12 L6.88,8.8 L35.11,8.8 L35.11,12.12 Z" fill="#FFFFFF" fill-rule="nonzero"></path>
                                </g>
                                <g id="Shape">
                                    <path d="M26.77,3.34 C28.4268542,3.34 29.77,4.68314575 29.77,6.34 L41.52,51.34 L41.52,54.12 C41.52,55.7768542 40.1768542,57.12 38.52,57.12 L3.52,57.12 C1.86314575,57.12 0.52,55.7768542 0.52,54.12 L0.52,51.61 L13.71,6.35 C13.71,4.69314575 15.0531458,3.35 16.71,3.35 L26.77,3.34 Z" fill="#4F4F4F" fill-rule="nonzero"></path>
                                    <path d="M38.52,0.86 C40.1768542,0.86 41.52,2.20314575 41.52,3.86 L41.52,51.61 C41.52,53.2668542 40.1768542,54.61 38.52,54.61 L3.52,54.61 C1.86314575,54.61 0.52,53.2668542 0.52,51.61 L0.52,3.87 C0.52,2.21314575 1.86314575,0.87 3.52,0.87 L38.52,0.86 Z" fill="#7D7C7C" fill-rule="nonzero"></path>
                                    <path d="M35.11,23.6 L6.88,23.6 L6.88,20.28 L35.11,20.28 L35.11,23.6 Z M35.11,17.99 L6.88,17.99 L6.88,14.67 L35.11,14.67 L35.11,17.99 Z M35.11,12.12 L6.88,12.12 L6.88,8.8 L35.11,8.8 L35.11,12.12 Z" fill="#FFFFFF" fill-rule="nonzero"></path>
                                </g>
                            </g>
                            <text id="⑤Frontend" font-family="NotoSansCJKjp-Bold, Noto Sans CJK JP" font-size="20" font-weight="bold" letter-spacing="0.8333333" fill="#F58536">
                                <tspan x="0" y="87">⑤Frontend</tspan>
                            </text>
                        </g>
                        <g id="Group" transform="translate(139.000000, 51.000000)">
                            <g id="General/traditionalserver" transform="translate(28.000000, 0.000000)">
                                <g id="Shape">
                                    <path d="M26.77,3.34 C28.4268542,3.34 29.77,4.68314575 29.77,6.34 L41.52,51.34 L41.52,54.12 C41.52,55.7768542 40.1768542,57.12 38.52,57.12 L3.52,57.12 C1.86314575,57.12 0.52,55.7768542 0.52,54.12 L0.52,51.61 L13.71,6.35 C13.71,4.69314575 15.0531458,3.35 16.71,3.35 L26.77,3.34 Z" fill="#4F4F4F" fill-rule="nonzero"></path>
                                    <path d="M38.52,0.86 C40.1768542,0.86 41.52,2.20314575 41.52,3.86 L41.52,51.61 C41.52,53.2668542 40.1768542,54.61 38.52,54.61 L3.52,54.61 C1.86314575,54.61 0.52,53.2668542 0.52,51.61 L0.52,3.87 C0.52,2.21314575 1.86314575,0.87 3.52,0.87 L38.52,0.86 Z" fill="#7D7C7C" fill-rule="nonzero"></path>
                                    <path d="M35.11,23.6 L6.88,23.6 L6.88,20.28 L35.11,20.28 L35.11,23.6 Z M35.11,17.99 L6.88,17.99 L6.88,14.67 L35.11,14.67 L35.11,17.99 Z M35.11,12.12 L6.88,12.12 L6.88,8.8 L35.11,8.8 L35.11,12.12 Z" fill="#FFFFFF" fill-rule="nonzero"></path>
                                </g>
                                <g id="Shape">
                                    <path d="M26.77,3.34 C28.4268542,3.34 29.77,4.68314575 29.77,6.34 L41.52,51.34 L41.52,54.12 C41.52,55.7768542 40.1768542,57.12 38.52,57.12 L3.52,57.12 C1.86314575,57.12 0.52,55.7768542 0.52,54.12 L0.52,51.61 L13.71,6.35 C13.71,4.69314575 15.0531458,3.35 16.71,3.35 L26.77,3.34 Z" fill="#4F4F4F" fill-rule="nonzero"></path>
                                    <path d="M38.52,0.86 C40.1768542,0.86 41.52,2.20314575 41.52,3.86 L41.52,51.61 C41.52,53.2668542 40.1768542,54.61 38.52,54.61 L3.52,54.61 C1.86314575,54.61 0.52,53.2668542 0.52,51.61 L0.52,3.87 C0.52,2.21314575 1.86314575,0.87 3.52,0.87 L38.52,0.86 Z" fill="#7D7C7C" fill-rule="nonzero"></path>
                                    <path d="M35.11,23.6 L6.88,23.6 L6.88,20.28 L35.11,20.28 L35.11,23.6 Z M35.11,17.99 L6.88,17.99 L6.88,14.67 L35.11,14.67 L35.11,17.99 Z M35.11,12.12 L6.88,12.12 L6.88,8.8 L35.11,8.8 L35.11,12.12 Z" fill="#FFFFFF" fill-rule="nonzero"></path>
                                </g>
                            </g>
                            <text id="②Backend" font-family="NotoSansCJKjp-Bold, Noto Sans CJK JP" font-size="20" font-weight="bold" letter-spacing="0.8333333" fill="#F58536">
                                <tspan x="0" y="87">②Backend</tspan>
                            </text>
                        </g>
                        <rect id="Rectangle" stroke="#F58536" stroke-width="2" x="1" y="1" width="261" height="204"></rect>
                        <text id="Server" font-family="NotoSansCJKjp-Bold, Noto Sans CJK JP" font-size="20" font-weight="bold" letter-spacing="0.8333333" fill="#F58536">
                            <tspan x="97" y="23">Server</tspan>
                        </text>
                    </g>
                    <g id="Group-6" transform="translate(532.000000, 33.000000)">
                        <g id="General/genericdatabase" transform="translate(154.000000, 0.000000)">
                            <g>
                                <g id="Group" transform="translate(0.000000, 5.000000)">
                                    <path d="M49.92,0.66 L49.92,3.45 C49.92,4.73 46.3,6.83 39.5,8.03 C35.7019105,8.68513167 31.8541649,9.00968064 28,9 C13.8,9 6,5.35 6,3.48 L6,0.66 C6,2.53 13.75,6.18 28,6.18 C31.8696886,6.20563856 35.7342678,5.89446465 39.55,5.25 C46.3,4 49.92,1.94 49.92,0.66 Z" id="Shape" fill="#4F4F4F" fill-rule="nonzero"></path>
                                    <g id="Clipped" transform="translate(0.000000, 22.000000)">
                                        <mask id="mask-2" fill="white">
                                            <use xlink:href="#path-1"></use>
                                        </mask>
                                        <g id="Shape"></g>
                                        <g id="Group" mask="url(#mask-2)" fill="#4F4F4F" fill-rule="nonzero">
                                            <g transform="translate(6.000000, -22.000000)" id="Shape">
                                                <path d="M43.92,0.66 L43.92,3.45 C43.9231216,3.4899391 43.9231216,3.5300609 43.92,3.57 L43.92,0.78 C43.9230815,0.740059347 43.9230815,0.699940653 43.92,0.66"></path>
                                                <path d="M43.91,0.78 L43.91,3.57 C43.9142735,3.62324773 43.9142735,3.67675227 43.91,3.73 L43.91,0.93 C43.9141739,0.880087108 43.9141739,0.829912892 43.91,0.78"></path>
                                                <path d="M43.87,0.93 L43.87,3.72 C43.841141,3.80016229 43.8042887,3.87721713 43.76,3.95 L43.76,1.16 C43.8042296,1.08718512 43.841079,1.01013636 43.87,0.93"></path>
                                                <path d="M43.76,1.16 L43.76,4 C43,5.23 39.46,7 33.5,8 C29.7027873,8.66518661 25.8550353,8.99977374 22,9 C7.8,9 0,5.35 0,3.48 L0,0.66 C0,2.53 7.75,6.18 22,6.18 C25.8696886,6.20563856 29.7342678,5.89446465 33.55,5.25 C39.55,4.19 43.03,2.45 43.81,1.17"></path>
                                            </g>
                                        </g>
                                    </g>
                                </g>
                                <path d="M49.89,47.62 C49.9344272,47.501607 49.9581074,47.3764401 49.96,47.25 L49.96,51.76 C49.964221,51.8099109 49.964221,51.8600891 49.96,51.91 C49.948266,51.9810834 49.9315583,52.0512557 49.91,52.12 L49.91,52.12 L49.91,52.12 C49.8773572,52.2066691 49.8372045,52.2903205 49.79,52.37 L49.79,52.44 L49.66,52.62 L49.47,52.85 L49.28,53.04 L49.01,53.27 L48.75,53.47 L48.4,53.71 L48.08,53.91 L47.63,54.15 L47.27,54.34 L46.66,54.61 L46.31,54.76 C45.97,54.9 45.61,55.03 45.22,55.16 L44.81,55.29 L43.95,55.55 L43.38,55.7 L42.52,55.92 L41.86,56.06 L40.93,56.25 L40.18,56.38 L39.18,56.54 L38.37,56.65 L37.23,56.78 L36.37,56.87 L35,57 L34.13,57.06 L32.58,57.13 L31.79,57.13 L29.28,57.13 C21.28,57.13 15.28,56.13 11.28,54.86 C8.36,53.86 6.28,52.69 6.03,51.86 L6.03,47.4 C6.25,48.22 8.09,49.25 10.69,50.23 L10.65,50 C16.6806905,51.8442136 22.9536429,52.7745386 29.26,52.76 L31.78,52.76 L32.55,52.76 L34.12,52.69 L34.97,52.63 L36.29,52.52 L37.11,52.43 L38.3,52.29 L39.06,52.18 L40.15,52.01 L45.15,50.81 C45.5566667,50.67 45.9366667,50.53 46.29,50.39 L47.29,49.96 L47.52,49.84 L48.1,49.52 L48.33,49.38 L48.77,49.09 L48.97,48.94 L49.3,48.66 L49.45,48.51 C49.5318225,48.4245226 49.6086181,48.3343712 49.68,48.24 L49.7,48 L49.89,47.62 Z" id="Shape" fill="#4F4F4F" fill-rule="nonzero"></path>
                                <path d="M28,0.46 C31.8702726,0.429792189 35.7355446,0.744368433 39.55,1.4 C46.3,2.6 49.92,4.69 49.92,6 C49.92,7.31 46.3,9.34 39.5,10.55 C35.7010156,11.1949294 31.8532893,11.5094392 28,11.49 C13.8,11.49 6,7.84 6,5.97 C6,4.1 13.76,0.46 28,0.46 Z" id="Shape" fill="#7D7C7C" fill-rule="nonzero"></path>
                                <path d="M39.24,15 C38.63,15.12 38.03,15.2 37.43,15.29 C37.12,15.29 36.81,15.39 36.48,15.42 C35.92,15.49 35.35,15.55 34.77,15.61 C34.4,15.61 34.02,15.68 33.65,15.7 C32.92,15.76 32.18,15.8 31.43,15.83 L31.06,15.83 C30.19,15.83 29.31,15.89 28.39,15.9 L27.82,15.9 C19.1,15.9 10.31,14.4 6.04,11.55 L6.04,49.43 C6.27,50.31 8.35,51.43 11.25,52.43 C15.18,53.68 21.25,54.7 29.25,54.7 C43.88,54.75 50,51.18 50,49.27 L50,11.27 C47.71,12.84 44,14.2 39.24,15 Z" id="Shape" fill="#7D7C7C" fill-rule="nonzero"></path>
                            </g>
                            <g>
                                <g id="Group" transform="translate(0.000000, 5.000000)">
                                    <path d="M49.92,0.66 L49.92,3.45 C49.92,4.73 46.3,6.83 39.5,8.03 C35.7019105,8.68513167 31.8541649,9.00968064 28,9 C13.8,9 6,5.35 6,3.48 L6,0.66 C6,2.53 13.75,6.18 28,6.18 C31.8696886,6.20563856 35.7342678,5.89446465 39.55,5.25 C46.3,4 49.92,1.94 49.92,0.66 Z" id="Shape" fill="#4F4F4F" fill-rule="nonzero"></path>
                                    <g id="Clipped" transform="translate(0.000000, 22.000000)">
                                        <mask id="mask-4" fill="white">
                                            <use xlink:href="#path-3"></use>
                                        </mask>
                                        <g id="Shape"></g>
                                        <g id="Group" mask="url(#mask-4)" fill="#4F4F4F" fill-rule="nonzero">
                                            <g transform="translate(6.000000, -22.000000)" id="Shape">
                                                <path d="M43.92,0.66 L43.92,3.45 C43.9231216,3.4899391 43.9231216,3.5300609 43.92,3.57 L43.92,0.78 C43.9230815,0.740059347 43.9230815,0.699940653 43.92,0.66"></path>
                                                <path d="M43.91,0.78 L43.91,3.57 C43.9142735,3.62324773 43.9142735,3.67675227 43.91,3.73 L43.91,0.93 C43.9141739,0.880087108 43.9141739,0.829912892 43.91,0.78"></path>
                                                <path d="M43.87,0.93 L43.87,3.72 C43.841141,3.80016229 43.8042887,3.87721713 43.76,3.95 L43.76,1.16 C43.8042296,1.08718512 43.841079,1.01013636 43.87,0.93"></path>
                                                <path d="M43.76,1.16 L43.76,4 C43,5.23 39.46,7 33.5,8 C29.7027873,8.66518661 25.8550353,8.99977374 22,9 C7.8,9 0,5.35 0,3.48 L0,0.66 C0,2.53 7.75,6.18 22,6.18 C25.8696886,6.20563856 29.7342678,5.89446465 33.55,5.25 C39.55,4.19 43.03,2.45 43.81,1.17"></path>
                                            </g>
                                        </g>
                                    </g>
                                </g>
                                <path d="M49.89,47.62 C49.9344272,47.501607 49.9581074,47.3764401 49.96,47.25 L49.96,51.76 C49.964221,51.8099109 49.964221,51.8600891 49.96,51.91 C49.948266,51.9810834 49.9315583,52.0512557 49.91,52.12 L49.91,52.12 L49.91,52.12 C49.8773572,52.2066691 49.8372045,52.2903205 49.79,52.37 L49.79,52.44 L49.66,52.62 L49.47,52.85 L49.28,53.04 L49.01,53.27 L48.75,53.47 L48.4,53.71 L48.08,53.91 L47.63,54.15 L47.27,54.34 L46.66,54.61 L46.31,54.76 C45.97,54.9 45.61,55.03 45.22,55.16 L44.81,55.29 L43.95,55.55 L43.38,55.7 L42.52,55.92 L41.86,56.06 L40.93,56.25 L40.18,56.38 L39.18,56.54 L38.37,56.65 L37.23,56.78 L36.37,56.87 L35,57 L34.13,57.06 L32.58,57.13 L31.79,57.13 L29.28,57.13 C21.28,57.13 15.28,56.13 11.28,54.86 C8.36,53.86 6.28,52.69 6.03,51.86 L6.03,47.4 C6.25,48.22 8.09,49.25 10.69,50.23 L10.65,50 C16.6806905,51.8442136 22.9536429,52.7745386 29.26,52.76 L31.78,52.76 L32.55,52.76 L34.12,52.69 L34.97,52.63 L36.29,52.52 L37.11,52.43 L38.3,52.29 L39.06,52.18 L40.15,52.01 L45.15,50.81 C45.5566667,50.67 45.9366667,50.53 46.29,50.39 L47.29,49.96 L47.52,49.84 L48.1,49.52 L48.33,49.38 L48.77,49.09 L48.97,48.94 L49.3,48.66 L49.45,48.51 C49.5318225,48.4245226 49.6086181,48.3343712 49.68,48.24 L49.7,48 L49.89,47.62 Z" id="Shape" fill="#4F4F4F" fill-rule="nonzero"></path>
                                <path d="M28,0.46 C31.8702726,0.429792189 35.7355446,0.744368433 39.55,1.4 C46.3,2.6 49.92,4.69 49.92,6 C49.92,7.31 46.3,9.34 39.5,10.55 C35.7010156,11.1949294 31.8532893,11.5094392 28,11.49 C13.8,11.49 6,7.84 6,5.97 C6,4.1 13.76,0.46 28,0.46 Z" id="Shape" fill="#7D7C7C" fill-rule="nonzero"></path>
                                <path d="M39.24,15 C38.63,15.12 38.03,15.2 37.43,15.29 C37.12,15.29 36.81,15.39 36.48,15.42 C35.92,15.49 35.35,15.55 34.77,15.61 C34.4,15.61 34.02,15.68 33.65,15.7 C32.92,15.76 32.18,15.8 31.43,15.83 L31.06,15.83 C30.19,15.83 29.31,15.89 28.39,15.9 L27.82,15.9 C19.1,15.9 10.31,14.4 6.04,11.55 L6.04,49.43 C6.27,50.31 8.35,51.43 11.25,52.43 C15.18,53.68 21.25,54.7 29.25,54.7 C43.88,54.75 50,51.18 50,49.27 L50,11.27 C47.71,12.84 44,14.2 39.24,15 Z" id="Shape" fill="#7D7C7C" fill-rule="nonzero"></path>
                            </g>
                        </g>
                        <text id="③Database" font-family="NotoSansCJKjp-Bold, Noto Sans CJK JP" font-size="20" font-weight="bold" letter-spacing="0.8333333" fill="#F58536">
                            <tspan x="126" y="99">③Database</tspan>
                        </text>
                        <path id="Line" d="M98,30 L0.5,30 L-0.5,30 L-0.5,28 L0.5,28 L98,28 L98,22 L112,29 L98,36 L98,30 Z" fill="#F58536" fill-rule="nonzero"></path>
                        <path id="Line" d="M15,61 L112,61 L113,61 L113,63 L112,63 L15,63 L15,69 L1,62 L15,55 L15,61 Z" fill="#F58536" fill-rule="nonzero"></path>
                    </g>
                    <path id="Line" d="M179,69 L82.4955357,69 L81.4955357,69 L81.4955357,67 L82.4955357,67 L179,67 L179,61 L193,68 L179,75 L179,69 Z" fill="#F58536" fill-rule="nonzero"></path>
                    <path id="Line" d="M96.9910714,94 L193,94 L194,94 L194,96 L193,96 L96.9910714,96 L96.9910714,102 L82.9910714,95 L96.9910714,88 L96.9910714,94 Z" fill="#F58536" fill-rule="nonzero"></path>
                </g>
                <text id="Flow" font-family="NotoSansCJKjp-Bold, Noto Sans CJK JP" font-size="20" font-weight="bold" letter-spacing="0.8333333" fill="#F58536">
                    <tspan x="344" y="23">Flow</tspan>
                </text>
            </g>
        </g>
    </g>
</svg>