<?xml version="1.0" encoding="UTF-8"?>
<svg width="4000px" height="2700px" viewBox="0 0 4000 2700" version="1.1" xmlns="http://www.w3.org/2000/svg" xmlns:xlink="http://www.w3.org/1999/xlink">
    <!-- Generator: Sketch 51.1 (57501) - http://www.bohemiancoding.com/sketch -->
    <title>git-merge</title>
    <desc>Created with Sketch.</desc>
    <defs></defs>
    <g id="git-merge" stroke="none" stroke-width="1" fill="none" fill-rule="evenodd">
        <rect fill="#FFFFFF" x="0" y="0" width="4000" height="2700"></rect>
        <text id="commit-objects" font-family="NotoSansCJKjp-Bold, Noto Sans CJK JP" font-size="120" font-weight="bold" fill="#242424">
            <tspan x="1656.82" y="525">commit  objects</tspan>
        </text>
        <text id="merge" font-family="NotoSansCJKjp-Bold, Noto Sans CJK JP" font-size="120" font-weight="bold" fill="#242424">
            <tspan x="2945" y="1616">merge</tspan>
        </text>
        <path id="Line" d="M1374,907.277778 L1290,865.277778 L1290,949.277778 L1374,907.277778 Z M1138.5,915.277778 L1298,915.277778 L1306,915.277778 L1306,899.277778 L1298,899.277778 L1138.5,899.277778 L1130.5,899.277778 L1130.5,915.277778 L1138.5,915.277778 Z" fill="#D6D6D6" fill-rule="nonzero"></path>
        <path id="Line" d="M1457,1350 L1430.76341,1259.82438 L1369.11756,1316.8839 L1457,1350 Z M1286.62897,1177.71202 L1399.72663,1299.90028 L1405.16087,1305.77131 L1416.90294,1294.90283 L1411.4687,1289.0318 L1298.37103,1166.84354 L1292.93679,1160.9725 L1281.19473,1171.84098 L1286.62897,1177.71202 Z" fill="#D6D6D6" fill-rule="nonzero"></path>
        <path id="Line" d="M2874.5,2030 L2916.5,1946 L2832.5,1946 L2874.5,2030 Z M2866.5,1137.27778 L2866.5,1954 L2866.5,1962 L2882.5,1962 L2882.5,1954 L2882.5,1137.27778 L2882.5,1129.27778 L2866.5,1129.27778 L2866.5,1137.27778 Z" fill="#D6D6D6" fill-rule="nonzero"></path>
        <path id="Line" d="M2335,907.277778 L2251,865.277778 L2251,949.277778 L2335,907.277778 Z M2099.5,915.277778 L2259,915.277778 L2267,915.277778 L2267,899.277778 L2259,899.277778 L2099.5,899.277778 L2091.5,899.277778 L2091.5,915.277778 L2099.5,915.277778 Z" fill="#D6D6D6" fill-rule="nonzero"></path>
        <path id="Line" d="M2524,764 L2505.41509,671.942403 L2439.20298,723.633367 L2524,764 Z M2385.19408,599.200727 L2471.32456,709.527182 L2476.24751,715.833098 L2488.85934,705.9872 L2483.93639,699.681284 L2397.80592,589.354829 L2392.88297,583.048913 L2380.27114,592.894811 L2385.19408,599.200727 Z M1828,779 L1912.42072,737.852191 L1845.73418,686.774739 L1828,779 Z M1963.11507,589.437768 L1867.46649,714.316199 L1862.60197,720.667298 L1875.30417,730.396336 L1880.16869,724.045238 L1975.81726,599.166807 L1980.68178,592.815708 L1967.97959,583.08667 L1963.11507,589.437768 Z" fill="#242424" fill-rule="nonzero"></path>
        <g id="Group" transform="translate(404.000000, 492.000000)">
            <rect id="Rectangle" stroke="#979797" fill="#D8D8D8" x="0.5" y="0.5" width="703" height="202" rx="8"></rect>
            <text id="Master" font-family="NotoSansCJKjp-Bold, Noto Sans CJK JP" font-size="120" font-weight="bold" fill="#242424">
                <tspan x="151.9" y="154">Master</tspan>
            </text>
        </g>
        <g id="Group" transform="translate(1421.000000, 1519.000000)">
            <rect id="Rectangle" stroke="#979797" fill="#D8D8D8" x="0.5" y="0.5" width="703" height="202" rx="8"></rect>
            <text id="feat" font-family="NotoSansCJKjp-Bold, Noto Sans CJK JP" font-size="120" font-weight="bold" fill="#242424">
                <tspan x="236.86" y="154">feat</tspan>
            </text>
        </g>
        <g id="Group" transform="translate(404.000000, 805.000000)">
            <rect id="Rectangle" stroke="#D6D6D6" fill="#EEEEEE" x="0.5" y="0.5" width="703" height="202" rx="8"></rect>
            <text id="a73c3" font-family="NotoSansCJKjp-Bold, Noto Sans CJK JP" font-size="120" font-weight="bold" fill="#D6D6D6">
                <tspan x="178.9" y="154">a73c3</tspan>
            </text>
        </g>
        <g id="Group" transform="translate(1374.000000, 805.000000)">
            <rect id="Rectangle" stroke="#D6D6D6" fill="#EEEEEE" x="0.5" y="0.5" width="703" height="202" rx="8"></rect>
            <text id="b325c" font-family="NotoSansCJKjp-Bold, Noto Sans CJK JP" font-size="120" font-weight="bold" fill="#D6D6D6">
                <tspan x="175.72" y="154">b325c</tspan>
            </text>
        </g>
        <g id="Group" transform="translate(2335.000000, 805.000000)">
            <rect id="Rectangle" stroke="#D6D6D6" fill="#EEEEEE" x="0.5" y="0.5" width="703" height="202" rx="8"></rect>
            <text id="c10b9" font-family="NotoSansCJKjp-Bold, Noto Sans CJK JP" font-size="120" font-weight="bold" fill="#D6D6D6">
                <tspan x="175.72" y="154">c10b9</tspan>
            </text>
        </g>
        <path id="Line" d="M2307,2280.27778 L2223,2238.27778 L2223,2322.27778 L2307,2280.27778 Z M2071.5,2288.27778 L2231,2288.27778 L2239,2288.27778 L2239,2272.27778 L2231,2272.27778 L2071.5,2272.27778 L2063.5,2272.27778 L2063.5,2288.27778 L2071.5,2288.27778 Z" fill="#D6D6D6" fill-rule="nonzero"></path>
        <path id="Line" d="M3266,2280.27778 L3182,2238.27778 L3182,2322.27778 L3266,2280.27778 Z M3030.5,2288.27778 L3190,2288.27778 L3198,2288.27778 L3198,2272.27778 L3190,2272.27778 L3030.5,2272.27778 L3022.5,2272.27778 L3022.5,2288.27778 L3030.5,2288.27778 Z" fill="#D6D6D6" fill-rule="nonzero"></path>
        <g id="Group" transform="translate(1346.000000, 2178.000000)">
            <rect id="Rectangle" stroke="#D6D6D6" fill="#EEEEEE" x="0.5" y="0.5" width="703" height="202" rx="8"></rect>
            <text id="b325c" font-family="NotoSansCJKjp-Bold, Noto Sans CJK JP" font-size="120" font-weight="bold" fill="#D6D6D6">
                <tspan x="175.72" y="154">b325c</tspan>
            </text>
        </g>
        <g id="Group" transform="translate(2307.000000, 2178.000000)">
            <rect id="Rectangle" stroke="#D6D6D6" fill="#EEEEEE" x="0.5" y="0.5" width="703" height="202" rx="8"></rect>
            <text id="c10b9" font-family="NotoSansCJKjp-Bold, Noto Sans CJK JP" font-size="120" font-weight="bold" fill="#D6D6D6">
                <tspan x="175.72" y="154">c10b9</tspan>
            </text>
        </g>
        <g id="Group" transform="translate(3273.000000, 2178.000000)">
            <rect id="Rectangle" stroke="#D6D6D6" fill="#EEEEEE" x="0.5" y="0.5" width="703" height="202" rx="8"></rect>
            <text id="new" font-family="NotoSansCJKjp-Bold, Noto Sans CJK JP" font-size="120" font-weight="bold" fill="#D6D6D6">
                <tspan x="227.14" y="154">new</tspan>
            </text>
        </g>
    </g>
</svg>