<?xml version="1.0" encoding="UTF-8"?>
<svg width="800px" height="400px" viewBox="0 0 800 400" version="1.1" xmlns="http://www.w3.org/2000/svg" xmlns:xlink="http://www.w3.org/1999/xlink">
    <!-- Generator: Sketch 52.1 (67048) - http://www.bohemiancoding.com/sketch -->
    <title>Artboard</title>
    <desc>Created with Sketch.</desc>
    <g id="Artboard" stroke="none" stroke-width="1" fill="none" fill-rule="evenodd">
        <rect fill="#FFFFFF" x="0" y="0" width="800" height="400"></rect>
        <g id="Group-2" transform="translate(104.000000, 21.000000)">
            <g id="シングルテナント">
                <g id="Group-5" transform="translate(0.000000, 52.000000)" stroke="#FF9900" stroke-width="0.5">
                    <rect id="Rectangle" x="0.25" y="0.25" width="649.5" height="294.5" rx="4"></rect>
                </g>
                <text id="マイクロサービスアーキテクチャ" font-family="NotoSansCJKjp-Bold, Noto Sans CJK JP" font-size="24" font-weight="bold" letter-spacing="1" fill="#FF9900">
                    <tspan x="0" y="28">マイクロサービスアーキテクチャ</tspan>
                </text>
                <g id="Group" transform="translate(51.000000, 169.000000)">
                    <text id="CDN" font-family="NotoSansCJKjp-Bold, Noto Sans CJK JP" font-size="17" font-weight="bold" letter-spacing="0.708333194" fill="#FF9900">
                        <tspan x="0" y="52">CDN</tspan>
                    </text>
                    <g id="General/forums" transform="translate(4.000000, 0.000000)">
                        <g>
                            <polygon id="Shape" fill="#9D5125" fill-rule="nonzero" points="0.292307692 6.63648649 29.7076923 6.63648649 29.7076923 5.61891892 15 1.57297297 0.292307692 5.61891892"></polygon>
                            <polygon id="Rectangle-path" fill="#F58535" fill-rule="nonzero" points="0.292307692 0.0932432432 29.7076923 0.0932432432 29.7076923 5.61891892 0.292307692 5.61891892"></polygon>
                            <polygon id="Shape" fill="#9D5125" fill-rule="nonzero" points="0.292307692 14.3918919 29.7076923 14.3918919 29.7076923 13.3783784 15 9.32837838 0.292307692 13.3783784"></polygon>
                            <polygon id="Rectangle-path" fill="#F58535" fill-rule="nonzero" points="0.292307692 7.84864865 29.7076923 7.84864865 29.7076923 13.3743243 0.292307692 13.3743243"></polygon>
                            <polygon id="Shape" fill="#9D5125" fill-rule="nonzero" points="0.292307692 22.1513514 29.7076923 22.1513514 29.7076923 21.1337838 15 17.0878378 0.292307692 21.1337838"></polygon>
                            <rect id="Rectangle-path" fill="#F58535" fill-rule="nonzero" x="0.292307692" y="15.6081081" width="29.4153846" height="5.52567568"></rect>
                            <polygon id="Shape" fill="#9D5125" fill-rule="nonzero" points="0.292307692 29.9067568 29.7076923 29.9067568 29.7076923 28.8932432 15 24.8432432 0.292307692 28.8932432"></polygon>
                            <rect id="Rectangle-path" fill="#F58535" fill-rule="nonzero" x="0.292307692" y="23.3635135" width="29.4153846" height="5.52567568"></rect>
                            <polygon id="Rectangle-path" fill="#FFFFFF" fill-rule="nonzero" points="5.95769231 1.25675676 28.5961538 1.25675676 28.5961538 4.45135135 5.95769231 4.45135135"></polygon>
                            <polygon id="Rectangle-path" fill="#FFFFFF" fill-rule="nonzero" points="1.40384615 9.01216216 24.0423077 9.01216216 24.0423077 12.2067568 1.40384615 12.2067568"></polygon>
                            <polygon id="Rectangle-path" fill="#FFFFFF" fill-rule="nonzero" points="5.95769231 16.7716216 28.5961538 16.7716216 28.5961538 19.9662162 5.95769231 19.9662162"></polygon>
                            <polygon id="Rectangle-path" fill="#FFFFFF" fill-rule="nonzero" points="1.40384615 24.527027 24.0423077 24.527027 24.0423077 27.7216216 1.40384615 27.7216216"></polygon>
                        </g>
                        <g>
                            <polygon id="Shape" fill="#9D5125" fill-rule="nonzero" points="0.292307692 6.63648649 29.7076923 6.63648649 29.7076923 5.61891892 15 1.57297297 0.292307692 5.61891892"></polygon>
                            <polygon id="Rectangle-path" fill="#F58535" fill-rule="nonzero" points="0.292307692 0.0932432432 29.7076923 0.0932432432 29.7076923 5.61891892 0.292307692 5.61891892"></polygon>
                            <polygon id="Shape" fill="#9D5125" fill-rule="nonzero" points="0.292307692 14.3918919 29.7076923 14.3918919 29.7076923 13.3783784 15 9.32837838 0.292307692 13.3783784"></polygon>
                            <polygon id="Rectangle-path" fill="#F58535" fill-rule="nonzero" points="0.292307692 7.84864865 29.7076923 7.84864865 29.7076923 13.3743243 0.292307692 13.3743243"></polygon>
                            <polygon id="Shape" fill="#9D5125" fill-rule="nonzero" points="0.292307692 22.1513514 29.7076923 22.1513514 29.7076923 21.1337838 15 17.0878378 0.292307692 21.1337838"></polygon>
                            <rect id="Rectangle-path" fill="#F58535" fill-rule="nonzero" x="0.292307692" y="15.6081081" width="29.4153846" height="5.52567568"></rect>
                            <polygon id="Shape" fill="#9D5125" fill-rule="nonzero" points="0.292307692 29.9067568 29.7076923 29.9067568 29.7076923 28.8932432 15 24.8432432 0.292307692 28.8932432"></polygon>
                            <rect id="Rectangle-path" fill="#F58535" fill-rule="nonzero" x="0.292307692" y="23.3635135" width="29.4153846" height="5.52567568"></rect>
                            <polygon id="Rectangle-path" fill="#FFFFFF" fill-rule="nonzero" points="5.95769231 1.25675676 28.5961538 1.25675676 28.5961538 4.45135135 5.95769231 4.45135135"></polygon>
                            <polygon id="Rectangle-path" fill="#FFFFFF" fill-rule="nonzero" points="1.40384615 9.01216216 24.0423077 9.01216216 24.0423077 12.2067568 1.40384615 12.2067568"></polygon>
                            <polygon id="Rectangle-path" fill="#FFFFFF" fill-rule="nonzero" points="5.95769231 16.7716216 28.5961538 16.7716216 28.5961538 19.9662162 5.95769231 19.9662162"></polygon>
                            <polygon id="Rectangle-path" fill="#FFFFFF" fill-rule="nonzero" points="1.40384615 24.527027 24.0423077 24.527027 24.0423077 27.7216216 1.40384615 27.7216216"></polygon>
                        </g>
                    </g>
                </g>
                <g id="Group-3" transform="translate(168.000000, 165.000000)">
                    <text id="API-Gateway" font-family="NotoSansCJKjp-Bold, Noto Sans CJK JP" font-size="17" font-weight="bold" letter-spacing="0.7083332" fill="#FF9900">
                        <tspan x="0" y="65">API Gateway</tspan>
                    </text>
                    <g id="NetworkingContentDelivery/AmazonVPC/endpoints" transform="translate(35.000000, 0.000000)">
                        <g id="Group">
                            <g fill-rule="nonzero">
                                <ellipse id="Oval" fill="#9D5025" cx="19.5" cy="20.2617187" rx="19.1414516" ry="18.5432813"></ellipse>
                                <ellipse id="Oval" fill="#F58536" cx="19.5" cy="18.7382812" rx="19.1414516" ry="18.5432813"></ellipse>
                                <g transform="translate(3.774194, 4.875000)" fill="#FFFFFF" id="Shape">
                                    <path d="M15.7258065,27.64125 L15.423871,27.5376563 C13.158672,26.6205967 11.1575183,25.1838865 9.59274194,23.35125 C7.87613176,21.4237217 6.54313896,19.2046886 5.66129032,16.8065625 C4.4430426,13.3856148 3.84916805,9.78525031 3.90629032,6.166875 L3.90629032,5.289375 L4.81209677,5.289375 C5.62983871,5.289375 7.15209677,5.02734375 7.75596774,4.44234375 C8.34863683,3.75623725 8.7146445,2.91333749 8.80645161,2.023125 L8.85048387,1.45640625 L9.39774194,1.2553125 C11.4285764,0.538720561 13.5652907,0.14366204 15.7258065,0.0853125 C17.8839252,0.159798459 20.0177463,0.552267232 22.053871,1.24921875 L22.6137097,1.4503125 L22.6577419,2.023125 C22.7438343,2.90296175 23.1010801,3.73737997 23.6830645,4.41796875 C24.2491935,4.96640625 25.916129,5.19796875 26.6332258,5.2284375 L27.5201613,5.265 L27.5201613,6.12421875 C27.5853542,9.74912727 27.0000402,13.3574551 25.7903226,16.7882813 C24.9165414,19.1884723 23.5921837,21.4114632 21.8840323,23.3451563 C20.3205075,25.1805508 18.3191448,26.6195026 16.0529032,27.5376563 L15.7258065,27.64125 Z M5.7933871,6.995625 C5.93177419,13.26 7.68048387,18.4701563 10.9137097,22.0959375 C12.2291171,23.6342996 13.8701272,24.8811455 15.7258065,25.7521875 C17.5817986,24.8816312 19.2229081,23.6347098 20.5379032,22.0959375 C23.7585484,18.4396875 25.5198387,13.235625 25.6582258,6.946875 C24.6895161,6.81890625 23.205,6.4959375 22.3746774,5.69765625 C21.6079118,4.88057299 21.0992387,3.86752474 20.9090323,2.77875 C19.2335404,2.24397491 17.4886761,1.94037063 15.7258065,1.876875 C13.9647375,1.92356158 12.220371,2.22128817 10.548871,2.76046875 C10.3656888,3.85438363 9.8612386,4.87406632 9.09580645,5.69765625 C8.159419,6.44972984 7.00598276,6.90307147 5.7933871,6.995625 Z"></path>
                                    <path d="M21.431129,13.0101562 C20.298871,14.1070312 16.8454839,16.4409375 15.5308065,17.720625 L15.5308065,14.064375 L0.289354839,14.064375 L0.289354839,11.8767187 L15.4993548,11.8767187 L15.4993548,8.2753125 C16.751129,9.48796875 20.2045161,11.821875 21.431129,13.0101562 Z"></path>
                                </g>
                            </g>
                        </g>
                        <g id="Group">
                            <g fill-rule="nonzero">
                                <ellipse id="Oval" fill="#9D5025" cx="19.5" cy="20.2617187" rx="19.1414516" ry="18.5432813"></ellipse>
                                <ellipse id="Oval" fill="#F58536" cx="19.5" cy="18.7382812" rx="19.1414516" ry="18.5432813"></ellipse>
                                <g transform="translate(3.774194, 4.875000)" fill="#FFFFFF" id="Shape">
                                    <path d="M15.7258065,27.64125 L15.423871,27.5376563 C13.158672,26.6205967 11.1575183,25.1838865 9.59274194,23.35125 C7.87613176,21.4237217 6.54313896,19.2046886 5.66129032,16.8065625 C4.4430426,13.3856148 3.84916805,9.78525031 3.90629032,6.166875 L3.90629032,5.289375 L4.81209677,5.289375 C5.62983871,5.289375 7.15209677,5.02734375 7.75596774,4.44234375 C8.34863683,3.75623725 8.7146445,2.91333749 8.80645161,2.023125 L8.85048387,1.45640625 L9.39774194,1.2553125 C11.4285764,0.538720561 13.5652907,0.14366204 15.7258065,0.0853125 C17.8839252,0.159798459 20.0177463,0.552267232 22.053871,1.24921875 L22.6137097,1.4503125 L22.6577419,2.023125 C22.7438343,2.90296175 23.1010801,3.73737997 23.6830645,4.41796875 C24.2491935,4.96640625 25.916129,5.19796875 26.6332258,5.2284375 L27.5201613,5.265 L27.5201613,6.12421875 C27.5853542,9.74912727 27.0000402,13.3574551 25.7903226,16.7882813 C24.9165414,19.1884723 23.5921837,21.4114632 21.8840323,23.3451563 C20.3205075,25.1805508 18.3191448,26.6195026 16.0529032,27.5376563 L15.7258065,27.64125 Z M5.7933871,6.995625 C5.93177419,13.26 7.68048387,18.4701563 10.9137097,22.0959375 C12.2291171,23.6342996 13.8701272,24.8811455 15.7258065,25.7521875 C17.5817986,24.8816312 19.2229081,23.6347098 20.5379032,22.0959375 C23.7585484,18.4396875 25.5198387,13.235625 25.6582258,6.946875 C24.6895161,6.81890625 23.205,6.4959375 22.3746774,5.69765625 C21.6079118,4.88057299 21.0992387,3.86752474 20.9090323,2.77875 C19.2335404,2.24397491 17.4886761,1.94037063 15.7258065,1.876875 C13.9647375,1.92356158 12.220371,2.22128817 10.548871,2.76046875 C10.3656888,3.85438363 9.8612386,4.87406632 9.09580645,5.69765625 C8.159419,6.44972984 7.00598276,6.90307147 5.7933871,6.995625 Z"></path>
                                    <path d="M21.431129,13.0101562 C20.298871,14.1070312 16.8454839,16.4409375 15.5308065,17.720625 L15.5308065,14.064375 L0.289354839,14.064375 L0.289354839,11.8767187 L15.4993548,11.8767187 L15.4993548,8.2753125 C16.751129,9.48796875 20.2045161,11.821875 21.431129,13.0101562 Z"></path>
                                </g>
                            </g>
                        </g>
                    </g>
                </g>
                <g id="Group-6" transform="translate(325.000000, 245.000000)">
                    <text id="Lambda" font-family="NotoSansCJKjp-Bold, Noto Sans CJK JP" font-size="17" font-weight="bold" letter-spacing="0.7083332" fill="#FF9900">
                        <tspan x="43.2815004" y="20">Lambda</tspan>
                    </text>
                    <g id="Group-4" transform="translate(0.000000, 43.000000)">
                        <g id="Compute/AWSLambda/LambdaFunction" transform="translate(58.000000, 0.000000)">
                            <g id="Group">
                                <g fill-rule="nonzero">
                                    <ellipse id="Oval" fill="#9D5025" cx="21" cy="21.8203125" rx="20.613871" ry="19.9696875"></ellipse>
                                    <polygon id="Rectangle-path" fill="#9D5025" points="0.386129032 20.1796875 41.613871 20.1796875 41.613871 21.8203125 0.386129032 21.8203125"></polygon>
                                    <ellipse id="Oval" fill="#F58536" cx="21" cy="20.1796875" rx="20.613871" ry="19.9696875"></ellipse>
                                    <polygon id="Shape" fill="#FFFFFF" points="34.4129032 29.990625 32.8141935 25.9284375 29.2374194 27.2540625 24.1229032 14.28 22.7003226 10.6903125 22.0364516 8.9971875 20.9864516 6.3459375 16.1835484 6.3459375 14.2122581 6.3459375 14.2122581 10.6903125 17.8974194 10.6903125 19.1777419 13.9321875 8.51516129 32.3203125 13.6635484 32.3203125 21.2641935 19.2084375 26.6496774 32.865 27.93 32.3925 30.8429032 31.31625 30.8429032 31.31625"></polygon>
                                </g>
                            </g>
                            <g id="Group">
                                <g fill-rule="nonzero">
                                    <ellipse id="Oval" fill="#9D5025" cx="21" cy="21.8203125" rx="20.613871" ry="19.9696875"></ellipse>
                                    <polygon id="Rectangle-path" fill="#9D5025" points="0.386129032 20.1796875 41.613871 20.1796875 41.613871 21.8203125 0.386129032 21.8203125"></polygon>
                                    <ellipse id="Oval" fill="#F58536" cx="21" cy="20.1796875" rx="20.613871" ry="19.9696875"></ellipse>
                                    <polygon id="Shape" fill="#FFFFFF" points="34.4129032 29.990625 32.8141935 25.9284375 29.2374194 27.2540625 24.1229032 14.28 22.7003226 10.6903125 22.0364516 8.9971875 20.9864516 6.3459375 16.1835484 6.3459375 14.2122581 6.3459375 14.2122581 10.6903125 17.8974194 10.6903125 19.1777419 13.9321875 8.51516129 32.3203125 13.6635484 32.3203125 21.2641935 19.2084375 26.6496774 32.865 27.93 32.3925 30.8429032 31.31625 30.8429032 31.31625"></polygon>
                                </g>
                            </g>
                        </g>
                        <g id="Compute/AWSLambda/LambdaFunction" transform="translate(116.000000, 0.000000)">
                            <g id="Group">
                                <g fill-rule="nonzero">
                                    <ellipse id="Oval" fill="#9D5025" cx="21" cy="21.8203125" rx="20.613871" ry="19.9696875"></ellipse>
                                    <polygon id="Rectangle-path" fill="#9D5025" points="0.386129032 20.1796875 41.613871 20.1796875 41.613871 21.8203125 0.386129032 21.8203125"></polygon>
                                    <ellipse id="Oval" fill="#F58536" cx="21" cy="20.1796875" rx="20.613871" ry="19.9696875"></ellipse>
                                    <polygon id="Shape" fill="#FFFFFF" points="34.4129032 29.990625 32.8141935 25.9284375 29.2374194 27.2540625 24.1229032 14.28 22.7003226 10.6903125 22.0364516 8.9971875 20.9864516 6.3459375 16.1835484 6.3459375 14.2122581 6.3459375 14.2122581 10.6903125 17.8974194 10.6903125 19.1777419 13.9321875 8.51516129 32.3203125 13.6635484 32.3203125 21.2641935 19.2084375 26.6496774 32.865 27.93 32.3925 30.8429032 31.31625 30.8429032 31.31625"></polygon>
                                </g>
                            </g>
                            <g id="Group">
                                <g fill-rule="nonzero">
                                    <ellipse id="Oval" fill="#9D5025" cx="21" cy="21.8203125" rx="20.613871" ry="19.9696875"></ellipse>
                                    <polygon id="Rectangle-path" fill="#9D5025" points="0.386129032 20.1796875 41.613871 20.1796875 41.613871 21.8203125 0.386129032 21.8203125"></polygon>
                                    <ellipse id="Oval" fill="#F58536" cx="21" cy="20.1796875" rx="20.613871" ry="19.9696875"></ellipse>
                                    <polygon id="Shape" fill="#FFFFFF" points="34.4129032 29.990625 32.8141935 25.9284375 29.2374194 27.2540625 24.1229032 14.28 22.7003226 10.6903125 22.0364516 8.9971875 20.9864516 6.3459375 16.1835484 6.3459375 14.2122581 6.3459375 14.2122581 10.6903125 17.8974194 10.6903125 19.1777419 13.9321875 8.51516129 32.3203125 13.6635484 32.3203125 21.2641935 19.2084375 26.6496774 32.865 27.93 32.3925 30.8429032 31.31625 30.8429032 31.31625"></polygon>
                                </g>
                            </g>
                        </g>
                        <g id="Compute/AWSLambda/LambdaFunction">
                            <g id="Group">
                                <g fill-rule="nonzero">
                                    <ellipse id="Oval" fill="#9D5025" cx="21" cy="21.8203125" rx="20.613871" ry="19.9696875"></ellipse>
                                    <polygon id="Rectangle-path" fill="#9D5025" points="0.386129032 20.1796875 41.613871 20.1796875 41.613871 21.8203125 0.386129032 21.8203125"></polygon>
                                    <ellipse id="Oval" fill="#F58536" cx="21" cy="20.1796875" rx="20.613871" ry="19.9696875"></ellipse>
                                    <polygon id="Shape" fill="#FFFFFF" points="34.4129032 29.990625 32.8141935 25.9284375 29.2374194 27.2540625 24.1229032 14.28 22.7003226 10.6903125 22.0364516 8.9971875 20.9864516 6.3459375 16.1835484 6.3459375 14.2122581 6.3459375 14.2122581 10.6903125 17.8974194 10.6903125 19.1777419 13.9321875 8.51516129 32.3203125 13.6635484 32.3203125 21.2641935 19.2084375 26.6496774 32.865 27.93 32.3925 30.8429032 31.31625 30.8429032 31.31625"></polygon>
                                </g>
                            </g>
                            <g id="Group">
                                <g fill-rule="nonzero">
                                    <ellipse id="Oval" fill="#9D5025" cx="21" cy="21.8203125" rx="20.613871" ry="19.9696875"></ellipse>
                                    <polygon id="Rectangle-path" fill="#9D5025" points="0.386129032 20.1796875 41.613871 20.1796875 41.613871 21.8203125 0.386129032 21.8203125"></polygon>
                                    <ellipse id="Oval" fill="#F58536" cx="21" cy="20.1796875" rx="20.613871" ry="19.9696875"></ellipse>
                                    <polygon id="Shape" fill="#FFFFFF" points="34.4129032 29.990625 32.8141935 25.9284375 29.2374194 27.2540625 24.1229032 14.28 22.7003226 10.6903125 22.0364516 8.9971875 20.9864516 6.3459375 16.1835484 6.3459375 14.2122581 6.3459375 14.2122581 10.6903125 17.8974194 10.6903125 19.1777419 13.9321875 8.51516129 32.3203125 13.6635484 32.3203125 21.2641935 19.2084375 26.6496774 32.865 27.93 32.3925 30.8429032 31.31625 30.8429032 31.31625"></polygon>
                                </g>
                            </g>
                        </g>
                    </g>
                </g>
            </g>
        </g>
        <g id="General/user" transform="translate(28.000000, 196.000000)">
            <g id="Shape">
                <path d="M13.5,1.61357143 L21.0728571,7.52785714 L21.0728571,9.12214286 C21.0728571,13.3009659 17.6852516,16.6885713 13.5064286,16.6885713 C9.32760552,16.6885713 5.94000009,13.3009659 5.94,9.12214286 L5.94,7.52785714 L13.5,1.61357143 Z" fill="#7D7C7C" fill-rule="nonzero"></path>
                <path d="M17.8264286,18.7842857 C22.6092857,18.7842857 26.4728571,21.6835714 26.4728571,26.415 L26.4728571,35.955 L21.4907143,35.955 L21.4907143,29.2628571 L20.6421429,29.2628571 L20.6421429,35.955 L6.55071429,35.955 L6.55071429,29.2628571 L5.69571429,29.2628571 L5.69571429,35.955 L0.552857143,35.955 L0.552857143,26.415 C0.552857143,21.6835714 4.41,18.7842857 9.20571429,18.7842857 L17.8264286,18.7842857 Z" fill="#7D7C7C" fill-rule="nonzero"></path>
                <path d="M13.5,-1.42740637e-15 C17.6366757,0.0318899797 20.9682978,3.40367315 20.9506204,7.54043398 C20.932943,11.6771948 17.5726262,15.0203817 13.4358291,15.0169171 C9.29903191,15.0134525 5.94431969,11.6646418 5.93357143,7.52785714 C5.93697352,5.52570103 6.73647412,3.60709007 8.15582743,2.19497221 C9.57518074,0.782854343 11.4978526,-0.00683037213 13.5,8.56485835e-16 L13.5,-1.42740637e-15 Z" fill="#D2D3D3" fill-rule="nonzero"></path>
                <path d="M17.8264286,17.19 C22.6092857,17.19 26.4728571,20.0892857 26.4728571,24.8207143 L26.4728571,34.3607143 L21.4907143,34.3607143 L21.4907143,27.6428571 L20.6421429,27.6428571 L20.6421429,34.3607143 L6.55071429,34.3607143 L6.55071429,27.6428571 L5.69571429,27.6428571 L5.69571429,34.3607143 L0.552857143,34.3607143 L0.552857143,24.8207143 C0.552857143,20.0892857 4.41,17.19 9.20571429,17.19 L17.8264286,17.19 Z" fill="#D2D3D3" fill-rule="nonzero"></path>
            </g>
            <g id="Shape">
                <path d="M13.5,1.61357143 L21.0728571,7.52785714 L21.0728571,9.12214286 C21.0728571,13.3009659 17.6852516,16.6885713 13.5064286,16.6885713 C9.32760552,16.6885713 5.94000009,13.3009659 5.94,9.12214286 L5.94,7.52785714 L13.5,1.61357143 Z" fill="#7D7C7C" fill-rule="nonzero"></path>
                <path d="M17.8264286,18.7842857 C22.6092857,18.7842857 26.4728571,21.6835714 26.4728571,26.415 L26.4728571,35.955 L21.4907143,35.955 L21.4907143,29.2628571 L20.6421429,29.2628571 L20.6421429,35.955 L6.55071429,35.955 L6.55071429,29.2628571 L5.69571429,29.2628571 L5.69571429,35.955 L0.552857143,35.955 L0.552857143,26.415 C0.552857143,21.6835714 4.41,18.7842857 9.20571429,18.7842857 L17.8264286,18.7842857 Z" fill="#7D7C7C" fill-rule="nonzero"></path>
                <path d="M13.5,-1.42740637e-15 C17.6366757,0.0318899797 20.9682978,3.40367315 20.9506204,7.54043398 C20.932943,11.6771948 17.5726262,15.0203817 13.4358291,15.0169171 C9.29903191,15.0134525 5.94431969,11.6646418 5.93357143,7.52785714 C5.93697352,5.52570103 6.73647412,3.60709007 8.15582743,2.19497221 C9.57518074,0.782854343 11.4978526,-0.00683037213 13.5,8.56485835e-16 L13.5,-1.42740637e-15 Z" fill="#D2D3D3" fill-rule="nonzero"></path>
                <path d="M17.8264286,17.19 C22.6092857,17.19 26.4728571,20.0892857 26.4728571,24.8207143 L26.4728571,34.3607143 L21.4907143,34.3607143 L21.4907143,27.6428571 L20.6421429,27.6428571 L20.6421429,34.3607143 L6.55071429,34.3607143 L6.55071429,27.6428571 L5.69571429,27.6428571 L5.69571429,34.3607143 L0.552857143,34.3607143 L0.552857143,24.8207143 C0.552857143,20.0892857 4.41,17.19 9.20571429,17.19 L17.8264286,17.19 Z" fill="#D2D3D3" fill-rule="nonzero"></path>
            </g>
        </g>
        <g id="General/AWScloud" transform="translate(129.000000, 61.000000)">
            <g>
                <polygon id="Fill-1" fill="#FF9900" points="0 30 30 30 30 0 0 0"></polygon>
                <g id="Group-8" transform="translate(4.285714, 9.000000)" fill="#FFFFFF">
                    <path d="M17.8398857,6.71125714 C17.4751714,6.71125714 17.1181714,6.67054286 16.7697429,6.58954286 C16.4213143,6.50854286 16.1538857,6.41554286 15.9674571,6.31011429 C15.8538857,6.2454 15.7827429,6.18025714 15.7544571,6.11554286 C15.7261714,6.05082857 15.7120286,5.98568571 15.7120286,5.92097143 L15.7120286,5.56825714 C15.7120286,5.42254286 15.7647429,5.34925714 15.8701714,5.34925714 C15.9104571,5.34925714 15.9528857,5.3574 15.9978857,5.37368571 C16.0420286,5.38997143 16.1011714,5.4144 16.1740286,5.44654286 C16.4088857,5.55197143 16.6643143,5.6334 16.9398857,5.68997143 C17.2154571,5.74654286 17.4914571,5.77482857 17.7670286,5.77482857 C18.2046,5.77482857 18.5431714,5.69811429 18.7823143,5.54382857 C19.0214571,5.38997143 19.1410286,5.17097143 19.1410286,4.88725714 C19.1410286,4.69268571 19.0780286,4.53068571 18.9524571,4.40082857 C18.8268857,4.2714 18.5937429,4.14968571 18.2534571,4.03611429 L17.2441714,3.71982857 C16.7333143,3.55782857 16.3626,3.32297143 16.1316,3.01482857 C15.9006,2.70668571 15.7848857,2.37025714 15.7848857,2.00554286 C15.7848857,1.71368571 15.8474571,1.45654286 15.9734571,1.23325714 C16.0990286,1.0104 16.2653143,0.819685714 16.4718857,0.661971429 C16.6784571,0.503828571 16.9197429,0.384257143 17.1953143,0.303257143 C17.4708857,0.222257143 17.7627429,0.181542857 18.0708857,0.181542857 C18.2247429,0.181542857 18.3811714,0.191828571 18.5388857,0.211971429 C18.6970286,0.232114286 18.8470286,0.258685714 18.9888857,0.290828571 C19.1307429,0.3234 19.2627429,0.359828571 19.3840286,0.400542857 C19.5057429,0.440828571 19.6030286,0.481542857 19.6758857,0.521828571 C19.7731714,0.578828571 19.8421714,0.6354 19.8828857,0.6924 C19.9231714,0.748971429 19.9437429,0.826114286 19.9437429,0.9234 L19.9437429,1.25168571 C19.9437429,1.3974 19.8906,1.47025714 19.7856,1.47025714 C19.7286,1.47025714 19.6394571,1.44197143 19.5177429,1.3854 C19.1204571,1.20711429 18.6747429,1.11797143 18.1801714,1.11797143 C17.7828857,1.11797143 17.4751714,1.18268571 17.2561714,1.31254286 C17.0371714,1.44197143 16.9278857,1.64897143 16.9278857,1.93268571 C16.9278857,2.12682857 16.9968857,2.2914 17.1344571,2.42511429 C17.2724571,2.55882857 17.5278857,2.68654286 17.9007429,2.80782857 L18.8856,3.12411429 C19.3883143,3.28654286 19.7470286,3.5094 19.9617429,3.79311429 C20.1764571,4.07682857 20.2840286,4.40082857 20.2840286,4.76554286 C20.2840286,5.06554286 20.2231714,5.33511429 20.1014571,5.57425714 C19.9801714,5.8134 19.8117429,6.01825714 19.5970286,6.1884 C19.3823143,6.35854286 19.1247429,6.4884 18.8247429,6.57754286 C18.5247429,6.66668571 18.1964571,6.71125714 17.8398857,6.71125714 Z M8.91445714,6.52868571 C8.79317143,6.52868571 8.7036,6.5064 8.64702857,6.46182857 C8.59045714,6.41768571 8.5416,6.3264 8.50131429,6.1884 L6.87188571,0.813685714 C6.83117143,0.676114286 6.81102857,0.582685714 6.81102857,0.534257143 C6.81102857,0.420685714 6.8676,0.363685714 6.98117143,0.363685714 L7.66217143,0.363685714 C7.7916,0.363685714 7.88288571,0.3864 7.93602857,0.430971429 C7.98831429,0.475542857 8.03502857,0.5664 8.07574286,0.7044 L9.24317143,5.30082857 L10.3253143,0.7044 C10.3574571,0.5664 10.4020286,0.475542857 10.4590286,0.430971429 C10.5156,0.3864 10.6090286,0.363685714 10.7384571,0.363685714 L11.2977429,0.363685714 C11.4276,0.363685714 11.5210286,0.3864 11.5776,0.430971429 C11.6341714,0.475542857 11.6787429,0.5664 11.7113143,0.7044 L12.8058857,5.36168571 L14.0097429,0.7044 C14.0500286,0.5664 14.0967429,0.475542857 14.1494571,0.430971429 C14.2021714,0.3864 14.2930286,0.363685714 14.4228857,0.363685714 L15.0674571,0.363685714 C15.1810286,0.363685714 15.2376,0.420685714 15.2376,0.534257143 C15.2376,0.5664 15.2337429,0.603257143 15.2256,0.643542857 C15.2174571,0.684257143 15.2011714,0.740828571 15.1767429,0.813685714 L13.4988857,6.1884 C13.4581714,6.3264 13.4097429,6.41768571 13.3527429,6.46182857 C13.2961714,6.5064 13.2070286,6.52868571 13.0853143,6.52868571 L12.4896,6.52868571 C12.3597429,6.52868571 12.2667429,6.50468571 12.2097429,6.45582857 C12.1531714,6.4074 12.1086,6.31397143 12.0760286,6.1764 L10.9938857,1.70125714 L9.92374286,6.1764 C9.8916,6.31397143 9.8466,6.4074 9.79002857,6.45582857 C9.73345714,6.50468571 9.64002857,6.52868571 9.5106,6.52868571 L8.91445714,6.52868571 Z M3.33317143,5.77482857 C3.56031429,5.77482857 3.79945714,5.7324 4.0506,5.64711429 C4.30217143,5.56225714 4.52074286,5.4144 4.7076,5.20354286 C4.82074286,5.07411429 4.90002857,4.92582857 4.9446,4.75954286 C4.98917143,4.59368571 5.01145714,4.39311429 5.01145714,4.15782857 L5.01145714,3.86597143 C4.80874286,3.81711429 4.59574286,3.77897143 4.37288571,3.75025714 C4.15002857,3.72197143 3.93317143,3.70782857 3.72231429,3.70782857 C3.26031429,3.70782857 2.91574286,3.80125714 2.68902857,3.98768571 C2.46188571,4.17411429 2.34831429,4.44154286 2.34831429,4.78997143 C2.34831429,5.1144 2.4336,5.35954286 2.60374286,5.52582857 C2.77388571,5.69211429 3.01731429,5.77482857 3.33317143,5.77482857 Z M6.15445714,4.71711429 C6.15445714,4.9764 6.1806,5.1834 6.23331429,5.33725714 C6.28602857,5.49111429 6.36102857,5.6574 6.45831429,5.83568571 C6.49088571,5.89268571 6.50717143,5.94497143 6.50717143,5.99382857 C6.50717143,6.06668571 6.4626,6.13568571 6.37345714,6.2004 L5.93545714,6.49225714 C5.87074286,6.53297143 5.80988571,6.55311429 5.75331429,6.55311429 C5.68002857,6.55311429 5.61102857,6.52097143 5.54631429,6.45582857 C5.44902857,6.35854286 5.36588571,6.2514 5.29731429,6.13354286 C5.22831429,6.01611429 5.15717143,5.88025714 5.08431429,5.7264 C4.54131429,6.36668571 3.86031429,6.68682857 3.04174286,6.68682857 C2.45802857,6.68682857 1.9956,6.52097143 1.65531429,6.1884 C1.31502857,5.85625714 1.14445714,5.41011429 1.14445714,4.85082857 C1.14445714,4.25897143 1.35531429,3.78282857 1.77702857,3.42197143 C2.19831429,3.06154286 2.76574286,2.88111429 3.47931429,2.88111429 C3.71417143,2.88111429 3.95974286,2.89911429 4.21474286,2.93554286 C4.47017143,2.97197143 4.73588571,3.02297143 5.01145714,3.08768571 L5.01145714,2.57682857 C5.01145714,2.05011429 4.90174286,1.6794 4.68317143,1.46425714 C4.46417143,1.24954286 4.08745714,1.14197143 3.55217143,1.14197143 C3.30917143,1.14197143 3.05974286,1.1724 2.80431429,1.23325714 C2.54888571,1.29411429 2.29988571,1.37297143 2.05645714,1.47025714 C1.94288571,1.51911429 1.86188571,1.54954286 1.81345714,1.56154286 C1.7646,1.57397143 1.72817143,1.57997143 1.70417143,1.57997143 C1.60688571,1.57997143 1.55802857,1.50711429 1.55802857,1.36097143 L1.55802857,1.02068571 C1.55802857,0.907114286 1.57431429,0.826114286 1.60688571,0.777257143 C1.63902857,0.728828571 1.70417143,0.679971429 1.80102857,0.631542857 C2.04445714,0.509828571 2.33631429,0.4044 2.6766,0.315257143 C3.01731429,0.226114286 3.37774286,0.181542857 3.75874286,0.181542857 C4.58588571,0.181542857 5.19188571,0.370114286 5.57674286,0.746828571 C5.9616,1.12397143 6.15445714,1.69354286 6.15445714,2.45554286 L6.15445714,4.71711429 Z" id="Fill-2"></path>
                    <path d="M19.1541429,10.0902429 C16.8664286,11.7783857 13.5497143,12.6762429 10.6937143,12.6762429 C6.69085714,12.6762429 3.08657143,11.1968143 0.358714286,8.73381429 C0.144428571,8.54052857 0.335571429,8.2761 0.593142857,8.4261 C3.53571429,10.1386714 7.17514286,11.1698143 10.9341429,11.1698143 C13.4695714,11.1698143 16.257,10.6435286 18.8215714,9.55581429 C19.2081429,9.39167143 19.5325714,9.81038571 19.1541429,10.0902429" id="Fill-4"></path>
                    <path d="M20.1061286,9.00334286 C19.8134143,8.62877143 18.1719857,8.82591429 17.4344143,8.9142 C17.2111286,8.9412 17.1764143,8.74577143 17.3778429,8.60434286 C18.6875571,7.68462857 20.8329857,7.95034286 21.0824143,8.25805714 C21.3335571,8.56877143 21.0164143,10.7202 19.7894143,11.7466286 C19.6004143,11.9047714 19.4208429,11.8203429 19.5044143,11.6120571 C19.7808429,10.9220571 20.3988429,9.37834286 20.1061286,9.00334286" id="Fill-6"></path>
                </g>
            </g>
        </g>
        <g id="Storage/AmazonS3/bucket" transform="translate(665.000000, 212.000000)">
            <g id="Group">
                <g fill-rule="nonzero">
                    <path d="M27,3.06 L53.5,7 L53.5,9.32 C53.5,12.77 41.63,15.55 26.99,15.55 C12.35,15.55 0.49,12.77 0.49,9.32 L0.49,6.8 L27,3.06 Z" id="Shape" fill="#8C3123"></path>
                    <path d="M27,19.8 C38.07,19.8 47.55,18.21 51.52,15.95 L52.82,13.75 L53.35,11.75 L53.35,14.23 L44.68,51.23 C44.68,53.53 36.77,55.38 27.01,55.38 C17.25,55.38 9.35,53.53 9.35,51.23 L0.68,14.23 L0.68,11.8 L2.68,16.03 C6.66,18.25 16.05,19.8 27,19.8 Z" id="Shape" fill="#8C3123"></path>
                    <path d="M27,0.58 C41.64,0.58 53.51,3.37 53.51,6.8 C53.51,10.23 41.63,13 27,13 C12.37,13 0.5,10.25 0.5,6.8 C0.5,3.35 12.36,0.58 27,0.58 Z" id="Shape" fill="#E05243"></path>
                    <path d="M27,17.32 C40.65,17.32 51.88,14.91 53.34,11.79 L44.67,48.79 C44.67,51.09 36.76,52.94 27,52.94 C17.24,52.94 9.33,51.1 9.33,48.8 L0.66,11.8 C2.13,14.91 13.36,17.32 27,17.32 Z" id="Shape" fill="#E05243"></path>
                </g>
            </g>
            <g id="Group">
                <g fill-rule="nonzero">
                    <path d="M27,3.06 L53.5,7 L53.5,9.32 C53.5,12.77 41.63,15.55 26.99,15.55 C12.35,15.55 0.49,12.77 0.49,9.32 L0.49,6.8 L27,3.06 Z" id="Shape" fill="#8C3123"></path>
                    <path d="M27,19.8 C38.07,19.8 47.55,18.21 51.52,15.95 L52.82,13.75 L53.35,11.75 L53.35,14.23 L44.68,51.23 C44.68,53.53 36.77,55.38 27.01,55.38 C17.25,55.38 9.35,53.53 9.35,51.23 L0.68,14.23 L0.68,11.8 L2.68,16.03 C6.66,18.25 16.05,19.8 27,19.8 Z" id="Shape" fill="#8C3123"></path>
                    <path d="M27,0.58 C41.64,0.58 53.51,3.37 53.51,6.8 C53.51,10.23 41.63,13 27,13 C12.37,13 0.5,10.25 0.5,6.8 C0.5,3.35 12.36,0.58 27,0.58 Z" id="Shape" fill="#E05243"></path>
                    <path d="M27,17.32 C40.65,17.32 51.88,14.91 53.34,11.79 L44.67,48.79 C44.67,51.09 36.76,52.94 27,52.94 C17.24,52.94 9.33,51.1 9.33,48.8 L0.66,11.8 C2.13,14.91 13.36,17.32 27,17.32 Z" id="Shape" fill="#E05243"></path>
                </g>
            </g>
        </g>
        <g id="NetworkingContentDelivery/AmazonRoute53/AmazonRoute53" transform="translate(22.000000, 320.000000)">
            <g id="Group">
                <g fill-rule="nonzero">
                    <polygon id="Shape" fill="#F58536" points="28.4058824 43.8029268 19.9647059 48 19.9647059 0 28.4058824 4.20292683"></polygon>
                    <polygon id="Shape" fill="#9D5025" points="11.5235294 43.8029268 19.9647059 48 19.9647059 0 11.5235294 4.20292683"></polygon>
                    <polygon id="Shape" fill="#F58536" points="16.7823529 17.4673171 2.54705882 15.6643902 2.54705882 8.66926829 16.7823529 12"></polygon>
                    <polygon id="Shape" fill="#9D5025" points="0 9.93365854 2.54705882 8.66926829 2.54705882 15.6643902 0 16.3668293"></polygon>
                    <polygon id="Shape" fill="#6B3A19" points="16.7823529 17.4673171 13.8352941 17.9004878 0 16.3668293 2.54705882 15.6643902"></polygon>
                    <polygon id="Shape" fill="#F58536" points="37.8882353 30.035122 40 29.6019512 40 24 37.8882353 24"></polygon>
                    <polygon id="Shape" fill="#9D5025" points="23.1176471 28.764878 37.8882353 30.1346341 37.8882353 24 23.1176471 24"></polygon>
                </g>
            </g>
            <g id="Group">
                <g fill-rule="nonzero">
                    <polygon id="Shape" fill="#F58536" points="28.4058824 43.8029268 19.9647059 48 19.9647059 0 28.4058824 4.20292683"></polygon>
                    <polygon id="Shape" fill="#9D5025" points="11.5235294 43.8029268 19.9647059 48 19.9647059 0 11.5235294 4.20292683"></polygon>
                    <polygon id="Shape" fill="#F58536" points="16.7823529 17.4673171 2.54705882 15.6643902 2.54705882 8.66926829 16.7823529 12"></polygon>
                    <polygon id="Shape" fill="#9D5025" points="0 9.93365854 2.54705882 8.66926829 2.54705882 15.6643902 0 16.3668293"></polygon>
                    <polygon id="Shape" fill="#6B3A19" points="16.7823529 17.4673171 13.8352941 17.9004878 0 16.3668293 2.54705882 15.6643902"></polygon>
                    <polygon id="Shape" fill="#F58536" points="37.8882353 30.035122 40 29.6019512 40 24 37.8882353 24"></polygon>
                    <polygon id="Shape" fill="#9D5025" points="23.1176471 28.764878 37.8882353 30.1346341 37.8882353 24 23.1176471 24"></polygon>
                </g>
            </g>
        </g>
        <path id="Line" d="M34,293 L34,242.5 L34,241.5 L36,241.5 L36,242.5 L36,293 L42,293 L35,307 L28,293 L34,293 Z" fill="#FF9900" fill-rule="nonzero"></path>
        <path id="Line" d="M56,257 L56,307 L56,308 L54,308 L54,307 L54,257 L48,257 L55,243 L62,257 L56,257 Z" fill="#FF9900" fill-rule="nonzero"></path>
        <path id="Line" d="M130,205 L67,205 L66,205 L66,203 L67,203 L130,203 L130,197 L144,204 L130,211 L130,205 Z" fill="#FF9900" fill-rule="nonzero"></path>
        <path id="Line" d="M80.7567948,223 L144,223 L145,223 L145,225 L144,225 L80.7567948,225 L80.7567948,231 L66.7567948,224 L80.7567948,217 L80.7567948,223 Z" fill="#FF9900" fill-rule="nonzero"></path>
        <g id="Group-6" transform="translate(429.000000, 83.000000)">
            <text id="Lambda" font-family="NotoSansCJKjp-Bold, Noto Sans CJK JP" font-size="17" font-weight="bold" letter-spacing="0.7083332" fill="#FF9900">
                <tspan x="43.2815004" y="203">Lambda</tspan>
            </text>
            <text id="S3" font-family="NotoSansCJKjp-Bold, Noto Sans CJK JP" font-size="17" font-weight="bold" letter-spacing="0.7083332" fill="#FF9900">
                <tspan x="249.481167" y="205">S3</tspan>
            </text>
            <text id="RDS" font-family="NotoSansCJKjp-Bold, Noto Sans CJK JP" font-size="17" font-weight="bold" letter-spacing="0.7083332" fill="#FF9900">
                <tspan x="242.2675" y="103">RDS</tspan>
            </text>
            <g id="Group-4" transform="translate(0.000000, 226.000000)">
                <g id="Compute/AWSLambda/LambdaFunction" transform="translate(58.000000, 0.000000)">
                    <g id="Group">
                        <g fill-rule="nonzero">
                            <ellipse id="Oval" fill="#9D5025" cx="21" cy="21.8203125" rx="20.613871" ry="19.9696875"></ellipse>
                            <polygon id="Rectangle-path" fill="#9D5025" points="0.386129032 20.1796875 41.613871 20.1796875 41.613871 21.8203125 0.386129032 21.8203125"></polygon>
                            <ellipse id="Oval" fill="#F58536" cx="21" cy="20.1796875" rx="20.613871" ry="19.9696875"></ellipse>
                            <polygon id="Shape" fill="#FFFFFF" points="34.4129032 29.990625 32.8141935 25.9284375 29.2374194 27.2540625 24.1229032 14.28 22.7003226 10.6903125 22.0364516 8.9971875 20.9864516 6.3459375 16.1835484 6.3459375 14.2122581 6.3459375 14.2122581 10.6903125 17.8974194 10.6903125 19.1777419 13.9321875 8.51516129 32.3203125 13.6635484 32.3203125 21.2641935 19.2084375 26.6496774 32.865 27.93 32.3925 30.8429032 31.31625 30.8429032 31.31625"></polygon>
                        </g>
                    </g>
                    <g id="Group">
                        <g fill-rule="nonzero">
                            <ellipse id="Oval" fill="#9D5025" cx="21" cy="21.8203125" rx="20.613871" ry="19.9696875"></ellipse>
                            <polygon id="Rectangle-path" fill="#9D5025" points="0.386129032 20.1796875 41.613871 20.1796875 41.613871 21.8203125 0.386129032 21.8203125"></polygon>
                            <ellipse id="Oval" fill="#F58536" cx="21" cy="20.1796875" rx="20.613871" ry="19.9696875"></ellipse>
                            <polygon id="Shape" fill="#FFFFFF" points="34.4129032 29.990625 32.8141935 25.9284375 29.2374194 27.2540625 24.1229032 14.28 22.7003226 10.6903125 22.0364516 8.9971875 20.9864516 6.3459375 16.1835484 6.3459375 14.2122581 6.3459375 14.2122581 10.6903125 17.8974194 10.6903125 19.1777419 13.9321875 8.51516129 32.3203125 13.6635484 32.3203125 21.2641935 19.2084375 26.6496774 32.865 27.93 32.3925 30.8429032 31.31625 30.8429032 31.31625"></polygon>
                        </g>
                    </g>
                </g>
                <g id="Compute/AWSLambda/LambdaFunction" transform="translate(116.000000, 0.000000)">
                    <g id="Group">
                        <g fill-rule="nonzero">
                            <ellipse id="Oval" fill="#9D5025" cx="21" cy="21.8203125" rx="20.613871" ry="19.9696875"></ellipse>
                            <polygon id="Rectangle-path" fill="#9D5025" points="0.386129032 20.1796875 41.613871 20.1796875 41.613871 21.8203125 0.386129032 21.8203125"></polygon>
                            <ellipse id="Oval" fill="#F58536" cx="21" cy="20.1796875" rx="20.613871" ry="19.9696875"></ellipse>
                            <polygon id="Shape" fill="#FFFFFF" points="34.4129032 29.990625 32.8141935 25.9284375 29.2374194 27.2540625 24.1229032 14.28 22.7003226 10.6903125 22.0364516 8.9971875 20.9864516 6.3459375 16.1835484 6.3459375 14.2122581 6.3459375 14.2122581 10.6903125 17.8974194 10.6903125 19.1777419 13.9321875 8.51516129 32.3203125 13.6635484 32.3203125 21.2641935 19.2084375 26.6496774 32.865 27.93 32.3925 30.8429032 31.31625 30.8429032 31.31625"></polygon>
                        </g>
                    </g>
                    <g id="Group">
                        <g fill-rule="nonzero">
                            <ellipse id="Oval" fill="#9D5025" cx="21" cy="21.8203125" rx="20.613871" ry="19.9696875"></ellipse>
                            <polygon id="Rectangle-path" fill="#9D5025" points="0.386129032 20.1796875 41.613871 20.1796875 41.613871 21.8203125 0.386129032 21.8203125"></polygon>
                            <ellipse id="Oval" fill="#F58536" cx="21" cy="20.1796875" rx="20.613871" ry="19.9696875"></ellipse>
                            <polygon id="Shape" fill="#FFFFFF" points="34.4129032 29.990625 32.8141935 25.9284375 29.2374194 27.2540625 24.1229032 14.28 22.7003226 10.6903125 22.0364516 8.9971875 20.9864516 6.3459375 16.1835484 6.3459375 14.2122581 6.3459375 14.2122581 10.6903125 17.8974194 10.6903125 19.1777419 13.9321875 8.51516129 32.3203125 13.6635484 32.3203125 21.2641935 19.2084375 26.6496774 32.865 27.93 32.3925 30.8429032 31.31625 30.8429032 31.31625"></polygon>
                        </g>
                    </g>
                </g>
                <g id="Compute/AWSLambda/LambdaFunction">
                    <g id="Group">
                        <g fill-rule="nonzero">
                            <ellipse id="Oval" fill="#9D5025" cx="21" cy="21.8203125" rx="20.613871" ry="19.9696875"></ellipse>
                            <polygon id="Rectangle-path" fill="#9D5025" points="0.386129032 20.1796875 41.613871 20.1796875 41.613871 21.8203125 0.386129032 21.8203125"></polygon>
                            <ellipse id="Oval" fill="#F58536" cx="21" cy="20.1796875" rx="20.613871" ry="19.9696875"></ellipse>
                            <polygon id="Shape" fill="#FFFFFF" points="34.4129032 29.990625 32.8141935 25.9284375 29.2374194 27.2540625 24.1229032 14.28 22.7003226 10.6903125 22.0364516 8.9971875 20.9864516 6.3459375 16.1835484 6.3459375 14.2122581 6.3459375 14.2122581 10.6903125 17.8974194 10.6903125 19.1777419 13.9321875 8.51516129 32.3203125 13.6635484 32.3203125 21.2641935 19.2084375 26.6496774 32.865 27.93 32.3925 30.8429032 31.31625 30.8429032 31.31625"></polygon>
                        </g>
                    </g>
                    <g id="Group">
                        <g fill-rule="nonzero">
                            <ellipse id="Oval" fill="#9D5025" cx="21" cy="21.8203125" rx="20.613871" ry="19.9696875"></ellipse>
                            <polygon id="Rectangle-path" fill="#9D5025" points="0.386129032 20.1796875 41.613871 20.1796875 41.613871 21.8203125 0.386129032 21.8203125"></polygon>
                            <ellipse id="Oval" fill="#F58536" cx="21" cy="20.1796875" rx="20.613871" ry="19.9696875"></ellipse>
                            <polygon id="Shape" fill="#FFFFFF" points="34.4129032 29.990625 32.8141935 25.9284375 29.2374194 27.2540625 24.1229032 14.28 22.7003226 10.6903125 22.0364516 8.9971875 20.9864516 6.3459375 16.1835484 6.3459375 14.2122581 6.3459375 14.2122581 10.6903125 17.8974194 10.6903125 19.1777419 13.9321875 8.51516129 32.3203125 13.6635484 32.3203125 21.2641935 19.2084375 26.6496774 32.865 27.93 32.3925 30.8429032 31.31625 30.8429032 31.31625"></polygon>
                        </g>
                    </g>
                </g>
            </g>
            <text id="EC2" font-family="NotoSansCJKjp-Bold, Noto Sans CJK JP" font-size="17" font-weight="bold" letter-spacing="0.7083332" fill="#FF9900">
                <tspan x="62.6190002" y="20">EC2</tspan>
            </text>
        </g>
        <path id="Line" d="M130,205 L67,205 L66,205 L66,203 L67,203 L130,203 L130,197 L144,204 L130,211 L130,205 Z" fill="#FF9900" fill-rule="nonzero"></path>
        <path id="Line" d="M80.7567948,223 L144,223 L145,223 L145,225 L144,225 L80.7567948,225 L80.7567948,231 L66.7567948,224 L80.7567948,217 L80.7567948,223 Z" fill="#FF9900" fill-rule="nonzero"></path>
        <path id="Line" d="M256,205 L210,205 L209,205 L209,203 L210,203 L256,203 L256,197 L270,204 L256,211 L256,205 Z" fill="#FF9900" fill-rule="nonzero"></path>
        <path id="Line" d="M400.556289,132 L164,132 L163,132 L163,130 L164,130 L400.556289,130 L400.556289,124 L414.556289,131 L400.556289,138 L400.556289,132 Z" fill="#FF9900" fill-rule="nonzero"></path>
        <path id="Line" d="M182,168.5 L182,151 L182,150 L184,150 L184,151 L184,168.5 L190,168.5 L183,182.5 L176,168.5 L182,168.5 Z" fill="#FF9900" fill-rule="nonzero"></path>
        <path d="M164,131 L164,182.5" id="Line-2" stroke="#FF9900" stroke-width="2" stroke-linecap="square"></path>
        <path d="M184,151 L411.359947,151" id="Line-2" stroke="#FF9900" stroke-width="2" stroke-linecap="square"></path>
        <path id="Line" d="M223.58215,223 L269,223 L270,223 L270,225 L269,225 L223.58215,225 L223.58215,231 L209.58215,224 L223.58215,217 L223.58215,223 Z" fill="#FF9900" fill-rule="nonzero"></path>
        <path id="Line" d="M636,127 L601.237888,127 L600.237888,127 L600.237888,125 L601.237888,125 L636,125 L636,119 L650,126 L636,133 L636,127 Z" fill="#FF9900" fill-rule="nonzero"></path>
        <path id="Line" d="M614.963887,145 L650,145 L651,145 L651,147 L650,147 L614.963887,147 L614.963887,153 L600.963887,146 L614.963887,139 L614.963887,145 Z" fill="#FF9900" fill-rule="nonzero"></path>
        <g id="Group-7" transform="translate(392.000000, 241.000000)" fill="#FF9900" fill-rule="nonzero">
            <path id="Line" d="M44.1553894,24.569603 L21.2928932,1.70710678 L20.5857864,1 L22,-0.414213562 L22.7071068,0.292893219 L45.569603,23.1553894 L49.8122437,18.9127487 L54.7619911,33.7619911 L39.9127487,28.8122437 L44.1553894,24.569603 Z"></path>
            <path id="Line" d="M11.1014291,27.1923882 L31.8057775,47.8967366 L32.5128843,48.6038433 L31.0986707,50.0180569 L30.3915639,49.3109501 L9.68721551,28.6066017 L5.44457482,32.8492424 L0.494827354,18 L15.3440698,22.9497475 L11.1014291,27.1923882 Z"></path>
        </g>
        <g id="Group-7" transform="translate(592.000000, 267.000000)" fill="#FF9900" fill-rule="nonzero">
            <path id="Line" d="M52.6422826,25.3630526 L17.9433713,46.9579996 L17.0943642,47.4863811 L16.0376012,45.788367 L16.8866083,45.2599855 L51.5855196,23.6650385 L48.4152306,18.5709961 L64,17.1167046 L55.8125715,30.457095 L52.6422826,25.3630526 Z"></path>
            <path id="Line" d="M11.9755871,20.6698615 L44.4478723,-0.833759539 L45.2816318,-1.38588727 L46.3858873,0.281631809 L45.5521277,0.833759539 L13.0798425,22.3373805 L16.3926089,27.3399378 L0.855081237,29.2334092 L8.66282068,15.6673042 L11.9755871,20.6698615 Z"></path>
        </g>
        <g id="Database/AmazonRDS/AmazonRDS" transform="translate(665.000000, 111.000000)">
            <g id="Group">
                <g fill-rule="nonzero">
                    <polygon id="Shape" fill="#2E73B8" points="54 11.9325 47.25 5.34 37.7325 27 47.25 48.645 54 42.0675"></polygon>
                    <polygon id="Shape" fill="#5294CF" points="35.4375 54 47.25 48.645 47.25 5.34 35.4375 0 21.414375 27"></polygon>
                    <polygon id="Shape" fill="#2E73B8" points="18.5625 54 35.4375 54 35.4375 0 18.5625 0 8.4375 27"></polygon>
                    <polygon id="Shape" fill="#205B99" points="6.75 48.6375 18.5625 54 18.5625 0 6.75 5.34 1.5271875 27"></polygon>
                    <polygon id="Shape" fill="#19486F" points="0 42.0675 6.75 48.6375 6.75 5.34 0 11.9325"></polygon>
                </g>
            </g>
            <g id="Group">
                <g fill-rule="nonzero">
                    <polygon id="Shape" fill="#2E73B8" points="54 11.9325 47.25 5.34 37.7325 27 47.25 48.645 54 42.0675"></polygon>
                    <polygon id="Shape" fill="#5294CF" points="35.4375 54 47.25 48.645 47.25 5.34 35.4375 0 21.414375 27"></polygon>
                    <polygon id="Shape" fill="#2E73B8" points="18.5625 54 35.4375 54 35.4375 0 18.5625 0 8.4375 27"></polygon>
                    <polygon id="Shape" fill="#205B99" points="6.75 48.6375 18.5625 54 18.5625 0 6.75 5.34 1.5271875 27"></polygon>
                    <polygon id="Shape" fill="#19486F" points="0 42.0675 6.75 48.6375 6.75 5.34 0 11.9325"></polygon>
                </g>
            </g>
        </g>
        <g id="Compute/AmazonEC2/DBoninstance" transform="translate(429.000000, 114.000000)">
            <g id="Group">
                <g fill-rule="nonzero">
                    <path d="M7.83851852,2.27586207 L36.1614815,2.27586207 C40.2655708,2.27586207 43.5925926,5.37343406 43.5925926,9.19448276 L43.5925926,20.8089655 C42.1259259,20.1034483 38.9155556,19.3524138 34.1651852,19.3524138 C32.3456724,19.3452494 30.5284011,19.4720816 28.7303704,19.7317241 C25.5281481,20.2248276 23.8414815,21.0744828 23.8414815,21.597931 L23.8414815,41.322069 C23.8414815,41.6482759 24.3222222,42.0806897 25.2348148,42.5055172 L7.83851852,42.5055172 C3.73442918,42.5055172 0.407407407,39.4079452 0.407407407,35.5868966 L0.407407407,9.20206897 C0.405244835,7.36582262 1.18720843,5.60409484 2.58104656,4.30496055 C3.97488468,3.00582626 5.86625274,2.27586097 7.83851852,2.27586207 L7.83851852,2.27586207 Z" id="Shape" fill="#9D5025"></path>
                    <path d="M7.83851852,0.614482759 L36.1614815,0.614482759 C40.2655708,0.614482759 43.5925926,3.71205475 43.5925926,7.53310345 L43.5925926,19.14 C42.1259259,18.4344828 38.9155556,17.6834483 34.1651852,17.6834483 C32.3456724,17.6762838 30.5284011,17.8031161 28.7303704,18.0627586 C25.5281481,18.5558621 23.8414815,19.4055172 23.8414815,19.9289655 L23.8414815,39.6531034 C23.8414815,39.9793103 24.3222222,40.4117241 25.2348148,40.8365517 L7.83851852,40.8365517 C3.73442918,40.8365517 0.407407407,37.7389797 0.407407407,33.917931 L0.407407407,7.53310345 C0.407407407,3.71205475 3.73442918,0.614482759 7.83851852,0.614482759 Z" id="Shape" fill="#F58536"></path>
                    <path d="M34.9148148,22.9786207 C33.3871802,22.9725751 31.8614281,23.0791147 30.3518519,23.2972414 C28.9834889,23.3801841 27.6095516,23.267616 26.2777778,22.9634483 L26.2777778,24.86 C26.2777778,25.3 27.7037037,26.0131034 30.3518519,26.4151724 C31.8607745,26.6385517 33.386985,26.7451233 34.9148148,26.7337931 C40.537037,26.7337931 43.5925926,25.4972414 43.5925926,24.86 L43.5925926,22.9634483 L34.9148148,22.9786207 Z" id="Shape" fill="#9D5025"></path>
                    <path d="M26.0740741,28.5468966 L26.0740741,41.5193103 C26.0740741,42.1793103 28.5185185,43.3931034 34.32,43.3931034 C36.733502,43.4477474 39.1435796,43.1924726 41.4822222,42.6344828 C42.6392593,42.2855172 43.4622222,41.8758621 43.5518519,41.5951724 L43.5518519,28.6986207 C41.857037,29.6772414 38.3614815,30.2158621 34.8903704,30.2158621 L34.6622222,30.2158621 L33.5948148,30.2158621 L33.4481481,30.2158621 L32.5925926,30.0793103 L32.1525926,30.0793103 L31.4681481,30.0262069 L31.1014815,29.9731034 L30.3681481,29.882069 C28.856608,29.7034465 27.3975599,29.2497793 26.0740741,28.5468966 L26.0740741,28.5468966 Z" id="Shape" fill="#9D5025"></path>
                    <path d="M34.9148148,21.0896552 C33.3871802,21.0836096 31.8614281,21.1901492 30.3518519,21.4082759 C27.662963,21.8255172 26.2777778,22.5386207 26.2777778,22.9710345 C26.2777778,23.4034483 27.7037037,24.1241379 30.3518519,24.5262069 C31.8607745,24.7495862 33.386985,24.8561578 34.9148148,24.8448276 C40.537037,24.8448276 43.5925926,23.6082759 43.5925926,22.9710345 C43.5925926,22.3337931 40.537037,21.0896552 34.9148148,21.0896552 Z" id="Shape" fill="#F58536"></path>
                    <path d="M26.0740741,26.6503448 L26.0740741,39.6227586 C26.0740741,40.2827586 28.5185185,41.4965517 34.32,41.4965517 C36.733502,41.5511957 39.1435796,41.2959209 41.4822222,40.737931 C42.6392593,40.3889655 43.4622222,39.9793103 43.5518519,39.6986207 L43.5518519,26.802069 C41.857037,27.7806897 38.3614815,28.3193103 34.8903704,28.3193103 L34.6622222,28.3193103 L33.5948148,28.3193103 L33.4481481,28.3193103 L32.5925926,28.1827586 L32.1525926,28.1827586 L31.4681481,28.0689655 L31.1014815,28.0689655 L30.3681481,27.977931 C28.8571804,27.8016559 27.3981644,27.3505763 26.0740741,26.6503448 L26.0740741,26.6503448 Z" id="Shape" fill="#F58536"></path>
                    <path d="M7.83851852,40.8213793 L25.2185185,40.8213793 L25.2185185,42.4827586 L7.83851852,42.4827586 C3.73442918,42.4827586 0.407407407,39.3851866 0.407407407,35.5641379 L0.407407407,33.8951724 C0.405244835,35.7314188 1.18720843,37.4931465 2.58104656,38.7922808 C3.97488468,40.0914151 5.86625274,40.8213804 7.83851852,40.8213793 L7.83851852,40.8213793 Z" id="Shape" fill="#9D5025"></path>
                </g>
            </g>
            <g id="Group">
                <g fill-rule="nonzero">
                    <path d="M7.83851852,2.27586207 L36.1614815,2.27586207 C40.2655708,2.27586207 43.5925926,5.37343406 43.5925926,9.19448276 L43.5925926,20.8089655 C42.1259259,20.1034483 38.9155556,19.3524138 34.1651852,19.3524138 C32.3456724,19.3452494 30.5284011,19.4720816 28.7303704,19.7317241 C25.5281481,20.2248276 23.8414815,21.0744828 23.8414815,21.597931 L23.8414815,41.322069 C23.8414815,41.6482759 24.3222222,42.0806897 25.2348148,42.5055172 L7.83851852,42.5055172 C3.73442918,42.5055172 0.407407407,39.4079452 0.407407407,35.5868966 L0.407407407,9.20206897 C0.405244835,7.36582262 1.18720843,5.60409484 2.58104656,4.30496055 C3.97488468,3.00582626 5.86625274,2.27586097 7.83851852,2.27586207 L7.83851852,2.27586207 Z" id="Shape" fill="#9D5025"></path>
                    <path d="M7.83851852,0.614482759 L36.1614815,0.614482759 C40.2655708,0.614482759 43.5925926,3.71205475 43.5925926,7.53310345 L43.5925926,19.14 C42.1259259,18.4344828 38.9155556,17.6834483 34.1651852,17.6834483 C32.3456724,17.6762838 30.5284011,17.8031161 28.7303704,18.0627586 C25.5281481,18.5558621 23.8414815,19.4055172 23.8414815,19.9289655 L23.8414815,39.6531034 C23.8414815,39.9793103 24.3222222,40.4117241 25.2348148,40.8365517 L7.83851852,40.8365517 C3.73442918,40.8365517 0.407407407,37.7389797 0.407407407,33.917931 L0.407407407,7.53310345 C0.407407407,3.71205475 3.73442918,0.614482759 7.83851852,0.614482759 Z" id="Shape" fill="#F58536"></path>
                    <path d="M34.9148148,22.9786207 C33.3871802,22.9725751 31.8614281,23.0791147 30.3518519,23.2972414 C28.9834889,23.3801841 27.6095516,23.267616 26.2777778,22.9634483 L26.2777778,24.86 C26.2777778,25.3 27.7037037,26.0131034 30.3518519,26.4151724 C31.8607745,26.6385517 33.386985,26.7451233 34.9148148,26.7337931 C40.537037,26.7337931 43.5925926,25.4972414 43.5925926,24.86 L43.5925926,22.9634483 L34.9148148,22.9786207 Z" id="Shape" fill="#9D5025"></path>
                    <path d="M26.0740741,28.5468966 L26.0740741,41.5193103 C26.0740741,42.1793103 28.5185185,43.3931034 34.32,43.3931034 C36.733502,43.4477474 39.1435796,43.1924726 41.4822222,42.6344828 C42.6392593,42.2855172 43.4622222,41.8758621 43.5518519,41.5951724 L43.5518519,28.6986207 C41.857037,29.6772414 38.3614815,30.2158621 34.8903704,30.2158621 L34.6622222,30.2158621 L33.5948148,30.2158621 L33.4481481,30.2158621 L32.5925926,30.0793103 L32.1525926,30.0793103 L31.4681481,30.0262069 L31.1014815,29.9731034 L30.3681481,29.882069 C28.856608,29.7034465 27.3975599,29.2497793 26.0740741,28.5468966 L26.0740741,28.5468966 Z" id="Shape" fill="#9D5025"></path>
                    <path d="M34.9148148,21.0896552 C33.3871802,21.0836096 31.8614281,21.1901492 30.3518519,21.4082759 C27.662963,21.8255172 26.2777778,22.5386207 26.2777778,22.9710345 C26.2777778,23.4034483 27.7037037,24.1241379 30.3518519,24.5262069 C31.8607745,24.7495862 33.386985,24.8561578 34.9148148,24.8448276 C40.537037,24.8448276 43.5925926,23.6082759 43.5925926,22.9710345 C43.5925926,22.3337931 40.537037,21.0896552 34.9148148,21.0896552 Z" id="Shape" fill="#F58536"></path>
                    <path d="M26.0740741,26.6503448 L26.0740741,39.6227586 C26.0740741,40.2827586 28.5185185,41.4965517 34.32,41.4965517 C36.733502,41.5511957 39.1435796,41.2959209 41.4822222,40.737931 C42.6392593,40.3889655 43.4622222,39.9793103 43.5518519,39.6986207 L43.5518519,26.802069 C41.857037,27.7806897 38.3614815,28.3193103 34.8903704,28.3193103 L34.6622222,28.3193103 L33.5948148,28.3193103 L33.4481481,28.3193103 L32.5925926,28.1827586 L32.1525926,28.1827586 L31.4681481,28.0689655 L31.1014815,28.0689655 L30.3681481,27.977931 C28.8571804,27.8016559 27.3981644,27.3505763 26.0740741,26.6503448 L26.0740741,26.6503448 Z" id="Shape" fill="#F58536"></path>
                    <path d="M7.83851852,40.8213793 L25.2185185,40.8213793 L25.2185185,42.4827586 L7.83851852,42.4827586 C3.73442918,42.4827586 0.407407407,39.3851866 0.407407407,35.5641379 L0.407407407,33.8951724 C0.405244835,35.7314188 1.18720843,37.4931465 2.58104656,38.7922808 C3.97488468,40.0914151 5.86625274,40.8213804 7.83851852,40.8213793 L7.83851852,40.8213793 Z" id="Shape" fill="#9D5025"></path>
                </g>
            </g>
        </g>
        <g id="Compute/AmazonEC2/DBoninstance" transform="translate(487.000000, 114.000000)">
            <g id="Group">
                <g fill-rule="nonzero">
                    <path d="M7.83851852,2.27586207 L36.1614815,2.27586207 C40.2655708,2.27586207 43.5925926,5.37343406 43.5925926,9.19448276 L43.5925926,20.8089655 C42.1259259,20.1034483 38.9155556,19.3524138 34.1651852,19.3524138 C32.3456724,19.3452494 30.5284011,19.4720816 28.7303704,19.7317241 C25.5281481,20.2248276 23.8414815,21.0744828 23.8414815,21.597931 L23.8414815,41.322069 C23.8414815,41.6482759 24.3222222,42.0806897 25.2348148,42.5055172 L7.83851852,42.5055172 C3.73442918,42.5055172 0.407407407,39.4079452 0.407407407,35.5868966 L0.407407407,9.20206897 C0.405244835,7.36582262 1.18720843,5.60409484 2.58104656,4.30496055 C3.97488468,3.00582626 5.86625274,2.27586097 7.83851852,2.27586207 L7.83851852,2.27586207 Z" id="Shape" fill="#9D5025"></path>
                    <path d="M7.83851852,0.614482759 L36.1614815,0.614482759 C40.2655708,0.614482759 43.5925926,3.71205475 43.5925926,7.53310345 L43.5925926,19.14 C42.1259259,18.4344828 38.9155556,17.6834483 34.1651852,17.6834483 C32.3456724,17.6762838 30.5284011,17.8031161 28.7303704,18.0627586 C25.5281481,18.5558621 23.8414815,19.4055172 23.8414815,19.9289655 L23.8414815,39.6531034 C23.8414815,39.9793103 24.3222222,40.4117241 25.2348148,40.8365517 L7.83851852,40.8365517 C3.73442918,40.8365517 0.407407407,37.7389797 0.407407407,33.917931 L0.407407407,7.53310345 C0.407407407,3.71205475 3.73442918,0.614482759 7.83851852,0.614482759 Z" id="Shape" fill="#F58536"></path>
                    <path d="M34.9148148,22.9786207 C33.3871802,22.9725751 31.8614281,23.0791147 30.3518519,23.2972414 C28.9834889,23.3801841 27.6095516,23.267616 26.2777778,22.9634483 L26.2777778,24.86 C26.2777778,25.3 27.7037037,26.0131034 30.3518519,26.4151724 C31.8607745,26.6385517 33.386985,26.7451233 34.9148148,26.7337931 C40.537037,26.7337931 43.5925926,25.4972414 43.5925926,24.86 L43.5925926,22.9634483 L34.9148148,22.9786207 Z" id="Shape" fill="#9D5025"></path>
                    <path d="M26.0740741,28.5468966 L26.0740741,41.5193103 C26.0740741,42.1793103 28.5185185,43.3931034 34.32,43.3931034 C36.733502,43.4477474 39.1435796,43.1924726 41.4822222,42.6344828 C42.6392593,42.2855172 43.4622222,41.8758621 43.5518519,41.5951724 L43.5518519,28.6986207 C41.857037,29.6772414 38.3614815,30.2158621 34.8903704,30.2158621 L34.6622222,30.2158621 L33.5948148,30.2158621 L33.4481481,30.2158621 L32.5925926,30.0793103 L32.1525926,30.0793103 L31.4681481,30.0262069 L31.1014815,29.9731034 L30.3681481,29.882069 C28.856608,29.7034465 27.3975599,29.2497793 26.0740741,28.5468966 L26.0740741,28.5468966 Z" id="Shape" fill="#9D5025"></path>
                    <path d="M34.9148148,21.0896552 C33.3871802,21.0836096 31.8614281,21.1901492 30.3518519,21.4082759 C27.662963,21.8255172 26.2777778,22.5386207 26.2777778,22.9710345 C26.2777778,23.4034483 27.7037037,24.1241379 30.3518519,24.5262069 C31.8607745,24.7495862 33.386985,24.8561578 34.9148148,24.8448276 C40.537037,24.8448276 43.5925926,23.6082759 43.5925926,22.9710345 C43.5925926,22.3337931 40.537037,21.0896552 34.9148148,21.0896552 Z" id="Shape" fill="#F58536"></path>
                    <path d="M26.0740741,26.6503448 L26.0740741,39.6227586 C26.0740741,40.2827586 28.5185185,41.4965517 34.32,41.4965517 C36.733502,41.5511957 39.1435796,41.2959209 41.4822222,40.737931 C42.6392593,40.3889655 43.4622222,39.9793103 43.5518519,39.6986207 L43.5518519,26.802069 C41.857037,27.7806897 38.3614815,28.3193103 34.8903704,28.3193103 L34.6622222,28.3193103 L33.5948148,28.3193103 L33.4481481,28.3193103 L32.5925926,28.1827586 L32.1525926,28.1827586 L31.4681481,28.0689655 L31.1014815,28.0689655 L30.3681481,27.977931 C28.8571804,27.8016559 27.3981644,27.3505763 26.0740741,26.6503448 L26.0740741,26.6503448 Z" id="Shape" fill="#F58536"></path>
                    <path d="M7.83851852,40.8213793 L25.2185185,40.8213793 L25.2185185,42.4827586 L7.83851852,42.4827586 C3.73442918,42.4827586 0.407407407,39.3851866 0.407407407,35.5641379 L0.407407407,33.8951724 C0.405244835,35.7314188 1.18720843,37.4931465 2.58104656,38.7922808 C3.97488468,40.0914151 5.86625274,40.8213804 7.83851852,40.8213793 L7.83851852,40.8213793 Z" id="Shape" fill="#9D5025"></path>
                </g>
            </g>
            <g id="Group">
                <g fill-rule="nonzero">
                    <path d="M7.83851852,2.27586207 L36.1614815,2.27586207 C40.2655708,2.27586207 43.5925926,5.37343406 43.5925926,9.19448276 L43.5925926,20.8089655 C42.1259259,20.1034483 38.9155556,19.3524138 34.1651852,19.3524138 C32.3456724,19.3452494 30.5284011,19.4720816 28.7303704,19.7317241 C25.5281481,20.2248276 23.8414815,21.0744828 23.8414815,21.597931 L23.8414815,41.322069 C23.8414815,41.6482759 24.3222222,42.0806897 25.2348148,42.5055172 L7.83851852,42.5055172 C3.73442918,42.5055172 0.407407407,39.4079452 0.407407407,35.5868966 L0.407407407,9.20206897 C0.405244835,7.36582262 1.18720843,5.60409484 2.58104656,4.30496055 C3.97488468,3.00582626 5.86625274,2.27586097 7.83851852,2.27586207 L7.83851852,2.27586207 Z" id="Shape" fill="#9D5025"></path>
                    <path d="M7.83851852,0.614482759 L36.1614815,0.614482759 C40.2655708,0.614482759 43.5925926,3.71205475 43.5925926,7.53310345 L43.5925926,19.14 C42.1259259,18.4344828 38.9155556,17.6834483 34.1651852,17.6834483 C32.3456724,17.6762838 30.5284011,17.8031161 28.7303704,18.0627586 C25.5281481,18.5558621 23.8414815,19.4055172 23.8414815,19.9289655 L23.8414815,39.6531034 C23.8414815,39.9793103 24.3222222,40.4117241 25.2348148,40.8365517 L7.83851852,40.8365517 C3.73442918,40.8365517 0.407407407,37.7389797 0.407407407,33.917931 L0.407407407,7.53310345 C0.407407407,3.71205475 3.73442918,0.614482759 7.83851852,0.614482759 Z" id="Shape" fill="#F58536"></path>
                    <path d="M34.9148148,22.9786207 C33.3871802,22.9725751 31.8614281,23.0791147 30.3518519,23.2972414 C28.9834889,23.3801841 27.6095516,23.267616 26.2777778,22.9634483 L26.2777778,24.86 C26.2777778,25.3 27.7037037,26.0131034 30.3518519,26.4151724 C31.8607745,26.6385517 33.386985,26.7451233 34.9148148,26.7337931 C40.537037,26.7337931 43.5925926,25.4972414 43.5925926,24.86 L43.5925926,22.9634483 L34.9148148,22.9786207 Z" id="Shape" fill="#9D5025"></path>
                    <path d="M26.0740741,28.5468966 L26.0740741,41.5193103 C26.0740741,42.1793103 28.5185185,43.3931034 34.32,43.3931034 C36.733502,43.4477474 39.1435796,43.1924726 41.4822222,42.6344828 C42.6392593,42.2855172 43.4622222,41.8758621 43.5518519,41.5951724 L43.5518519,28.6986207 C41.857037,29.6772414 38.3614815,30.2158621 34.8903704,30.2158621 L34.6622222,30.2158621 L33.5948148,30.2158621 L33.4481481,30.2158621 L32.5925926,30.0793103 L32.1525926,30.0793103 L31.4681481,30.0262069 L31.1014815,29.9731034 L30.3681481,29.882069 C28.856608,29.7034465 27.3975599,29.2497793 26.0740741,28.5468966 L26.0740741,28.5468966 Z" id="Shape" fill="#9D5025"></path>
                    <path d="M34.9148148,21.0896552 C33.3871802,21.0836096 31.8614281,21.1901492 30.3518519,21.4082759 C27.662963,21.8255172 26.2777778,22.5386207 26.2777778,22.9710345 C26.2777778,23.4034483 27.7037037,24.1241379 30.3518519,24.5262069 C31.8607745,24.7495862 33.386985,24.8561578 34.9148148,24.8448276 C40.537037,24.8448276 43.5925926,23.6082759 43.5925926,22.9710345 C43.5925926,22.3337931 40.537037,21.0896552 34.9148148,21.0896552 Z" id="Shape" fill="#F58536"></path>
                    <path d="M26.0740741,26.6503448 L26.0740741,39.6227586 C26.0740741,40.2827586 28.5185185,41.4965517 34.32,41.4965517 C36.733502,41.5511957 39.1435796,41.2959209 41.4822222,40.737931 C42.6392593,40.3889655 43.4622222,39.9793103 43.5518519,39.6986207 L43.5518519,26.802069 C41.857037,27.7806897 38.3614815,28.3193103 34.8903704,28.3193103 L34.6622222,28.3193103 L33.5948148,28.3193103 L33.4481481,28.3193103 L32.5925926,28.1827586 L32.1525926,28.1827586 L31.4681481,28.0689655 L31.1014815,28.0689655 L30.3681481,27.977931 C28.8571804,27.8016559 27.3981644,27.3505763 26.0740741,26.6503448 L26.0740741,26.6503448 Z" id="Shape" fill="#F58536"></path>
                    <path d="M7.83851852,40.8213793 L25.2185185,40.8213793 L25.2185185,42.4827586 L7.83851852,42.4827586 C3.73442918,42.4827586 0.407407407,39.3851866 0.407407407,35.5641379 L0.407407407,33.8951724 C0.405244835,35.7314188 1.18720843,37.4931465 2.58104656,38.7922808 C3.97488468,40.0914151 5.86625274,40.8213804 7.83851852,40.8213793 L7.83851852,40.8213793 Z" id="Shape" fill="#9D5025"></path>
                </g>
            </g>
        </g>
        <g id="Compute/AmazonEC2/DBoninstance" transform="translate(544.000000, 114.000000)">
            <g id="Group">
                <g fill-rule="nonzero">
                    <path d="M7.83851852,2.27586207 L36.1614815,2.27586207 C40.2655708,2.27586207 43.5925926,5.37343406 43.5925926,9.19448276 L43.5925926,20.8089655 C42.1259259,20.1034483 38.9155556,19.3524138 34.1651852,19.3524138 C32.3456724,19.3452494 30.5284011,19.4720816 28.7303704,19.7317241 C25.5281481,20.2248276 23.8414815,21.0744828 23.8414815,21.597931 L23.8414815,41.322069 C23.8414815,41.6482759 24.3222222,42.0806897 25.2348148,42.5055172 L7.83851852,42.5055172 C3.73442918,42.5055172 0.407407407,39.4079452 0.407407407,35.5868966 L0.407407407,9.20206897 C0.405244835,7.36582262 1.18720843,5.60409484 2.58104656,4.30496055 C3.97488468,3.00582626 5.86625274,2.27586097 7.83851852,2.27586207 L7.83851852,2.27586207 Z" id="Shape" fill="#9D5025"></path>
                    <path d="M7.83851852,0.614482759 L36.1614815,0.614482759 C40.2655708,0.614482759 43.5925926,3.71205475 43.5925926,7.53310345 L43.5925926,19.14 C42.1259259,18.4344828 38.9155556,17.6834483 34.1651852,17.6834483 C32.3456724,17.6762838 30.5284011,17.8031161 28.7303704,18.0627586 C25.5281481,18.5558621 23.8414815,19.4055172 23.8414815,19.9289655 L23.8414815,39.6531034 C23.8414815,39.9793103 24.3222222,40.4117241 25.2348148,40.8365517 L7.83851852,40.8365517 C3.73442918,40.8365517 0.407407407,37.7389797 0.407407407,33.917931 L0.407407407,7.53310345 C0.407407407,3.71205475 3.73442918,0.614482759 7.83851852,0.614482759 Z" id="Shape" fill="#F58536"></path>
                    <path d="M34.9148148,22.9786207 C33.3871802,22.9725751 31.8614281,23.0791147 30.3518519,23.2972414 C28.9834889,23.3801841 27.6095516,23.267616 26.2777778,22.9634483 L26.2777778,24.86 C26.2777778,25.3 27.7037037,26.0131034 30.3518519,26.4151724 C31.8607745,26.6385517 33.386985,26.7451233 34.9148148,26.7337931 C40.537037,26.7337931 43.5925926,25.4972414 43.5925926,24.86 L43.5925926,22.9634483 L34.9148148,22.9786207 Z" id="Shape" fill="#9D5025"></path>
                    <path d="M26.0740741,28.5468966 L26.0740741,41.5193103 C26.0740741,42.1793103 28.5185185,43.3931034 34.32,43.3931034 C36.733502,43.4477474 39.1435796,43.1924726 41.4822222,42.6344828 C42.6392593,42.2855172 43.4622222,41.8758621 43.5518519,41.5951724 L43.5518519,28.6986207 C41.857037,29.6772414 38.3614815,30.2158621 34.8903704,30.2158621 L34.6622222,30.2158621 L33.5948148,30.2158621 L33.4481481,30.2158621 L32.5925926,30.0793103 L32.1525926,30.0793103 L31.4681481,30.0262069 L31.1014815,29.9731034 L30.3681481,29.882069 C28.856608,29.7034465 27.3975599,29.2497793 26.0740741,28.5468966 L26.0740741,28.5468966 Z" id="Shape" fill="#9D5025"></path>
                    <path d="M34.9148148,21.0896552 C33.3871802,21.0836096 31.8614281,21.1901492 30.3518519,21.4082759 C27.662963,21.8255172 26.2777778,22.5386207 26.2777778,22.9710345 C26.2777778,23.4034483 27.7037037,24.1241379 30.3518519,24.5262069 C31.8607745,24.7495862 33.386985,24.8561578 34.9148148,24.8448276 C40.537037,24.8448276 43.5925926,23.6082759 43.5925926,22.9710345 C43.5925926,22.3337931 40.537037,21.0896552 34.9148148,21.0896552 Z" id="Shape" fill="#F58536"></path>
                    <path d="M26.0740741,26.6503448 L26.0740741,39.6227586 C26.0740741,40.2827586 28.5185185,41.4965517 34.32,41.4965517 C36.733502,41.5511957 39.1435796,41.2959209 41.4822222,40.737931 C42.6392593,40.3889655 43.4622222,39.9793103 43.5518519,39.6986207 L43.5518519,26.802069 C41.857037,27.7806897 38.3614815,28.3193103 34.8903704,28.3193103 L34.6622222,28.3193103 L33.5948148,28.3193103 L33.4481481,28.3193103 L32.5925926,28.1827586 L32.1525926,28.1827586 L31.4681481,28.0689655 L31.1014815,28.0689655 L30.3681481,27.977931 C28.8571804,27.8016559 27.3981644,27.3505763 26.0740741,26.6503448 L26.0740741,26.6503448 Z" id="Shape" fill="#F58536"></path>
                    <path d="M7.83851852,40.8213793 L25.2185185,40.8213793 L25.2185185,42.4827586 L7.83851852,42.4827586 C3.73442918,42.4827586 0.407407407,39.3851866 0.407407407,35.5641379 L0.407407407,33.8951724 C0.405244835,35.7314188 1.18720843,37.4931465 2.58104656,38.7922808 C3.97488468,40.0914151 5.86625274,40.8213804 7.83851852,40.8213793 L7.83851852,40.8213793 Z" id="Shape" fill="#9D5025"></path>
                </g>
            </g>
            <g id="Group">
                <g fill-rule="nonzero">
                    <path d="M7.83851852,2.27586207 L36.1614815,2.27586207 C40.2655708,2.27586207 43.5925926,5.37343406 43.5925926,9.19448276 L43.5925926,20.8089655 C42.1259259,20.1034483 38.9155556,19.3524138 34.1651852,19.3524138 C32.3456724,19.3452494 30.5284011,19.4720816 28.7303704,19.7317241 C25.5281481,20.2248276 23.8414815,21.0744828 23.8414815,21.597931 L23.8414815,41.322069 C23.8414815,41.6482759 24.3222222,42.0806897 25.2348148,42.5055172 L7.83851852,42.5055172 C3.73442918,42.5055172 0.407407407,39.4079452 0.407407407,35.5868966 L0.407407407,9.20206897 C0.405244835,7.36582262 1.18720843,5.60409484 2.58104656,4.30496055 C3.97488468,3.00582626 5.86625274,2.27586097 7.83851852,2.27586207 L7.83851852,2.27586207 Z" id="Shape" fill="#9D5025"></path>
                    <path d="M7.83851852,0.614482759 L36.1614815,0.614482759 C40.2655708,0.614482759 43.5925926,3.71205475 43.5925926,7.53310345 L43.5925926,19.14 C42.1259259,18.4344828 38.9155556,17.6834483 34.1651852,17.6834483 C32.3456724,17.6762838 30.5284011,17.8031161 28.7303704,18.0627586 C25.5281481,18.5558621 23.8414815,19.4055172 23.8414815,19.9289655 L23.8414815,39.6531034 C23.8414815,39.9793103 24.3222222,40.4117241 25.2348148,40.8365517 L7.83851852,40.8365517 C3.73442918,40.8365517 0.407407407,37.7389797 0.407407407,33.917931 L0.407407407,7.53310345 C0.407407407,3.71205475 3.73442918,0.614482759 7.83851852,0.614482759 Z" id="Shape" fill="#F58536"></path>
                    <path d="M34.9148148,22.9786207 C33.3871802,22.9725751 31.8614281,23.0791147 30.3518519,23.2972414 C28.9834889,23.3801841 27.6095516,23.267616 26.2777778,22.9634483 L26.2777778,24.86 C26.2777778,25.3 27.7037037,26.0131034 30.3518519,26.4151724 C31.8607745,26.6385517 33.386985,26.7451233 34.9148148,26.7337931 C40.537037,26.7337931 43.5925926,25.4972414 43.5925926,24.86 L43.5925926,22.9634483 L34.9148148,22.9786207 Z" id="Shape" fill="#9D5025"></path>
                    <path d="M26.0740741,28.5468966 L26.0740741,41.5193103 C26.0740741,42.1793103 28.5185185,43.3931034 34.32,43.3931034 C36.733502,43.4477474 39.1435796,43.1924726 41.4822222,42.6344828 C42.6392593,42.2855172 43.4622222,41.8758621 43.5518519,41.5951724 L43.5518519,28.6986207 C41.857037,29.6772414 38.3614815,30.2158621 34.8903704,30.2158621 L34.6622222,30.2158621 L33.5948148,30.2158621 L33.4481481,30.2158621 L32.5925926,30.0793103 L32.1525926,30.0793103 L31.4681481,30.0262069 L31.1014815,29.9731034 L30.3681481,29.882069 C28.856608,29.7034465 27.3975599,29.2497793 26.0740741,28.5468966 L26.0740741,28.5468966 Z" id="Shape" fill="#9D5025"></path>
                    <path d="M34.9148148,21.0896552 C33.3871802,21.0836096 31.8614281,21.1901492 30.3518519,21.4082759 C27.662963,21.8255172 26.2777778,22.5386207 26.2777778,22.9710345 C26.2777778,23.4034483 27.7037037,24.1241379 30.3518519,24.5262069 C31.8607745,24.7495862 33.386985,24.8561578 34.9148148,24.8448276 C40.537037,24.8448276 43.5925926,23.6082759 43.5925926,22.9710345 C43.5925926,22.3337931 40.537037,21.0896552 34.9148148,21.0896552 Z" id="Shape" fill="#F58536"></path>
                    <path d="M26.0740741,26.6503448 L26.0740741,39.6227586 C26.0740741,40.2827586 28.5185185,41.4965517 34.32,41.4965517 C36.733502,41.5511957 39.1435796,41.2959209 41.4822222,40.737931 C42.6392593,40.3889655 43.4622222,39.9793103 43.5518519,39.6986207 L43.5518519,26.802069 C41.857037,27.7806897 38.3614815,28.3193103 34.8903704,28.3193103 L34.6622222,28.3193103 L33.5948148,28.3193103 L33.4481481,28.3193103 L32.5925926,28.1827586 L32.1525926,28.1827586 L31.4681481,28.0689655 L31.1014815,28.0689655 L30.3681481,27.977931 C28.8571804,27.8016559 27.3981644,27.3505763 26.0740741,26.6503448 L26.0740741,26.6503448 Z" id="Shape" fill="#F58536"></path>
                    <path d="M7.83851852,40.8213793 L25.2185185,40.8213793 L25.2185185,42.4827586 L7.83851852,42.4827586 C3.73442918,42.4827586 0.407407407,39.3851866 0.407407407,35.5641379 L0.407407407,33.8951724 C0.405244835,35.7314188 1.18720843,37.4931465 2.58104656,38.7922808 C3.97488468,40.0914151 5.86625274,40.8213804 7.83851852,40.8213793 L7.83851852,40.8213793 Z" id="Shape" fill="#9D5025"></path>
                </g>
            </g>
        </g>
    </g>
</svg>