<?xml version="1.0" encoding="UTF-8"?>
<svg width="605px" height="253px" viewBox="0 0 605 253" version="1.1" xmlns="http://www.w3.org/2000/svg" xmlns:xlink="http://www.w3.org/1999/xlink">
    <!-- Generator: Sketch 52.1 (67048) - http://www.bohemiancoding.com/sketch -->
    <title>Group 2</title>
    <desc>Created with Sketch.</desc>
    <g id="マイクロサービス" stroke="none" stroke-width="1" fill="none" fill-rule="evenodd">
        <g id="Artboard" transform="translate(-112.000000, -31.000000)">
            <g id="Group-2" transform="translate(112.000000, 24.000000)">
                <g id="シングルテナント">
                    <g id="Group-5" transform="translate(0.000000, 135.000000)">
                        <rect id="Rectangle" stroke="#FF9900" stroke-width="0.5" x="0.25" y="0.25" width="236.5" height="124.5" rx="4"></rect>
                        <g id="Group-4" transform="translate(17.000000, 13.000000)">
                            <g id="Group-3">
                                <rect id="Rectangle" stroke="#FF9900" stroke-width="1.5" x="0.75" y="0.75" width="80.5" height="18.5" rx="4"></rect>
                                <text id="アカウント管理" font-family="NotoSansCJKjp-Bold, Noto Sans CJK JP" font-size="10" font-weight="bold" letter-spacing="0.416666657" fill="#FF9900">
                                    <tspan x="4" y="14">アカウント管理</tspan>
                                </text>
                            </g>
                            <g id="Group-3" transform="translate(0.000000, 36.000000)">
                                <rect id="Rectangle" stroke="#FF9900" stroke-width="1.5" x="0.75" y="0.75" width="80.5" height="18.5" rx="4"></rect>
                                <text id="オーダー管理" font-family="NotoSansCJKjp-Bold, Noto Sans CJK JP" font-size="10" font-weight="bold" letter-spacing="0.4166667" fill="#FF9900">
                                    <tspan x="4" y="14">オーダー管理</tspan>
                                </text>
                            </g>
                            <g id="Group-3" transform="translate(0.000000, 69.000000)">
                                <rect id="Rectangle" stroke="#FF9900" stroke-width="1.5" x="0.75" y="0.75" width="80.5" height="18.5" rx="4"></rect>
                                <text id="在庫管理" font-family="NotoSansCJKjp-Bold, Noto Sans CJK JP" font-size="10" font-weight="bold" letter-spacing="0.4166667" fill="#FF9900">
                                    <tspan x="4" y="14">在庫管理</tspan>
                                </text>
                            </g>
                            <g id="Group-3" transform="translate(110.000000, 0.000000)">
                                <rect id="Rectangle" stroke="#FF9900" stroke-width="1.5" x="0.75" y="0.75" width="80.5" height="18.5" rx="4"></rect>
                                <text id="出荷管理" font-family="NotoSansCJKjp-Bold, Noto Sans CJK JP" font-size="10" font-weight="bold" letter-spacing="0.4166667" fill="#FF9900">
                                    <tspan x="4" y="14">出荷管理</tspan>
                                </text>
                            </g>
                        </g>
                    </g>
                    <text id="モノリシック" font-family="NotoSansCJKjp-Bold, Noto Sans CJK JP" font-size="24" font-weight="bold" letter-spacing="1" fill="#FF9900">
                        <tspan x="41" y="28">モノリシック</tspan>
                    </text>
                    <path id="Line" d="M45,110 L45,92.5 L45,91.5 L47,91.5 L47,92.5 L47,110 L53,110 L46,124 L39,110 L45,110 Z" fill="#FF9900" fill-rule="nonzero"></path>
                    <path id="Line" d="M117,110 L117,92.5 L117,91.5 L119,91.5 L119,92.5 L119,110 L125,110 L118,124 L111,110 L117,110 Z" fill="#FF9900" fill-rule="nonzero"></path>
                    <path id="Line" d="M190,110 L190,92.5 L190,91.5 L192,91.5 L192,92.5 L192,110 L198,110 L191,124 L184,110 L190,110 Z" fill="#FF9900" fill-rule="nonzero"></path>
                    <g id="Group" transform="translate(34.000000, 56.000000)">
                        <g id="General/user">
                            <g id="Shape">
                                <path d="M12,1.43428571 L18.7314286,6.69142857 L18.7314286,8.10857143 C18.7314285,11.8230808 15.7202237,14.8342856 12.0057143,14.8342856 C8.29120491,14.8342856 5.28000008,11.8230808 5.28,8.10857143 L5.28,6.69142857 L12,1.43428571 Z" fill="#7D7C7C" fill-rule="nonzero"></path>
                                <path d="M15.8457143,16.6971429 C20.0971429,16.6971429 23.5314286,19.2742857 23.5314286,23.48 L23.5314286,31.96 L19.1028571,31.96 L19.1028571,26.0114286 L18.3485714,26.0114286 L18.3485714,31.96 L5.82285714,31.96 L5.82285714,26.0114286 L5.06285714,26.0114286 L5.06285714,31.96 L0.491428571,31.96 L0.491428571,23.48 C0.491428571,19.2742857 3.92,16.6971429 8.18285714,16.6971429 L15.8457143,16.6971429 Z" fill="#7D7C7C" fill-rule="nonzero"></path>
                                <path d="M12,-1.2688147e-15 C15.6770451,0.0283466487 18.6384869,3.02548725 18.6227737,6.70260798 C18.6070604,10.3797287 15.6201122,13.3514504 11.9429592,13.3483708 C8.26580614,13.3452911 5.28383972,10.3685705 5.27428571,6.69142857 C5.27730979,4.91173425 5.98797699,3.20630229 7.24962438,1.95108641 C8.51127177,0.695870527 10.2203135,-0.00607144189 12,7.61313213e-16 L12,-1.2688147e-15 Z" fill="#D2D3D3" fill-rule="nonzero"></path>
                                <path d="M15.8457143,15.28 C20.0971429,15.28 23.5314286,17.8571429 23.5314286,22.0628571 L23.5314286,30.5428571 L19.1028571,30.5428571 L19.1028571,24.5714286 L18.3485714,24.5714286 L18.3485714,30.5428571 L5.82285714,30.5428571 L5.82285714,24.5714286 L5.06285714,24.5714286 L5.06285714,30.5428571 L0.491428571,30.5428571 L0.491428571,22.0628571 C0.491428571,17.8571429 3.92,15.28 8.18285714,15.28 L15.8457143,15.28 Z" fill="#D2D3D3" fill-rule="nonzero"></path>
                            </g>
                            <g id="Shape">
                                <path d="M12,1.43428571 L18.7314286,6.69142857 L18.7314286,8.10857143 C18.7314285,11.8230808 15.7202237,14.8342856 12.0057143,14.8342856 C8.29120491,14.8342856 5.28000008,11.8230808 5.28,8.10857143 L5.28,6.69142857 L12,1.43428571 Z" fill="#7D7C7C" fill-rule="nonzero"></path>
                                <path d="M15.8457143,16.6971429 C20.0971429,16.6971429 23.5314286,19.2742857 23.5314286,23.48 L23.5314286,31.96 L19.1028571,31.96 L19.1028571,26.0114286 L18.3485714,26.0114286 L18.3485714,31.96 L5.82285714,31.96 L5.82285714,26.0114286 L5.06285714,26.0114286 L5.06285714,31.96 L0.491428571,31.96 L0.491428571,23.48 C0.491428571,19.2742857 3.92,16.6971429 8.18285714,16.6971429 L15.8457143,16.6971429 Z" fill="#7D7C7C" fill-rule="nonzero"></path>
                                <path d="M12,-1.2688147e-15 C15.6770451,0.0283466487 18.6384869,3.02548725 18.6227737,6.70260798 C18.6070604,10.3797287 15.6201122,13.3514504 11.9429592,13.3483708 C8.26580614,13.3452911 5.28383972,10.3685705 5.27428571,6.69142857 C5.27730979,4.91173425 5.98797699,3.20630229 7.24962438,1.95108641 C8.51127177,0.695870527 10.2203135,-0.00607144189 12,7.61313213e-16 L12,-1.2688147e-15 Z" fill="#D2D3D3" fill-rule="nonzero"></path>
                                <path d="M15.8457143,15.28 C20.0971429,15.28 23.5314286,17.8571429 23.5314286,22.0628571 L23.5314286,30.5428571 L19.1028571,30.5428571 L19.1028571,24.5714286 L18.3485714,24.5714286 L18.3485714,30.5428571 L5.82285714,30.5428571 L5.82285714,24.5714286 L5.06285714,24.5714286 L5.06285714,30.5428571 L0.491428571,30.5428571 L0.491428571,22.0628571 C0.491428571,17.8571429 3.92,15.28 8.18285714,15.28 L15.8457143,15.28 Z" fill="#D2D3D3" fill-rule="nonzero"></path>
                            </g>
                        </g>
                        <g id="General/user" transform="translate(72.000000, 0.000000)">
                            <g id="Shape">
                                <path d="M12,1.43428571 L18.7314286,6.69142857 L18.7314286,8.10857143 C18.7314285,11.8230808 15.7202237,14.8342856 12.0057143,14.8342856 C8.29120491,14.8342856 5.28000008,11.8230808 5.28,8.10857143 L5.28,6.69142857 L12,1.43428571 Z" fill="#7D7C7C" fill-rule="nonzero"></path>
                                <path d="M15.8457143,16.6971429 C20.0971429,16.6971429 23.5314286,19.2742857 23.5314286,23.48 L23.5314286,31.96 L19.1028571,31.96 L19.1028571,26.0114286 L18.3485714,26.0114286 L18.3485714,31.96 L5.82285714,31.96 L5.82285714,26.0114286 L5.06285714,26.0114286 L5.06285714,31.96 L0.491428571,31.96 L0.491428571,23.48 C0.491428571,19.2742857 3.92,16.6971429 8.18285714,16.6971429 L15.8457143,16.6971429 Z" fill="#7D7C7C" fill-rule="nonzero"></path>
                                <path d="M12,-1.2688147e-15 C15.6770451,0.0283466487 18.6384869,3.02548725 18.6227737,6.70260798 C18.6070604,10.3797287 15.6201122,13.3514504 11.9429592,13.3483708 C8.26580614,13.3452911 5.28383972,10.3685705 5.27428571,6.69142857 C5.27730979,4.91173425 5.98797699,3.20630229 7.24962438,1.95108641 C8.51127177,0.695870527 10.2203135,-0.00607144189 12,7.61313213e-16 L12,-1.2688147e-15 Z" fill="#D2D3D3" fill-rule="nonzero"></path>
                                <path d="M15.8457143,15.28 C20.0971429,15.28 23.5314286,17.8571429 23.5314286,22.0628571 L23.5314286,30.5428571 L19.1028571,30.5428571 L19.1028571,24.5714286 L18.3485714,24.5714286 L18.3485714,30.5428571 L5.82285714,30.5428571 L5.82285714,24.5714286 L5.06285714,24.5714286 L5.06285714,30.5428571 L0.491428571,30.5428571 L0.491428571,22.0628571 C0.491428571,17.8571429 3.92,15.28 8.18285714,15.28 L15.8457143,15.28 Z" fill="#D2D3D3" fill-rule="nonzero"></path>
                            </g>
                            <g id="Shape">
                                <path d="M12,1.43428571 L18.7314286,6.69142857 L18.7314286,8.10857143 C18.7314285,11.8230808 15.7202237,14.8342856 12.0057143,14.8342856 C8.29120491,14.8342856 5.28000008,11.8230808 5.28,8.10857143 L5.28,6.69142857 L12,1.43428571 Z" fill="#7D7C7C" fill-rule="nonzero"></path>
                                <path d="M15.8457143,16.6971429 C20.0971429,16.6971429 23.5314286,19.2742857 23.5314286,23.48 L23.5314286,31.96 L19.1028571,31.96 L19.1028571,26.0114286 L18.3485714,26.0114286 L18.3485714,31.96 L5.82285714,31.96 L5.82285714,26.0114286 L5.06285714,26.0114286 L5.06285714,31.96 L0.491428571,31.96 L0.491428571,23.48 C0.491428571,19.2742857 3.92,16.6971429 8.18285714,16.6971429 L15.8457143,16.6971429 Z" fill="#7D7C7C" fill-rule="nonzero"></path>
                                <path d="M12,-1.2688147e-15 C15.6770451,0.0283466487 18.6384869,3.02548725 18.6227737,6.70260798 C18.6070604,10.3797287 15.6201122,13.3514504 11.9429592,13.3483708 C8.26580614,13.3452911 5.28383972,10.3685705 5.27428571,6.69142857 C5.27730979,4.91173425 5.98797699,3.20630229 7.24962438,1.95108641 C8.51127177,0.695870527 10.2203135,-0.00607144189 12,7.61313213e-16 L12,-1.2688147e-15 Z" fill="#D2D3D3" fill-rule="nonzero"></path>
                                <path d="M15.8457143,15.28 C20.0971429,15.28 23.5314286,17.8571429 23.5314286,22.0628571 L23.5314286,30.5428571 L19.1028571,30.5428571 L19.1028571,24.5714286 L18.3485714,24.5714286 L18.3485714,30.5428571 L5.82285714,30.5428571 L5.82285714,24.5714286 L5.06285714,24.5714286 L5.06285714,30.5428571 L0.491428571,30.5428571 L0.491428571,22.0628571 C0.491428571,17.8571429 3.92,15.28 8.18285714,15.28 L15.8457143,15.28 Z" fill="#D2D3D3" fill-rule="nonzero"></path>
                            </g>
                        </g>
                        <g id="General/user" transform="translate(144.000000, 0.000000)">
                            <g id="Shape">
                                <path d="M12,1.43428571 L18.7314286,6.69142857 L18.7314286,8.10857143 C18.7314285,11.8230808 15.7202237,14.8342856 12.0057143,14.8342856 C8.29120491,14.8342856 5.28000008,11.8230808 5.28,8.10857143 L5.28,6.69142857 L12,1.43428571 Z" fill="#7D7C7C" fill-rule="nonzero"></path>
                                <path d="M15.8457143,16.6971429 C20.0971429,16.6971429 23.5314286,19.2742857 23.5314286,23.48 L23.5314286,31.96 L19.1028571,31.96 L19.1028571,26.0114286 L18.3485714,26.0114286 L18.3485714,31.96 L5.82285714,31.96 L5.82285714,26.0114286 L5.06285714,26.0114286 L5.06285714,31.96 L0.491428571,31.96 L0.491428571,23.48 C0.491428571,19.2742857 3.92,16.6971429 8.18285714,16.6971429 L15.8457143,16.6971429 Z" fill="#7D7C7C" fill-rule="nonzero"></path>
                                <path d="M12,-1.2688147e-15 C15.6770451,0.0283466487 18.6384869,3.02548725 18.6227737,6.70260798 C18.6070604,10.3797287 15.6201122,13.3514504 11.9429592,13.3483708 C8.26580614,13.3452911 5.28383972,10.3685705 5.27428571,6.69142857 C5.27730979,4.91173425 5.98797699,3.20630229 7.24962438,1.95108641 C8.51127177,0.695870527 10.2203135,-0.00607144189 12,7.61313213e-16 L12,-1.2688147e-15 Z" fill="#D2D3D3" fill-rule="nonzero"></path>
                                <path d="M15.8457143,15.28 C20.0971429,15.28 23.5314286,17.8571429 23.5314286,22.0628571 L23.5314286,30.5428571 L19.1028571,30.5428571 L19.1028571,24.5714286 L18.3485714,24.5714286 L18.3485714,30.5428571 L5.82285714,30.5428571 L5.82285714,24.5714286 L5.06285714,24.5714286 L5.06285714,30.5428571 L0.491428571,30.5428571 L0.491428571,22.0628571 C0.491428571,17.8571429 3.92,15.28 8.18285714,15.28 L15.8457143,15.28 Z" fill="#D2D3D3" fill-rule="nonzero"></path>
                            </g>
                            <g id="Shape">
                                <path d="M12,1.43428571 L18.7314286,6.69142857 L18.7314286,8.10857143 C18.7314285,11.8230808 15.7202237,14.8342856 12.0057143,14.8342856 C8.29120491,14.8342856 5.28000008,11.8230808 5.28,8.10857143 L5.28,6.69142857 L12,1.43428571 Z" fill="#7D7C7C" fill-rule="nonzero"></path>
                                <path d="M15.8457143,16.6971429 C20.0971429,16.6971429 23.5314286,19.2742857 23.5314286,23.48 L23.5314286,31.96 L19.1028571,31.96 L19.1028571,26.0114286 L18.3485714,26.0114286 L18.3485714,31.96 L5.82285714,31.96 L5.82285714,26.0114286 L5.06285714,26.0114286 L5.06285714,31.96 L0.491428571,31.96 L0.491428571,23.48 C0.491428571,19.2742857 3.92,16.6971429 8.18285714,16.6971429 L15.8457143,16.6971429 Z" fill="#7D7C7C" fill-rule="nonzero"></path>
                                <path d="M12,-1.2688147e-15 C15.6770451,0.0283466487 18.6384869,3.02548725 18.6227737,6.70260798 C18.6070604,10.3797287 15.6201122,13.3514504 11.9429592,13.3483708 C8.26580614,13.3452911 5.28383972,10.3685705 5.27428571,6.69142857 C5.27730979,4.91173425 5.98797699,3.20630229 7.24962438,1.95108641 C8.51127177,0.695870527 10.2203135,-0.00607144189 12,7.61313213e-16 L12,-1.2688147e-15 Z" fill="#D2D3D3" fill-rule="nonzero"></path>
                                <path d="M15.8457143,15.28 C20.0971429,15.28 23.5314286,17.8571429 23.5314286,22.0628571 L23.5314286,30.5428571 L19.1028571,30.5428571 L19.1028571,24.5714286 L18.3485714,24.5714286 L18.3485714,30.5428571 L5.82285714,30.5428571 L5.82285714,24.5714286 L5.06285714,24.5714286 L5.06285714,30.5428571 L0.491428571,30.5428571 L0.491428571,22.0628571 C0.491428571,17.8571429 3.92,15.28 8.18285714,15.28 L15.8457143,15.28 Z" fill="#D2D3D3" fill-rule="nonzero"></path>
                            </g>
                        </g>
                    </g>
                </g>
                <g id="マルチテナント" transform="translate(393.000000, 0.000000)">
                    <text id="マイクロサービス" font-family="NotoSansCJKjp-Bold, Noto Sans CJK JP" font-size="24" font-weight="bold" letter-spacing="1" fill="#FF9900">
                        <tspan x="15" y="28">マイクロサービス</tspan>
                    </text>
                    <path id="Line" d="M29,110 L29,92.5 L29,91.5 L31,91.5 L31,92.5 L31,110 L37,110 L30,124 L23,110 L29,110 Z" fill="#FF9900" fill-rule="nonzero"></path>
                    <path id="Line" d="M101,110 L101,92.5 L101,91.5 L103,91.5 L103,92.5 L103,110 L109,110 L102,124 L95,110 L101,110 Z" fill="#FF9900" fill-rule="nonzero"></path>
                    <path id="Line" d="M174,110 L174,92.5 L174,91.5 L176,91.5 L176,92.5 L176,110 L182,110 L175,124 L168,110 L174,110 Z" fill="#FF9900" fill-rule="nonzero"></path>
                    <g id="Group" transform="translate(18.000000, 56.000000)">
                        <g id="General/user">
                            <g id="Shape">
                                <path d="M12,1.43428571 L18.7314286,6.69142857 L18.7314286,8.10857143 C18.7314285,11.8230808 15.7202237,14.8342856 12.0057143,14.8342856 C8.29120491,14.8342856 5.28000008,11.8230808 5.28,8.10857143 L5.28,6.69142857 L12,1.43428571 Z" fill="#7D7C7C" fill-rule="nonzero"></path>
                                <path d="M15.8457143,16.6971429 C20.0971429,16.6971429 23.5314286,19.2742857 23.5314286,23.48 L23.5314286,31.96 L19.1028571,31.96 L19.1028571,26.0114286 L18.3485714,26.0114286 L18.3485714,31.96 L5.82285714,31.96 L5.82285714,26.0114286 L5.06285714,26.0114286 L5.06285714,31.96 L0.491428571,31.96 L0.491428571,23.48 C0.491428571,19.2742857 3.92,16.6971429 8.18285714,16.6971429 L15.8457143,16.6971429 Z" fill="#7D7C7C" fill-rule="nonzero"></path>
                                <path d="M12,-1.2688147e-15 C15.6770451,0.0283466487 18.6384869,3.02548725 18.6227737,6.70260798 C18.6070604,10.3797287 15.6201122,13.3514504 11.9429592,13.3483708 C8.26580614,13.3452911 5.28383972,10.3685705 5.27428571,6.69142857 C5.27730979,4.91173425 5.98797699,3.20630229 7.24962438,1.95108641 C8.51127177,0.695870527 10.2203135,-0.00607144189 12,7.61313213e-16 L12,-1.2688147e-15 Z" fill="#D2D3D3" fill-rule="nonzero"></path>
                                <path d="M15.8457143,15.28 C20.0971429,15.28 23.5314286,17.8571429 23.5314286,22.0628571 L23.5314286,30.5428571 L19.1028571,30.5428571 L19.1028571,24.5714286 L18.3485714,24.5714286 L18.3485714,30.5428571 L5.82285714,30.5428571 L5.82285714,24.5714286 L5.06285714,24.5714286 L5.06285714,30.5428571 L0.491428571,30.5428571 L0.491428571,22.0628571 C0.491428571,17.8571429 3.92,15.28 8.18285714,15.28 L15.8457143,15.28 Z" fill="#D2D3D3" fill-rule="nonzero"></path>
                            </g>
                            <g id="Shape">
                                <path d="M12,1.43428571 L18.7314286,6.69142857 L18.7314286,8.10857143 C18.7314285,11.8230808 15.7202237,14.8342856 12.0057143,14.8342856 C8.29120491,14.8342856 5.28000008,11.8230808 5.28,8.10857143 L5.28,6.69142857 L12,1.43428571 Z" fill="#7D7C7C" fill-rule="nonzero"></path>
                                <path d="M15.8457143,16.6971429 C20.0971429,16.6971429 23.5314286,19.2742857 23.5314286,23.48 L23.5314286,31.96 L19.1028571,31.96 L19.1028571,26.0114286 L18.3485714,26.0114286 L18.3485714,31.96 L5.82285714,31.96 L5.82285714,26.0114286 L5.06285714,26.0114286 L5.06285714,31.96 L0.491428571,31.96 L0.491428571,23.48 C0.491428571,19.2742857 3.92,16.6971429 8.18285714,16.6971429 L15.8457143,16.6971429 Z" fill="#7D7C7C" fill-rule="nonzero"></path>
                                <path d="M12,-1.2688147e-15 C15.6770451,0.0283466487 18.6384869,3.02548725 18.6227737,6.70260798 C18.6070604,10.3797287 15.6201122,13.3514504 11.9429592,13.3483708 C8.26580614,13.3452911 5.28383972,10.3685705 5.27428571,6.69142857 C5.27730979,4.91173425 5.98797699,3.20630229 7.24962438,1.95108641 C8.51127177,0.695870527 10.2203135,-0.00607144189 12,7.61313213e-16 L12,-1.2688147e-15 Z" fill="#D2D3D3" fill-rule="nonzero"></path>
                                <path d="M15.8457143,15.28 C20.0971429,15.28 23.5314286,17.8571429 23.5314286,22.0628571 L23.5314286,30.5428571 L19.1028571,30.5428571 L19.1028571,24.5714286 L18.3485714,24.5714286 L18.3485714,30.5428571 L5.82285714,30.5428571 L5.82285714,24.5714286 L5.06285714,24.5714286 L5.06285714,30.5428571 L0.491428571,30.5428571 L0.491428571,22.0628571 C0.491428571,17.8571429 3.92,15.28 8.18285714,15.28 L15.8457143,15.28 Z" fill="#D2D3D3" fill-rule="nonzero"></path>
                            </g>
                        </g>
                        <g id="General/user" transform="translate(72.000000, 0.000000)">
                            <g id="Shape">
                                <path d="M12,1.43428571 L18.7314286,6.69142857 L18.7314286,8.10857143 C18.7314285,11.8230808 15.7202237,14.8342856 12.0057143,14.8342856 C8.29120491,14.8342856 5.28000008,11.8230808 5.28,8.10857143 L5.28,6.69142857 L12,1.43428571 Z" fill="#7D7C7C" fill-rule="nonzero"></path>
                                <path d="M15.8457143,16.6971429 C20.0971429,16.6971429 23.5314286,19.2742857 23.5314286,23.48 L23.5314286,31.96 L19.1028571,31.96 L19.1028571,26.0114286 L18.3485714,26.0114286 L18.3485714,31.96 L5.82285714,31.96 L5.82285714,26.0114286 L5.06285714,26.0114286 L5.06285714,31.96 L0.491428571,31.96 L0.491428571,23.48 C0.491428571,19.2742857 3.92,16.6971429 8.18285714,16.6971429 L15.8457143,16.6971429 Z" fill="#7D7C7C" fill-rule="nonzero"></path>
                                <path d="M12,-1.2688147e-15 C15.6770451,0.0283466487 18.6384869,3.02548725 18.6227737,6.70260798 C18.6070604,10.3797287 15.6201122,13.3514504 11.9429592,13.3483708 C8.26580614,13.3452911 5.28383972,10.3685705 5.27428571,6.69142857 C5.27730979,4.91173425 5.98797699,3.20630229 7.24962438,1.95108641 C8.51127177,0.695870527 10.2203135,-0.00607144189 12,7.61313213e-16 L12,-1.2688147e-15 Z" fill="#D2D3D3" fill-rule="nonzero"></path>
                                <path d="M15.8457143,15.28 C20.0971429,15.28 23.5314286,17.8571429 23.5314286,22.0628571 L23.5314286,30.5428571 L19.1028571,30.5428571 L19.1028571,24.5714286 L18.3485714,24.5714286 L18.3485714,30.5428571 L5.82285714,30.5428571 L5.82285714,24.5714286 L5.06285714,24.5714286 L5.06285714,30.5428571 L0.491428571,30.5428571 L0.491428571,22.0628571 C0.491428571,17.8571429 3.92,15.28 8.18285714,15.28 L15.8457143,15.28 Z" fill="#D2D3D3" fill-rule="nonzero"></path>
                            </g>
                            <g id="Shape">
                                <path d="M12,1.43428571 L18.7314286,6.69142857 L18.7314286,8.10857143 C18.7314285,11.8230808 15.7202237,14.8342856 12.0057143,14.8342856 C8.29120491,14.8342856 5.28000008,11.8230808 5.28,8.10857143 L5.28,6.69142857 L12,1.43428571 Z" fill="#7D7C7C" fill-rule="nonzero"></path>
                                <path d="M15.8457143,16.6971429 C20.0971429,16.6971429 23.5314286,19.2742857 23.5314286,23.48 L23.5314286,31.96 L19.1028571,31.96 L19.1028571,26.0114286 L18.3485714,26.0114286 L18.3485714,31.96 L5.82285714,31.96 L5.82285714,26.0114286 L5.06285714,26.0114286 L5.06285714,31.96 L0.491428571,31.96 L0.491428571,23.48 C0.491428571,19.2742857 3.92,16.6971429 8.18285714,16.6971429 L15.8457143,16.6971429 Z" fill="#7D7C7C" fill-rule="nonzero"></path>
                                <path d="M12,-1.2688147e-15 C15.6770451,0.0283466487 18.6384869,3.02548725 18.6227737,6.70260798 C18.6070604,10.3797287 15.6201122,13.3514504 11.9429592,13.3483708 C8.26580614,13.3452911 5.28383972,10.3685705 5.27428571,6.69142857 C5.27730979,4.91173425 5.98797699,3.20630229 7.24962438,1.95108641 C8.51127177,0.695870527 10.2203135,-0.00607144189 12,7.61313213e-16 L12,-1.2688147e-15 Z" fill="#D2D3D3" fill-rule="nonzero"></path>
                                <path d="M15.8457143,15.28 C20.0971429,15.28 23.5314286,17.8571429 23.5314286,22.0628571 L23.5314286,30.5428571 L19.1028571,30.5428571 L19.1028571,24.5714286 L18.3485714,24.5714286 L18.3485714,30.5428571 L5.82285714,30.5428571 L5.82285714,24.5714286 L5.06285714,24.5714286 L5.06285714,30.5428571 L0.491428571,30.5428571 L0.491428571,22.0628571 C0.491428571,17.8571429 3.92,15.28 8.18285714,15.28 L15.8457143,15.28 Z" fill="#D2D3D3" fill-rule="nonzero"></path>
                            </g>
                        </g>
                        <g id="General/user" transform="translate(144.000000, 0.000000)">
                            <g id="Shape">
                                <path d="M12,1.43428571 L18.7314286,6.69142857 L18.7314286,8.10857143 C18.7314285,11.8230808 15.7202237,14.8342856 12.0057143,14.8342856 C8.29120491,14.8342856 5.28000008,11.8230808 5.28,8.10857143 L5.28,6.69142857 L12,1.43428571 Z" fill="#7D7C7C" fill-rule="nonzero"></path>
                                <path d="M15.8457143,16.6971429 C20.0971429,16.6971429 23.5314286,19.2742857 23.5314286,23.48 L23.5314286,31.96 L19.1028571,31.96 L19.1028571,26.0114286 L18.3485714,26.0114286 L18.3485714,31.96 L5.82285714,31.96 L5.82285714,26.0114286 L5.06285714,26.0114286 L5.06285714,31.96 L0.491428571,31.96 L0.491428571,23.48 C0.491428571,19.2742857 3.92,16.6971429 8.18285714,16.6971429 L15.8457143,16.6971429 Z" fill="#7D7C7C" fill-rule="nonzero"></path>
                                <path d="M12,-1.2688147e-15 C15.6770451,0.0283466487 18.6384869,3.02548725 18.6227737,6.70260798 C18.6070604,10.3797287 15.6201122,13.3514504 11.9429592,13.3483708 C8.26580614,13.3452911 5.28383972,10.3685705 5.27428571,6.69142857 C5.27730979,4.91173425 5.98797699,3.20630229 7.24962438,1.95108641 C8.51127177,0.695870527 10.2203135,-0.00607144189 12,7.61313213e-16 L12,-1.2688147e-15 Z" fill="#D2D3D3" fill-rule="nonzero"></path>
                                <path d="M15.8457143,15.28 C20.0971429,15.28 23.5314286,17.8571429 23.5314286,22.0628571 L23.5314286,30.5428571 L19.1028571,30.5428571 L19.1028571,24.5714286 L18.3485714,24.5714286 L18.3485714,30.5428571 L5.82285714,30.5428571 L5.82285714,24.5714286 L5.06285714,24.5714286 L5.06285714,30.5428571 L0.491428571,30.5428571 L0.491428571,22.0628571 C0.491428571,17.8571429 3.92,15.28 8.18285714,15.28 L15.8457143,15.28 Z" fill="#D2D3D3" fill-rule="nonzero"></path>
                            </g>
                            <g id="Shape">
                                <path d="M12,1.43428571 L18.7314286,6.69142857 L18.7314286,8.10857143 C18.7314285,11.8230808 15.7202237,14.8342856 12.0057143,14.8342856 C8.29120491,14.8342856 5.28000008,11.8230808 5.28,8.10857143 L5.28,6.69142857 L12,1.43428571 Z" fill="#7D7C7C" fill-rule="nonzero"></path>
                                <path d="M15.8457143,16.6971429 C20.0971429,16.6971429 23.5314286,19.2742857 23.5314286,23.48 L23.5314286,31.96 L19.1028571,31.96 L19.1028571,26.0114286 L18.3485714,26.0114286 L18.3485714,31.96 L5.82285714,31.96 L5.82285714,26.0114286 L5.06285714,26.0114286 L5.06285714,31.96 L0.491428571,31.96 L0.491428571,23.48 C0.491428571,19.2742857 3.92,16.6971429 8.18285714,16.6971429 L15.8457143,16.6971429 Z" fill="#7D7C7C" fill-rule="nonzero"></path>
                                <path d="M12,-1.2688147e-15 C15.6770451,0.0283466487 18.6384869,3.02548725 18.6227737,6.70260798 C18.6070604,10.3797287 15.6201122,13.3514504 11.9429592,13.3483708 C8.26580614,13.3452911 5.28383972,10.3685705 5.27428571,6.69142857 C5.27730979,4.91173425 5.98797699,3.20630229 7.24962438,1.95108641 C8.51127177,0.695870527 10.2203135,-0.00607144189 12,7.61313213e-16 L12,-1.2688147e-15 Z" fill="#D2D3D3" fill-rule="nonzero"></path>
                                <path d="M15.8457143,15.28 C20.0971429,15.28 23.5314286,17.8571429 23.5314286,22.0628571 L23.5314286,30.5428571 L19.1028571,30.5428571 L19.1028571,24.5714286 L18.3485714,24.5714286 L18.3485714,30.5428571 L5.82285714,30.5428571 L5.82285714,24.5714286 L5.06285714,24.5714286 L5.06285714,30.5428571 L0.491428571,30.5428571 L0.491428571,22.0628571 C0.491428571,17.8571429 3.92,15.28 8.18285714,15.28 L15.8457143,15.28 Z" fill="#D2D3D3" fill-rule="nonzero"></path>
                            </g>
                        </g>
                    </g>
                    <g id="Group-5" transform="translate(0.000000, 138.000000)">
                        <g id="Group-4">
                            <g id="Group-3" transform="translate(118.000000, 89.000000)">
                                <rect id="Rectangle" stroke="#FF9900" stroke-width="1.5" x="0.75" y="0.75" width="80.5" height="18.5" rx="4"></rect>
                                <text id="アカウント管理" font-family="NotoSansCJKjp-Bold, Noto Sans CJK JP" font-size="10" font-weight="bold" letter-spacing="0.4166667" fill="#FF9900">
                                    <tspan x="4" y="14">アカウント管理</tspan>
                                </text>
                            </g>
                            <g id="Group-3" transform="translate(0.000000, 51.000000)">
                                <rect id="Rectangle" stroke="#FF9900" stroke-width="1.5" x="0.75" y="0.75" width="80.5" height="18.5" rx="4"></rect>
                                <text id="オーダー管理" font-family="NotoSansCJKjp-Bold, Noto Sans CJK JP" font-size="10" font-weight="bold" letter-spacing="0.4166667" fill="#FF9900">
                                    <tspan x="4" y="14">オーダー管理</tspan>
                                </text>
                            </g>
                            <path d="M41,71 L41,89" id="Line-2" stroke="#FF9900" stroke-width="2" stroke-linecap="square"></path>
                            <path d="M118,99 L82,99" id="Line-2" stroke="#FF9900" stroke-width="2" stroke-linecap="square"></path>
                            <path d="M99,20 L99,58" id="Line-2" stroke="#FF9900" stroke-width="2" stroke-linecap="square"></path>
                            <path d="M152,71 L152,89" id="Line-2" stroke="#FF9900" stroke-width="2" stroke-linecap="square"></path>
                            <path d="M82,58 L118,58" id="Line-2" stroke="#FF9900" stroke-width="2" stroke-linecap="square"></path>
                            <g id="Group-3" transform="translate(0.000000, 89.000000)">
                                <rect id="Rectangle" stroke="#FF9900" stroke-width="1.5" x="0.75" y="0.75" width="80.5" height="18.5" rx="4"></rect>
                                <text id="在庫管理" font-family="NotoSansCJKjp-Bold, Noto Sans CJK JP" font-size="10" font-weight="bold" letter-spacing="0.4166667" fill="#FF9900">
                                    <tspan x="4" y="14">在庫管理</tspan>
                                </text>
                            </g>
                            <g id="Group-3" transform="translate(118.000000, 51.000000)">
                                <rect id="Rectangle" stroke="#FF9900" stroke-width="1.5" x="0.75" y="0.75" width="80.5" height="18.5" rx="4"></rect>
                                <text id="出荷管理" font-family="NotoSansCJKjp-Bold, Noto Sans CJK JP" font-size="10" font-weight="bold" letter-spacing="0.4166667" fill="#FF9900">
                                    <tspan x="4" y="14">出荷管理</tspan>
                                </text>
                            </g>
                            <g id="Group-3" transform="translate(15.000000, 0.000000)">
                                <rect id="Rectangle" stroke="#FF9900" stroke-width="1.5" x="0.75" y="0.75" width="175.5" height="18.5" rx="4"></rect>
                                <text id="UI" font-family="NotoSansCJKjp-Bold, Noto Sans CJK JP" font-size="10" font-weight="bold" letter-spacing="0.4166667" fill="#FF9900">
                                    <tspan x="82.6933333" y="14">UI</tspan>
                                </text>
                            </g>
                        </g>
                    </g>
                </g>
            </g>
        </g>
    </g>
</svg>