<?xml version="1.0" encoding="UTF-8"?>
<svg width="800px" height="400px" viewBox="0 0 800 400" version="1.1" xmlns="http://www.w3.org/2000/svg" xmlns:xlink="http://www.w3.org/1999/xlink">
    <!-- Generator: Sketch 52.1 (67048) - http://www.bohemiancoding.com/sketch -->
    <title>Artboard</title>
    <desc>Created with Sketch.</desc>
    <g id="Artboard" stroke="none" stroke-width="1" fill="none" fill-rule="evenodd">
        <g id="Group" transform="translate(22.000000, 7.000000)">
            <text id="Timeline" transform="translate(46.000000, 191.000000) rotate(90.000000) translate(-46.000000, -191.000000) " font-family="NotoSansCJKjp-Bold, Noto Sans CJK JP" font-size="24" font-weight="bold" letter-spacing="1" fill="#FF9900">
                <tspan x="-10" y="201">Timeline</tspan>
            </text>
            <path id="Line" d="M27,361 L27,60.5 L27,59.5 L29,59.5 L29,60.5 L29,361 L35,361 L28,375 L21,361 L27,361 Z" fill="#FF9900" fill-rule="nonzero"></path>
            <g id="General/client">
                <g id="Shape">
                    <path d="M49.68,48.3 L32.07,48.3 C31.6174018,48.2973376 31.1824267,48.4752682 30.8614488,48.7943691 C30.5404709,49.1134699 30.3599922,49.547394 30.36,50 L51.36,50 C51.36266,49.5517818 51.1871531,49.1208655 50.8720902,48.802052 C50.5570274,48.4832384 50.1282183,48.3026443 49.68,48.3 L49.68,48.3 Z"></path>
                    <path d="M32.07,51.68 L49.68,51.68 C50.6094699,51.6800163 51.3645002,50.9294536 51.37,50 L30.37,50 C30.3809545,50.9310643 31.1388713,51.6800644 32.07,51.68 Z"></path>
                    <path d="M51.37,50 C51.37,50.9333612 50.6133612,51.69 49.68,51.69 L32.07,51.69 C31.6191296,51.69266 31.1856699,51.5160994 30.864981,51.1991613 C30.5442921,50.8822231 30.3626444,50.4508705 30.36,50 L0.2,50 L0.2,51.69 C0.2,54.0261645 2.09383551,55.92 4.43,55.92 L51.55,55.92 C52.6745189,55.9226553 53.7540348,55.4784868 54.5510651,54.6852073 C55.3480954,53.8919277 55.797351,52.8145189 55.8,51.69 L55.8,50 L51.37,50 Z" fill="#7D7C7C" fill-rule="nonzero"></path>
                    <path d="M53.94,29.88 L51.21,32.88 C51.2044973,33.9420022 50.3420165,34.8000143 49.28,34.8 L6.66,34.8 C5.60188664,34.7945316 4.7454684,33.9381134 4.74,32.88 L2.44,29.88 L0.24,29.88 L0.24,32.88 C0.251029229,36.4162387 3.12374847,39.275534 6.66,39.27 L49.28,39.27 C52.8178862,39.2755493 55.6934722,36.4178519 55.71,32.88 L55.71,29.88 L53.94,29.88 Z" fill="#7D7C7C" fill-rule="nonzero"></path>
                    <path d="M51.55,41.59 C52.6726714,41.5820156 53.7522471,42.0217212 54.5498603,42.8118275 C55.3474735,43.6019337 55.797368,44.6773033 55.8,45.8 L55.8,49.2 C55.797351,50.3245189 55.3480954,51.4019277 54.5510651,52.1952073 C53.7540348,52.9884868 52.6745189,53.4326553 51.55,53.43 L4.44,53.43 C3.31640263,53.4326563 2.23791477,52.9881697 1.44247176,52.1946028 C0.647028746,51.4010358 0.19999686,50.3236005 0.2,49.2 L0.2,45.81 C0.202649025,44.6907854 0.649797425,43.6184637 1.44307699,42.8289348 C2.23635655,42.039406 3.31078546,41.5973447 4.43,41.6 L51.55,41.59 Z M49.68,49.2 C50.6133612,49.2 51.37,48.4433612 51.37,47.51 C51.37,46.5766388 50.6133612,45.82 49.68,45.82 L32.07,45.82 C31.1366388,45.82 30.38,46.5766388 30.38,47.51 C30.38,48.4433612 31.1366388,49.2 32.07,49.2 L49.68,49.2 L49.68,49.2 Z" fill="#D2D3D3" fill-rule="nonzero"></path>
                    <path d="M49.28,0.15 C52.8140052,0.144426745 55.6879856,2.99605893 55.71,6.53 L55.71,30.39 C55.6934722,33.9278519 52.8178862,36.7855493 49.28,36.78 L6.66,36.78 C3.12374847,36.785534 0.251029229,33.9262387 0.24,30.39 L0.24,6.54 C0.256527783,3.00767095 3.12763665,0.154450619 6.66,0.16 L49.28,0.15 Z M51.21,30.39 L51.21,6.54 C51.2100069,6.02904698 51.0063497,5.53916587 50.6441141,5.17880718 C50.2818785,4.81844849 49.7909461,4.61733879 49.28,4.62 L6.66,4.62 C5.59961328,4.62 4.74,5.47961328 4.74,6.54 L4.74,30.39 C4.7454684,31.4481134 5.60188664,32.3045316 6.66,32.31 L49.28,32.31 C50.3420165,32.3100143 51.2044973,31.4520022 51.21,30.39 L51.21,30.39 Z" fill="#D2D3D3" fill-rule="nonzero"></path>
                </g>
            </g>
        </g>
        <g id="Group" transform="translate(721.000000, 7.000000)">
            <text id="Timeline" transform="translate(46.000000, 191.000000) rotate(90.000000) translate(-46.000000, -191.000000) " font-family="NotoSansCJKjp-Bold, Noto Sans CJK JP" font-size="24" font-weight="bold" letter-spacing="1" fill="#FF9900">
                <tspan x="-10" y="201">Timeline</tspan>
            </text>
            <path id="Line" d="M27,361 L27,60.5 L27,59.5 L29,59.5 L29,60.5 L29,361 L35,361 L28,375 L21,361 L27,361 Z" fill="#FF9900" fill-rule="nonzero"></path>
            <g id="General/client">
                <g id="Shape">
                    <path d="M49.68,48.3 L32.07,48.3 C31.6174018,48.2973376 31.1824267,48.4752682 30.8614488,48.7943691 C30.5404709,49.1134699 30.3599922,49.547394 30.36,50 L51.36,50 C51.36266,49.5517818 51.1871531,49.1208655 50.8720902,48.802052 C50.5570274,48.4832384 50.1282183,48.3026443 49.68,48.3 L49.68,48.3 Z"></path>
                    <path d="M32.07,51.68 L49.68,51.68 C50.6094699,51.6800163 51.3645002,50.9294536 51.37,50 L30.37,50 C30.3809545,50.9310643 31.1388713,51.6800644 32.07,51.68 Z"></path>
                    <path d="M51.37,50 C51.37,50.9333612 50.6133612,51.69 49.68,51.69 L32.07,51.69 C31.6191296,51.69266 31.1856699,51.5160994 30.864981,51.1991613 C30.5442921,50.8822231 30.3626444,50.4508705 30.36,50 L0.2,50 L0.2,51.69 C0.2,54.0261645 2.09383551,55.92 4.43,55.92 L51.55,55.92 C52.6745189,55.9226553 53.7540348,55.4784868 54.5510651,54.6852073 C55.3480954,53.8919277 55.797351,52.8145189 55.8,51.69 L55.8,50 L51.37,50 Z" fill="#7D7C7C" fill-rule="nonzero"></path>
                    <path d="M53.94,29.88 L51.21,32.88 C51.2044973,33.9420022 50.3420165,34.8000143 49.28,34.8 L6.66,34.8 C5.60188664,34.7945316 4.7454684,33.9381134 4.74,32.88 L2.44,29.88 L0.24,29.88 L0.24,32.88 C0.251029229,36.4162387 3.12374847,39.275534 6.66,39.27 L49.28,39.27 C52.8178862,39.2755493 55.6934722,36.4178519 55.71,32.88 L55.71,29.88 L53.94,29.88 Z" fill="#7D7C7C" fill-rule="nonzero"></path>
                    <path d="M51.55,41.59 C52.6726714,41.5820156 53.7522471,42.0217212 54.5498603,42.8118275 C55.3474735,43.6019337 55.797368,44.6773033 55.8,45.8 L55.8,49.2 C55.797351,50.3245189 55.3480954,51.4019277 54.5510651,52.1952073 C53.7540348,52.9884868 52.6745189,53.4326553 51.55,53.43 L4.44,53.43 C3.31640263,53.4326563 2.23791477,52.9881697 1.44247176,52.1946028 C0.647028746,51.4010358 0.19999686,50.3236005 0.2,49.2 L0.2,45.81 C0.202649025,44.6907854 0.649797425,43.6184637 1.44307699,42.8289348 C2.23635655,42.039406 3.31078546,41.5973447 4.43,41.6 L51.55,41.59 Z M49.68,49.2 C50.6133612,49.2 51.37,48.4433612 51.37,47.51 C51.37,46.5766388 50.6133612,45.82 49.68,45.82 L32.07,45.82 C31.1366388,45.82 30.38,46.5766388 30.38,47.51 C30.38,48.4433612 31.1366388,49.2 32.07,49.2 L49.68,49.2 L49.68,49.2 Z" fill="#D2D3D3" fill-rule="nonzero"></path>
                    <path d="M49.28,0.15 C52.8140052,0.144426745 55.6879856,2.99605893 55.71,6.53 L55.71,30.39 C55.6934722,33.9278519 52.8178862,36.7855493 49.28,36.78 L6.66,36.78 C3.12374847,36.785534 0.251029229,33.9262387 0.24,30.39 L0.24,6.54 C0.256527783,3.00767095 3.12763665,0.154450619 6.66,0.16 L49.28,0.15 Z M51.21,30.39 L51.21,6.54 C51.2100069,6.02904698 51.0063497,5.53916587 50.6441141,5.17880718 C50.2818785,4.81844849 49.7909461,4.61733879 49.28,4.62 L6.66,4.62 C5.59961328,4.62 4.74,5.47961328 4.74,6.54 L4.74,30.39 C4.7454684,31.4481134 5.60188664,32.3045316 6.66,32.31 L49.28,32.31 C50.3420165,32.3100143 51.2044973,31.4520022 51.21,30.39 L51.21,30.39 Z" fill="#D2D3D3" fill-rule="nonzero"></path>
                </g>
            </g>
        </g>
        <g id="Group-2" transform="translate(85.000000, 75.000000)" fill="#FF9900">
            <text id="WebSocket-handshake" font-family="NotoSansCJKjp-Bold, Noto Sans CJK JP" font-size="19" font-weight="bold" letter-spacing="0.791666567">
                <tspan x="20.9531676" y="22">WebSocket handshake</tspan>
            </text>
            <path id="Line" d="M267,36.5 L253,43.5 L253,29.5 L267,36.5 Z M5,37.5 L4,37.5 L4,35.5 L5,35.5 L10,35.5 L11,35.5 L11,37.5 L10,37.5 L5,37.5 Z M15,37.5 L14,37.5 L14,35.5 L15,35.5 L20,35.5 L21,35.5 L21,37.5 L20,37.5 L15,37.5 Z M25,37.5 L24,37.5 L24,35.5 L25,35.5 L30,35.5 L31,35.5 L31,37.5 L30,37.5 L25,37.5 Z M35,37.5 L34,37.5 L34,35.5 L35,35.5 L40,35.5 L41,35.5 L41,37.5 L40,37.5 L35,37.5 Z M45,37.5 L44,37.5 L44,35.5 L45,35.5 L50,35.5 L51,35.5 L51,37.5 L50,37.5 L45,37.5 Z M55,37.5 L54,37.5 L54,35.5 L55,35.5 L60,35.5 L61,35.5 L61,37.5 L60,37.5 L55,37.5 Z M65,37.5 L64,37.5 L64,35.5 L65,35.5 L70,35.5 L71,35.5 L71,37.5 L70,37.5 L65,37.5 Z M75,37.5 L74,37.5 L74,35.5 L75,35.5 L80,35.5 L81,35.5 L81,37.5 L80,37.5 L75,37.5 Z M85,37.5 L84,37.5 L84,35.5 L85,35.5 L90,35.5 L91,35.5 L91,37.5 L90,37.5 L85,37.5 Z M95,37.5 L94,37.5 L94,35.5 L95,35.5 L100,35.5 L101,35.5 L101,37.5 L100,37.5 L95,37.5 Z M105,37.5 L104,37.5 L104,35.5 L105,35.5 L110,35.5 L111,35.5 L111,37.5 L110,37.5 L105,37.5 Z M115,37.5 L114,37.5 L114,35.5 L115,35.5 L120,35.5 L121,35.5 L121,37.5 L120,37.5 L115,37.5 Z M125,37.5 L124,37.5 L124,35.5 L125,35.5 L130,35.5 L131,35.5 L131,37.5 L130,37.5 L125,37.5 Z M135,37.5 L134,37.5 L134,35.5 L135,35.5 L140,35.5 L141,35.5 L141,37.5 L140,37.5 L135,37.5 Z M145,37.5 L144,37.5 L144,35.5 L145,35.5 L150,35.5 L151,35.5 L151,37.5 L150,37.5 L145,37.5 Z M155,37.5 L154,37.5 L154,35.5 L155,35.5 L160,35.5 L161,35.5 L161,37.5 L160,37.5 L155,37.5 Z M165,37.5 L164,37.5 L164,35.5 L165,35.5 L170,35.5 L171,35.5 L171,37.5 L170,37.5 L165,37.5 Z M175,37.5 L174,37.5 L174,35.5 L175,35.5 L180,35.5 L181,35.5 L181,37.5 L180,37.5 L175,37.5 Z M185,37.5 L184,37.5 L184,35.5 L185,35.5 L190,35.5 L191,35.5 L191,37.5 L190,37.5 L185,37.5 Z M195,37.5 L194,37.5 L194,35.5 L195,35.5 L200,35.5 L201,35.5 L201,37.5 L200,37.5 L195,37.5 Z M205,37.5 L204,37.5 L204,35.5 L205,35.5 L210,35.5 L211,35.5 L211,37.5 L210,37.5 L205,37.5 Z M215,37.5 L214,37.5 L214,35.5 L215,35.5 L220,35.5 L221,35.5 L221,37.5 L220,37.5 L215,37.5 Z M225,37.5 L224,37.5 L224,35.5 L225,35.5 L230,35.5 L231,35.5 L231,37.5 L230,37.5 L225,37.5 Z M235,37.5 L234,37.5 L234,35.5 L235,35.5 L240,35.5 L241,35.5 L241,37.5 L240,37.5 L235,37.5 Z M245,37.5 L244,37.5 L244,35.5 L245,35.5 L250,35.5 L251,35.5 L251,37.5 L250,37.5 L245,37.5 Z" fill-rule="nonzero"></path>
            <path id="Line" d="M0.825,57.5 L14.825,50.5 L14.825,64.5 L0.825,57.5 Z M263.175,56.5 L264.175,56.5 L264.175,58.5 L263.175,58.5 L258.175,58.5 L257.175,58.5 L257.175,56.5 L258.175,56.5 L263.175,56.5 Z M253.175,56.5 L254.175,56.5 L254.175,58.5 L253.175,58.5 L248.175,58.5 L247.175,58.5 L247.175,56.5 L248.175,56.5 L253.175,56.5 Z M243.175,56.5 L244.175,56.5 L244.175,58.5 L243.175,58.5 L238.175,58.5 L237.175,58.5 L237.175,56.5 L238.175,56.5 L243.175,56.5 Z M233.175,56.5 L234.175,56.5 L234.175,58.5 L233.175,58.5 L228.175,58.5 L227.175,58.5 L227.175,56.5 L228.175,56.5 L233.175,56.5 Z M223.175,56.5 L224.175,56.5 L224.175,58.5 L223.175,58.5 L218.175,58.5 L217.175,58.5 L217.175,56.5 L218.175,56.5 L223.175,56.5 Z M213.175,56.5 L214.175,56.5 L214.175,58.5 L213.175,58.5 L208.175,58.5 L207.175,58.5 L207.175,56.5 L208.175,56.5 L213.175,56.5 Z M203.175,56.5 L204.175,56.5 L204.175,58.5 L203.175,58.5 L198.175,58.5 L197.175,58.5 L197.175,56.5 L198.175,56.5 L203.175,56.5 Z M193.175,56.5 L194.175,56.5 L194.175,58.5 L193.175,58.5 L188.175,58.5 L187.175,58.5 L187.175,56.5 L188.175,56.5 L193.175,56.5 Z M183.175,56.5 L184.175,56.5 L184.175,58.5 L183.175,58.5 L178.175,58.5 L177.175,58.5 L177.175,56.5 L178.175,56.5 L183.175,56.5 Z M173.175,56.5 L174.175,56.5 L174.175,58.5 L173.175,58.5 L168.175,58.5 L167.175,58.5 L167.175,56.5 L168.175,56.5 L173.175,56.5 Z M163.175,56.5 L164.175,56.5 L164.175,58.5 L163.175,58.5 L158.175,58.5 L157.175,58.5 L157.175,56.5 L158.175,56.5 L163.175,56.5 Z M153.175,56.5 L154.175,56.5 L154.175,58.5 L153.175,58.5 L148.175,58.5 L147.175,58.5 L147.175,56.5 L148.175,56.5 L153.175,56.5 Z M143.175,56.5 L144.175,56.5 L144.175,58.5 L143.175,58.5 L138.175,58.5 L137.175,58.5 L137.175,56.5 L138.175,56.5 L143.175,56.5 Z M133.175,56.5 L134.175,56.5 L134.175,58.5 L133.175,58.5 L128.175,58.5 L127.175,58.5 L127.175,56.5 L128.175,56.5 L133.175,56.5 Z M123.175,56.5 L124.175,56.5 L124.175,58.5 L123.175,58.5 L118.175,58.5 L117.175,58.5 L117.175,56.5 L118.175,56.5 L123.175,56.5 Z M113.175,56.5 L114.175,56.5 L114.175,58.5 L113.175,58.5 L108.175,58.5 L107.175,58.5 L107.175,56.5 L108.175,56.5 L113.175,56.5 Z M103.175,56.5 L104.175,56.5 L104.175,58.5 L103.175,58.5 L98.175,58.5 L97.175,58.5 L97.175,56.5 L98.175,56.5 L103.175,56.5 Z M93.175,56.5 L94.175,56.5 L94.175,58.5 L93.175,58.5 L88.175,58.5 L87.175,58.5 L87.175,56.5 L88.175,56.5 L93.175,56.5 Z M83.175,56.5 L84.175,56.5 L84.175,58.5 L83.175,58.5 L78.175,58.5 L77.175,58.5 L77.175,56.5 L78.175,56.5 L83.175,56.5 Z M73.175,56.5 L74.175,56.5 L74.175,58.5 L73.175,58.5 L68.175,58.5 L67.175,58.5 L67.175,56.5 L68.175,56.5 L73.175,56.5 Z M63.175,56.5 L64.175,56.5 L64.175,58.5 L63.175,58.5 L58.175,58.5 L57.175,58.5 L57.175,56.5 L58.175,56.5 L63.175,56.5 Z M53.175,56.5 L54.175,56.5 L54.175,58.5 L53.175,58.5 L48.175,58.5 L47.175,58.5 L47.175,56.5 L48.175,56.5 L53.175,56.5 Z M43.175,56.5 L44.175,56.5 L44.175,58.5 L43.175,58.5 L38.175,58.5 L37.175,58.5 L37.175,56.5 L38.175,56.5 L43.175,56.5 Z M33.175,56.5 L34.175,56.5 L34.175,58.5 L33.175,58.5 L28.175,58.5 L27.175,58.5 L27.175,56.5 L28.175,56.5 L33.175,56.5 Z M23.175,56.5 L24.175,56.5 L24.175,58.5 L23.175,58.5 L18.175,58.5 L17.175,58.5 L17.175,56.5 L18.175,56.5 L23.175,56.5 Z" fill-rule="nonzero"></path>
        </g>
        <g id="Group-2" transform="translate(454.000000, 75.000000)" fill="#FF9900">
            <text id="WebSocket-handshake" font-family="NotoSansCJKjp-Bold, Noto Sans CJK JP" font-size="19" font-weight="bold" letter-spacing="0.7916666">
                <tspan x="13.9531673" y="22">WebSocket handshake</tspan>
            </text>
            <path id="Line" d="M239,37.5 L235,37.5 L234,37.5 L234,35.5 L235,35.5 L239,35.5 L239,29.5 L253,36.5 L239,43.5 L239,37.5 Z M5,37.5 L4,37.5 L4,35.5 L5,35.5 L10,35.5 L11,35.5 L11,37.5 L10,37.5 L5,37.5 Z M15,37.5 L14,37.5 L14,35.5 L15,35.5 L20,35.5 L21,35.5 L21,37.5 L20,37.5 L15,37.5 Z M25,37.5 L24,37.5 L24,35.5 L25,35.5 L30,35.5 L31,35.5 L31,37.5 L30,37.5 L25,37.5 Z M35,37.5 L34,37.5 L34,35.5 L35,35.5 L40,35.5 L41,35.5 L41,37.5 L40,37.5 L35,37.5 Z M45,37.5 L44,37.5 L44,35.5 L45,35.5 L50,35.5 L51,35.5 L51,37.5 L50,37.5 L45,37.5 Z M55,37.5 L54,37.5 L54,35.5 L55,35.5 L60,35.5 L61,35.5 L61,37.5 L60,37.5 L55,37.5 Z M65,37.5 L64,37.5 L64,35.5 L65,35.5 L70,35.5 L71,35.5 L71,37.5 L70,37.5 L65,37.5 Z M75,37.5 L74,37.5 L74,35.5 L75,35.5 L80,35.5 L81,35.5 L81,37.5 L80,37.5 L75,37.5 Z M85,37.5 L84,37.5 L84,35.5 L85,35.5 L90,35.5 L91,35.5 L91,37.5 L90,37.5 L85,37.5 Z M95,37.5 L94,37.5 L94,35.5 L95,35.5 L100,35.5 L101,35.5 L101,37.5 L100,37.5 L95,37.5 Z M105,37.5 L104,37.5 L104,35.5 L105,35.5 L110,35.5 L111,35.5 L111,37.5 L110,37.5 L105,37.5 Z M115,37.5 L114,37.5 L114,35.5 L115,35.5 L120,35.5 L121,35.5 L121,37.5 L120,37.5 L115,37.5 Z M125,37.5 L124,37.5 L124,35.5 L125,35.5 L130,35.5 L131,35.5 L131,37.5 L130,37.5 L125,37.5 Z M135,37.5 L134,37.5 L134,35.5 L135,35.5 L140,35.5 L141,35.5 L141,37.5 L140,37.5 L135,37.5 Z M145,37.5 L144,37.5 L144,35.5 L145,35.5 L150,35.5 L151,35.5 L151,37.5 L150,37.5 L145,37.5 Z M155,37.5 L154,37.5 L154,35.5 L155,35.5 L160,35.5 L161,35.5 L161,37.5 L160,37.5 L155,37.5 Z M165,37.5 L164,37.5 L164,35.5 L165,35.5 L170,35.5 L171,35.5 L171,37.5 L170,37.5 L165,37.5 Z M175,37.5 L174,37.5 L174,35.5 L175,35.5 L180,35.5 L181,35.5 L181,37.5 L180,37.5 L175,37.5 Z M185,37.5 L184,37.5 L184,35.5 L185,35.5 L190,35.5 L191,35.5 L191,37.5 L190,37.5 L185,37.5 Z M195,37.5 L194,37.5 L194,35.5 L195,35.5 L200,35.5 L201,35.5 L201,37.5 L200,37.5 L195,37.5 Z M205,37.5 L204,37.5 L204,35.5 L205,35.5 L210,35.5 L211,35.5 L211,37.5 L210,37.5 L205,37.5 Z M215,37.5 L214,37.5 L214,35.5 L215,35.5 L220,35.5 L221,35.5 L221,37.5 L220,37.5 L215,37.5 Z M225,37.5 L224,37.5 L224,35.5 L225,35.5 L230,35.5 L231,35.5 L231,37.5 L230,37.5 L225,37.5 Z" fill-rule="nonzero"></path>
            <path id="Line" d="M14.78125,56.5 L19.21875,56.5 L20.21875,56.5 L20.21875,58.5 L19.21875,58.5 L14.78125,58.5 L14.78125,64.5 L0.78125,57.5 L14.78125,50.5 L14.78125,56.5 Z M249.21875,56.5 L250.21875,56.5 L250.21875,58.5 L249.21875,58.5 L244.21875,58.5 L243.21875,58.5 L243.21875,56.5 L244.21875,56.5 L249.21875,56.5 Z M239.21875,56.5 L240.21875,56.5 L240.21875,58.5 L239.21875,58.5 L234.21875,58.5 L233.21875,58.5 L233.21875,56.5 L234.21875,56.5 L239.21875,56.5 Z M229.21875,56.5 L230.21875,56.5 L230.21875,58.5 L229.21875,58.5 L224.21875,58.5 L223.21875,58.5 L223.21875,56.5 L224.21875,56.5 L229.21875,56.5 Z M219.21875,56.5 L220.21875,56.5 L220.21875,58.5 L219.21875,58.5 L214.21875,58.5 L213.21875,58.5 L213.21875,56.5 L214.21875,56.5 L219.21875,56.5 Z M209.21875,56.5 L210.21875,56.5 L210.21875,58.5 L209.21875,58.5 L204.21875,58.5 L203.21875,58.5 L203.21875,56.5 L204.21875,56.5 L209.21875,56.5 Z M199.21875,56.5 L200.21875,56.5 L200.21875,58.5 L199.21875,58.5 L194.21875,58.5 L193.21875,58.5 L193.21875,56.5 L194.21875,56.5 L199.21875,56.5 Z M189.21875,56.5 L190.21875,56.5 L190.21875,58.5 L189.21875,58.5 L184.21875,58.5 L183.21875,58.5 L183.21875,56.5 L184.21875,56.5 L189.21875,56.5 Z M179.21875,56.5 L180.21875,56.5 L180.21875,58.5 L179.21875,58.5 L174.21875,58.5 L173.21875,58.5 L173.21875,56.5 L174.21875,56.5 L179.21875,56.5 Z M169.21875,56.5 L170.21875,56.5 L170.21875,58.5 L169.21875,58.5 L164.21875,58.5 L163.21875,58.5 L163.21875,56.5 L164.21875,56.5 L169.21875,56.5 Z M159.21875,56.5 L160.21875,56.5 L160.21875,58.5 L159.21875,58.5 L154.21875,58.5 L153.21875,58.5 L153.21875,56.5 L154.21875,56.5 L159.21875,56.5 Z M149.21875,56.5 L150.21875,56.5 L150.21875,58.5 L149.21875,58.5 L144.21875,58.5 L143.21875,58.5 L143.21875,56.5 L144.21875,56.5 L149.21875,56.5 Z M139.21875,56.5 L140.21875,56.5 L140.21875,58.5 L139.21875,58.5 L134.21875,58.5 L133.21875,58.5 L133.21875,56.5 L134.21875,56.5 L139.21875,56.5 Z M129.21875,56.5 L130.21875,56.5 L130.21875,58.5 L129.21875,58.5 L124.21875,58.5 L123.21875,58.5 L123.21875,56.5 L124.21875,56.5 L129.21875,56.5 Z M119.21875,56.5 L120.21875,56.5 L120.21875,58.5 L119.21875,58.5 L114.21875,58.5 L113.21875,58.5 L113.21875,56.5 L114.21875,56.5 L119.21875,56.5 Z M109.21875,56.5 L110.21875,56.5 L110.21875,58.5 L109.21875,58.5 L104.21875,58.5 L103.21875,58.5 L103.21875,56.5 L104.21875,56.5 L109.21875,56.5 Z M99.21875,56.5 L100.21875,56.5 L100.21875,58.5 L99.21875,58.5 L94.21875,58.5 L93.21875,58.5 L93.21875,56.5 L94.21875,56.5 L99.21875,56.5 Z M89.21875,56.5 L90.21875,56.5 L90.21875,58.5 L89.21875,58.5 L84.21875,58.5 L83.21875,58.5 L83.21875,56.5 L84.21875,56.5 L89.21875,56.5 Z M79.21875,56.5 L80.21875,56.5 L80.21875,58.5 L79.21875,58.5 L74.21875,58.5 L73.21875,58.5 L73.21875,56.5 L74.21875,56.5 L79.21875,56.5 Z M69.21875,56.5 L70.21875,56.5 L70.21875,58.5 L69.21875,58.5 L64.21875,58.5 L63.21875,58.5 L63.21875,56.5 L64.21875,56.5 L69.21875,56.5 Z M59.21875,56.5 L60.21875,56.5 L60.21875,58.5 L59.21875,58.5 L54.21875,58.5 L53.21875,58.5 L53.21875,56.5 L54.21875,56.5 L59.21875,56.5 Z M49.21875,56.5 L50.21875,56.5 L50.21875,58.5 L49.21875,58.5 L44.21875,58.5 L43.21875,58.5 L43.21875,56.5 L44.21875,56.5 L49.21875,56.5 Z M39.21875,56.5 L40.21875,56.5 L40.21875,58.5 L39.21875,58.5 L34.21875,58.5 L33.21875,58.5 L33.21875,56.5 L34.21875,56.5 L39.21875,56.5 Z M29.21875,56.5 L30.21875,56.5 L30.21875,58.5 L29.21875,58.5 L24.21875,58.5 L23.21875,58.5 L23.21875,56.5 L24.21875,56.5 L29.21875,56.5 Z" fill-rule="nonzero"></path>
        </g>
        <text id="Timeline" transform="translate(408.000000, 198.000000) rotate(90.000000) translate(-408.000000, -198.000000) " font-family="NotoSansCJKjp-Bold, Noto Sans CJK JP" font-size="24" font-weight="bold" letter-spacing="1" fill="#FF9900">
            <tspan x="352" y="208">Timeline</tspan>
        </text>
        <g id="Group-3" transform="translate(91.000000, 161.000000)" fill="#FF9900">
            <text id="socket-send" font-family="NotoSansCJKjp-Bold, Noto Sans CJK JP" font-size="19" font-weight="bold" letter-spacing="0.7916666">
                <tspan x="69.0363337" y="22">socket send</tspan>
            </text>
            <path id="Line" d="M261,36.5 L247,43.5 L247,29.5 L261,36.5 Z M3.75878574e-16,37.5 L-1,37.5 L-1,35.5 L3.75878574e-16,35.5 L5,35.5 L6,35.5 L6,37.5 L5,37.5 L3.75878574e-16,37.5 Z M10,37.5 L9,37.5 L9,35.5 L10,35.5 L15,35.5 L16,35.5 L16,37.5 L15,37.5 L10,37.5 Z M20,37.5 L19,37.5 L19,35.5 L20,35.5 L25,35.5 L26,35.5 L26,37.5 L25,37.5 L20,37.5 Z M30,37.5 L29,37.5 L29,35.5 L30,35.5 L35,35.5 L36,35.5 L36,37.5 L35,37.5 L30,37.5 Z M40,37.5 L39,37.5 L39,35.5 L40,35.5 L45,35.5 L46,35.5 L46,37.5 L45,37.5 L40,37.5 Z M50,37.5 L49,37.5 L49,35.5 L50,35.5 L55,35.5 L56,35.5 L56,37.5 L55,37.5 L50,37.5 Z M60,37.5 L59,37.5 L59,35.5 L60,35.5 L65,35.5 L66,35.5 L66,37.5 L65,37.5 L60,37.5 Z M70,37.5 L69,37.5 L69,35.5 L70,35.5 L75,35.5 L76,35.5 L76,37.5 L75,37.5 L70,37.5 Z M80,37.5 L79,37.5 L79,35.5 L80,35.5 L85,35.5 L86,35.5 L86,37.5 L85,37.5 L80,37.5 Z M90,37.5 L89,37.5 L89,35.5 L90,35.5 L95,35.5 L96,35.5 L96,37.5 L95,37.5 L90,37.5 Z M100,37.5 L99,37.5 L99,35.5 L100,35.5 L105,35.5 L106,35.5 L106,37.5 L105,37.5 L100,37.5 Z M110,37.5 L109,37.5 L109,35.5 L110,35.5 L115,35.5 L116,35.5 L116,37.5 L115,37.5 L110,37.5 Z M120,37.5 L119,37.5 L119,35.5 L120,35.5 L125,35.5 L126,35.5 L126,37.5 L125,37.5 L120,37.5 Z M130,37.5 L129,37.5 L129,35.5 L130,35.5 L135,35.5 L136,35.5 L136,37.5 L135,37.5 L130,37.5 Z M140,37.5 L139,37.5 L139,35.5 L140,35.5 L145,35.5 L146,35.5 L146,37.5 L145,37.5 L140,37.5 Z M150,37.5 L149,37.5 L149,35.5 L150,35.5 L155,35.5 L156,35.5 L156,37.5 L155,37.5 L150,37.5 Z M160,37.5 L159,37.5 L159,35.5 L160,35.5 L165,35.5 L166,35.5 L166,37.5 L165,37.5 L160,37.5 Z M170,37.5 L169,37.5 L169,35.5 L170,35.5 L175,35.5 L176,35.5 L176,37.5 L175,37.5 L170,37.5 Z M180,37.5 L179,37.5 L179,35.5 L180,35.5 L185,35.5 L186,35.5 L186,37.5 L185,37.5 L180,37.5 Z M190,37.5 L189,37.5 L189,35.5 L190,35.5 L195,35.5 L196,35.5 L196,37.5 L195,37.5 L190,37.5 Z M200,37.5 L199,37.5 L199,35.5 L200,35.5 L205,35.5 L206,35.5 L206,37.5 L205,37.5 L200,37.5 Z M210,37.5 L209,37.5 L209,35.5 L210,35.5 L215,35.5 L216,35.5 L216,37.5 L215,37.5 L210,37.5 Z M220,37.5 L219,37.5 L219,35.5 L220,35.5 L225,35.5 L226,35.5 L226,37.5 L225,37.5 L220,37.5 Z M230,37.5 L229,37.5 L229,35.5 L230,35.5 L235,35.5 L236,35.5 L236,37.5 L235,37.5 L230,37.5 Z M240,37.5 L239,37.5 L239,35.5 L240,35.5 L245,35.5 L246,35.5 L246,37.5 L245,37.5 L240,37.5 Z" fill-rule="nonzero"></path>
        </g>
        <g id="Group-3" transform="translate(91.000000, 280.000000)" fill="#FF0000">
            <text id="Event" font-family="NotoSansCJKjp-Bold, Noto Sans CJK JP" font-size="19" font-weight="bold" letter-spacing="0.7916666">
                <tspan x="99.7973335" y="22">Event</tspan>
            </text>
            <path id="Line" d="M14,37.5 L17,37.5 L18,37.5 L18,39.5 L17,39.5 L14,39.5 L14,45.5 L0,38.5 L14,31.5 L14,37.5 Z M257,37.5 L258,37.5 L258,39.5 L257,39.5 L252,39.5 L251,39.5 L251,37.5 L252,37.5 L257,37.5 Z M247,37.5 L248,37.5 L248,39.5 L247,39.5 L242,39.5 L241,39.5 L241,37.5 L242,37.5 L247,37.5 Z M237,37.5 L238,37.5 L238,39.5 L237,39.5 L232,39.5 L231,39.5 L231,37.5 L232,37.5 L237,37.5 Z M227,37.5 L228,37.5 L228,39.5 L227,39.5 L222,39.5 L221,39.5 L221,37.5 L222,37.5 L227,37.5 Z M217,37.5 L218,37.5 L218,39.5 L217,39.5 L212,39.5 L211,39.5 L211,37.5 L212,37.5 L217,37.5 Z M207,37.5 L208,37.5 L208,39.5 L207,39.5 L202,39.5 L201,39.5 L201,37.5 L202,37.5 L207,37.5 Z M197,37.5 L198,37.5 L198,39.5 L197,39.5 L192,39.5 L191,39.5 L191,37.5 L192,37.5 L197,37.5 Z M187,37.5 L188,37.5 L188,39.5 L187,39.5 L182,39.5 L181,39.5 L181,37.5 L182,37.5 L187,37.5 Z M177,37.5 L178,37.5 L178,39.5 L177,39.5 L172,39.5 L171,39.5 L171,37.5 L172,37.5 L177,37.5 Z M167,37.5 L168,37.5 L168,39.5 L167,39.5 L162,39.5 L161,39.5 L161,37.5 L162,37.5 L167,37.5 Z M157,37.5 L158,37.5 L158,39.5 L157,39.5 L152,39.5 L151,39.5 L151,37.5 L152,37.5 L157,37.5 Z M147,37.5 L148,37.5 L148,39.5 L147,39.5 L142,39.5 L141,39.5 L141,37.5 L142,37.5 L147,37.5 Z M137,37.5 L138,37.5 L138,39.5 L137,39.5 L132,39.5 L131,39.5 L131,37.5 L132,37.5 L137,37.5 Z M127,37.5 L128,37.5 L128,39.5 L127,39.5 L122,39.5 L121,39.5 L121,37.5 L122,37.5 L127,37.5 Z M117,37.5 L118,37.5 L118,39.5 L117,39.5 L112,39.5 L111,39.5 L111,37.5 L112,37.5 L117,37.5 Z M107,37.5 L108,37.5 L108,39.5 L107,39.5 L102,39.5 L101,39.5 L101,37.5 L102,37.5 L107,37.5 Z M97,37.5 L98,37.5 L98,39.5 L97,39.5 L92,39.5 L91,39.5 L91,37.5 L92,37.5 L97,37.5 Z M87,37.5 L88,37.5 L88,39.5 L87,39.5 L82,39.5 L81,39.5 L81,37.5 L82,37.5 L87,37.5 Z M77,37.5 L78,37.5 L78,39.5 L77,39.5 L72,39.5 L71,39.5 L71,37.5 L72,37.5 L77,37.5 Z M67,37.5 L68,37.5 L68,39.5 L67,39.5 L62,39.5 L61,39.5 L61,37.5 L62,37.5 L67,37.5 Z M57,37.5 L58,37.5 L58,39.5 L57,39.5 L52,39.5 L51,39.5 L51,37.5 L52,37.5 L57,37.5 Z M47,37.5 L48,37.5 L48,39.5 L47,39.5 L42,39.5 L41,39.5 L41,37.5 L42,37.5 L47,37.5 Z M37,37.5 L38,37.5 L38,39.5 L37,39.5 L32,39.5 L31,39.5 L31,37.5 L32,37.5 L37,37.5 Z M27,37.5 L28,37.5 L28,39.5 L27,39.5 L22,39.5 L21,39.5 L21,37.5 L22,37.5 L27,37.5 Z" fill-rule="nonzero"></path>
        </g>
        <g id="Group-3" transform="translate(458.000000, 280.000000)" fill="#FF0000">
            <text id="Event" font-family="NotoSansCJKjp-Bold, Noto Sans CJK JP" font-size="19" font-weight="bold" letter-spacing="0.7916666">
                <tspan x="100.797334" y="22">Event</tspan>
            </text>
            <path id="Line" d="M244,39.5 L241,39.5 L240,39.5 L240,37.5 L241,37.5 L244,37.5 L244,31.5 L258,38.5 L244,45.5 L244,39.5 Z M1,39.5 L-5.0293103e-14,39.5 L-5.0293103e-14,37.5 L1,37.5 L6,37.5 L7,37.5 L7,39.5 L6,39.5 L1,39.5 Z M11,39.5 L10,39.5 L10,37.5 L11,37.5 L16,37.5 L17,37.5 L17,39.5 L16,39.5 L11,39.5 Z M21,39.5 L20,39.5 L20,37.5 L21,37.5 L26,37.5 L27,37.5 L27,39.5 L26,39.5 L21,39.5 Z M31,39.5 L30,39.5 L30,37.5 L31,37.5 L36,37.5 L37,37.5 L37,39.5 L36,39.5 L31,39.5 Z M41,39.5 L40,39.5 L40,37.5 L41,37.5 L46,37.5 L47,37.5 L47,39.5 L46,39.5 L41,39.5 Z M51,39.5 L50,39.5 L50,37.5 L51,37.5 L56,37.5 L57,37.5 L57,39.5 L56,39.5 L51,39.5 Z M61,39.5 L60,39.5 L60,37.5 L61,37.5 L66,37.5 L67,37.5 L67,39.5 L66,39.5 L61,39.5 Z M71,39.5 L70,39.5 L70,37.5 L71,37.5 L76,37.5 L77,37.5 L77,39.5 L76,39.5 L71,39.5 Z M81,39.5 L80,39.5 L80,37.5 L81,37.5 L86,37.5 L87,37.5 L87,39.5 L86,39.5 L81,39.5 Z M91,39.5 L90,39.5 L90,37.5 L91,37.5 L96,37.5 L97,37.5 L97,39.5 L96,39.5 L91,39.5 Z M101,39.5 L100,39.5 L100,37.5 L101,37.5 L106,37.5 L107,37.5 L107,39.5 L106,39.5 L101,39.5 Z M111,39.5 L110,39.5 L110,37.5 L111,37.5 L116,37.5 L117,37.5 L117,39.5 L116,39.5 L111,39.5 Z M121,39.5 L120,39.5 L120,37.5 L121,37.5 L126,37.5 L127,37.5 L127,39.5 L126,39.5 L121,39.5 Z M131,39.5 L130,39.5 L130,37.5 L131,37.5 L136,37.5 L137,37.5 L137,39.5 L136,39.5 L131,39.5 Z M141,39.5 L140,39.5 L140,37.5 L141,37.5 L146,37.5 L147,37.5 L147,39.5 L146,39.5 L141,39.5 Z M151,39.5 L150,39.5 L150,37.5 L151,37.5 L156,37.5 L157,37.5 L157,39.5 L156,39.5 L151,39.5 Z M161,39.5 L160,39.5 L160,37.5 L161,37.5 L166,37.5 L167,37.5 L167,39.5 L166,39.5 L161,39.5 Z M171,39.5 L170,39.5 L170,37.5 L171,37.5 L176,37.5 L177,37.5 L177,39.5 L176,39.5 L171,39.5 Z M181,39.5 L180,39.5 L180,37.5 L181,37.5 L186,37.5 L187,37.5 L187,39.5 L186,39.5 L181,39.5 Z M191,39.5 L190,39.5 L190,37.5 L191,37.5 L196,37.5 L197,37.5 L197,39.5 L196,39.5 L191,39.5 Z M201,39.5 L200,39.5 L200,37.5 L201,37.5 L206,37.5 L207,37.5 L207,39.5 L206,39.5 L201,39.5 Z M211,39.5 L210,39.5 L210,37.5 L211,37.5 L216,37.5 L217,37.5 L217,39.5 L216,39.5 L211,39.5 Z M221,39.5 L220,39.5 L220,37.5 L221,37.5 L226,37.5 L227,37.5 L227,39.5 L226,39.5 L221,39.5 Z M231,39.5 L230,39.5 L230,37.5 L231,37.5 L236,37.5 L237,37.5 L237,39.5 L236,39.5 L231,39.5 Z" fill-rule="nonzero"></path>
        </g>
        <path id="Line" d="M389,368 L389,67.5 L389,66.5 L391,66.5 L391,67.5 L391,368 L397,368 L390,382 L383,368 L389,368 Z" fill="#FF9900" fill-rule="nonzero"></path>
        <g id="Compute/AmazonEC2/DBoninstance" transform="translate(363.000000, 6.000000)">
            <g id="Group">
                <g fill-rule="nonzero">
                    <path d="M9.62,3 L44.38,3 C49.4168369,3 53.5,7.08316308 53.5,12.12 L53.5,27.43 C51.7,26.5 47.76,25.51 41.93,25.51 C39.6969616,25.500556 37.466674,25.6677439 35.26,26.01 C31.33,26.66 29.26,27.78 29.26,28.47 L29.26,54.47 C29.26,54.9 29.85,55.47 30.97,56.03 L9.62,56.03 C4.58316308,56.03 0.5,51.9468369 0.5,46.91 L0.5,12.13 C0.497345934,9.70949346 1.45702852,7.38721592 3.16764805,5.67472072 C4.87826757,3.96222552 7.199492,2.99999854 9.62,3 L9.62,3 Z" id="Shape" fill="#9D5025"></path>
                    <path d="M9.62,0.81 L44.38,0.81 C49.4168369,0.81 53.5,4.89316308 53.5,9.93 L53.5,25.23 C51.7,24.3 47.76,23.31 41.93,23.31 C39.6969616,23.300556 37.466674,23.4677439 35.26,23.81 C31.33,24.46 29.26,25.58 29.26,26.27 L29.26,52.27 C29.26,52.7 29.85,53.27 30.97,53.83 L9.62,53.83 C4.58316308,53.83 0.5,49.7468369 0.5,44.71 L0.5,9.93 C0.5,4.89316308 4.58316308,0.81 9.62,0.81 Z" id="Shape" fill="#F58536"></path>
                    <path d="M42.85,30.29 C40.9751758,30.2820308 39.1026618,30.4224693 37.25,30.71 C35.5706455,30.8193336 33.8844497,30.6709484 32.25,30.27 L32.25,32.77 C32.25,33.35 34,34.29 37.25,34.82 C39.1018596,35.1144545 40.9749362,35.2549353 42.85,35.24 C49.75,35.24 53.5,33.61 53.5,32.77 L53.5,30.27 L42.85,30.29 Z" id="Shape" fill="#9D5025"></path>
                    <path d="M32,37.63 L32,54.73 C32,55.6 35,57.2 42.12,57.2 C45.0820252,57.2720307 48.0398477,56.9355321 50.91,56.2 C52.33,55.74 53.34,55.2 53.45,54.83 L53.45,37.83 C51.37,39.12 47.08,39.83 42.82,39.83 L42.54,39.83 L41.23,39.83 L41.05,39.83 L40,39.65 L39.46,39.65 L38.62,39.58 L38.17,39.51 L37.27,39.39 C35.414928,39.1545431 33.6242781,38.5565272 32,37.63 L32,37.63 Z" id="Shape" fill="#9D5025"></path>
                    <path d="M42.85,27.8 C40.9751758,27.7920308 39.1026618,27.9324693 37.25,28.22 C33.95,28.77 32.25,29.71 32.25,30.28 C32.25,30.85 34,31.8 37.25,32.33 C39.1018596,32.6244545 40.9749362,32.7649353 42.85,32.75 C49.75,32.75 53.5,31.12 53.5,30.28 C53.5,29.44 49.75,27.8 42.85,27.8 Z" id="Shape" fill="#F58536"></path>
                    <path d="M32,35.13 L32,52.23 C32,53.1 35,54.7 42.12,54.7 C45.0820252,54.7720307 48.0398477,54.4355321 50.91,53.7 C52.33,53.24 53.34,52.7 53.45,52.33 L53.45,35.33 C51.37,36.62 47.08,37.33 42.82,37.33 L42.54,37.33 L41.23,37.33 L41.05,37.33 L40,37.15 L39.46,37.15 L38.62,37 L38.17,37 L37.27,36.88 C35.4156305,36.6476374 33.62502,36.0530323 32,35.13 L32,35.13 Z" id="Shape" fill="#F58536"></path>
                    <path d="M9.62,53.81 L30.95,53.81 L30.95,56 L9.62,56 C4.58316308,56 0.5,51.9168369 0.5,46.88 L0.5,44.68 C0.497345934,47.1005065 1.45702852,49.4227841 3.16764805,51.1352793 C4.87826757,52.8477745 7.199492,53.8100015 9.62,53.81 L9.62,53.81 Z" id="Shape" fill="#9D5025"></path>
                </g>
            </g>
            <g id="Group">
                <g fill-rule="nonzero">
                    <path d="M9.62,3 L44.38,3 C49.4168369,3 53.5,7.08316308 53.5,12.12 L53.5,27.43 C51.7,26.5 47.76,25.51 41.93,25.51 C39.6969616,25.500556 37.466674,25.6677439 35.26,26.01 C31.33,26.66 29.26,27.78 29.26,28.47 L29.26,54.47 C29.26,54.9 29.85,55.47 30.97,56.03 L9.62,56.03 C4.58316308,56.03 0.5,51.9468369 0.5,46.91 L0.5,12.13 C0.497345934,9.70949346 1.45702852,7.38721592 3.16764805,5.67472072 C4.87826757,3.96222552 7.199492,2.99999854 9.62,3 L9.62,3 Z" id="Shape" fill="#9D5025"></path>
                    <path d="M9.62,0.81 L44.38,0.81 C49.4168369,0.81 53.5,4.89316308 53.5,9.93 L53.5,25.23 C51.7,24.3 47.76,23.31 41.93,23.31 C39.6969616,23.300556 37.466674,23.4677439 35.26,23.81 C31.33,24.46 29.26,25.58 29.26,26.27 L29.26,52.27 C29.26,52.7 29.85,53.27 30.97,53.83 L9.62,53.83 C4.58316308,53.83 0.5,49.7468369 0.5,44.71 L0.5,9.93 C0.5,4.89316308 4.58316308,0.81 9.62,0.81 Z" id="Shape" fill="#F58536"></path>
                    <path d="M42.85,30.29 C40.9751758,30.2820308 39.1026618,30.4224693 37.25,30.71 C35.5706455,30.8193336 33.8844497,30.6709484 32.25,30.27 L32.25,32.77 C32.25,33.35 34,34.29 37.25,34.82 C39.1018596,35.1144545 40.9749362,35.2549353 42.85,35.24 C49.75,35.24 53.5,33.61 53.5,32.77 L53.5,30.27 L42.85,30.29 Z" id="Shape" fill="#9D5025"></path>
                    <path d="M32,37.63 L32,54.73 C32,55.6 35,57.2 42.12,57.2 C45.0820252,57.2720307 48.0398477,56.9355321 50.91,56.2 C52.33,55.74 53.34,55.2 53.45,54.83 L53.45,37.83 C51.37,39.12 47.08,39.83 42.82,39.83 L42.54,39.83 L41.23,39.83 L41.05,39.83 L40,39.65 L39.46,39.65 L38.62,39.58 L38.17,39.51 L37.27,39.39 C35.414928,39.1545431 33.6242781,38.5565272 32,37.63 L32,37.63 Z" id="Shape" fill="#9D5025"></path>
                    <path d="M42.85,27.8 C40.9751758,27.7920308 39.1026618,27.9324693 37.25,28.22 C33.95,28.77 32.25,29.71 32.25,30.28 C32.25,30.85 34,31.8 37.25,32.33 C39.1018596,32.6244545 40.9749362,32.7649353 42.85,32.75 C49.75,32.75 53.5,31.12 53.5,30.28 C53.5,29.44 49.75,27.8 42.85,27.8 Z" id="Shape" fill="#F58536"></path>
                    <path d="M32,35.13 L32,52.23 C32,53.1 35,54.7 42.12,54.7 C45.0820252,54.7720307 48.0398477,54.4355321 50.91,53.7 C52.33,53.24 53.34,52.7 53.45,52.33 L53.45,35.33 C51.37,36.62 47.08,37.33 42.82,37.33 L42.54,37.33 L41.23,37.33 L41.05,37.33 L40,37.15 L39.46,37.15 L38.62,37 L38.17,37 L37.27,36.88 C35.4156305,36.6476374 33.62502,36.0530323 32,35.13 L32,35.13 Z" id="Shape" fill="#F58536"></path>
                    <path d="M9.62,53.81 L30.95,53.81 L30.95,56 L9.62,56 C4.58316308,56 0.5,51.9168369 0.5,46.88 L0.5,44.68 C0.497345934,47.1005065 1.45702852,49.4227841 3.16764805,51.1352793 C4.87826757,52.8477745 7.199492,53.8100015 9.62,53.81 L9.62,53.81 Z" id="Shape" fill="#9D5025"></path>
                </g>
            </g>
        </g>
    </g>
</svg>