<?xml version="1.0" encoding="UTF-8"?>
<svg width="413px" height="286px" viewBox="0 0 413 286" version="1.1" xmlns="http://www.w3.org/2000/svg" xmlns:xlink="http://www.w3.org/1999/xlink">
    <!-- Generator: Sketch 52.1 (67048) - http://www.bohemiancoding.com/sketch -->
    <title>Group 2</title>
    <desc>Created with Sketch.</desc>
    <defs>
        <path d="M55.5,0.78 L55.5,3.24 C55.0981658,18.1390559 42.9044737,30.0083127 28,30.0083127 C13.0955263,30.0083127 0.901834182,18.1390559 0.5,3.24 L0.5,0.78 L55.5,0.78 Z" id="path-1"></path>
        <path d="M55.5,0.78 L55.5,3.24 C55.0981658,18.1390559 42.9044737,30.0083127 28,30.0083127 C13.0955263,30.0083127 0.901834182,18.1390559 0.5,3.24 L0.5,0.78 L55.5,0.78 Z" id="path-3"></path>
    </defs>
    <g id="Page-2-Copy" stroke="none" stroke-width="1" fill="none" fill-rule="evenodd">
        <g id="Artboard" transform="translate(-194.000000, -57.000000)">
            <g id="Group-2" transform="translate(203.000000, 57.000000)">
                <g id="Group-4">
                    <g id="Group-3">
                        <g id="Group" transform="translate(0.000000, 88.000000)" fill="#F58536">
                            <path id="Line" d="M2,46 L2,103.5 L2,105 L-1,105 L-1,103.5 L-1,46 L-9,46 L0.5,27 L10,46 L2,46 Z" fill-rule="nonzero"></path>
                            <path id="Line" d="M63,85 L63,29.5 L63,28 L66,28 L66,29.5 L66,85 L74,85 L64.5,104 L55,85 L63,85 Z" fill-rule="nonzero"></path>
                            <text id="80" font-family="NotoSansCJKjp-Bold, Noto Sans CJK JP" font-size="20" font-weight="bold" letter-spacing="0.8333333">
                                <tspan x="21" y="72">80</tspan>
                            </text>
                            <text id="http" font-family="NotoSansCJKjp-Bold, Noto Sans CJK JP" font-size="20" font-weight="bold" letter-spacing="0.8333333">
                                <tspan x="11" y="23">http</tspan>
                            </text>
                        </g>
                        <g id="Group" transform="translate(113.000000, 88.000000)" fill="#F58536">
                            <path id="Line" d="M2,46 L2,103.5 L2,105 L-1,105 L-1,103.5 L-1,46 L-9,46 L0.5,27 L10,46 L2,46 Z" fill-rule="nonzero"></path>
                            <path id="Line" d="M63,85 L63,29.5 L63,28 L66,28 L66,29.5 L66,85 L74,85 L64.5,104 L55,85 L63,85 Z" fill-rule="nonzero"></path>
                            <text id="443" font-family="NotoSansCJKjp-Bold, Noto Sans CJK JP" font-size="20" font-weight="bold" letter-spacing="0.8333333">
                                <tspan x="15" y="71">443</tspan>
                            </text>
                            <text id="https" font-family="NotoSansCJKjp-Bold, Noto Sans CJK JP" font-size="20" font-weight="bold" letter-spacing="0.8333333">
                                <tspan x="6" y="23">https</tspan>
                            </text>
                        </g>
                        <g id="Group" transform="translate(226.000000, 88.000000)" fill="#F58536">
                            <path id="Line" d="M2,46 L2,103.5 L2,105 L-1,105 L-1,103.5 L-1,46 L-9,46 L0.5,27 L10,46 L2,46 Z" fill-rule="nonzero"></path>
                            <path id="Line" d="M64,85 L64,29.5 L64,28 L67,28 L67,29.5 L67,85 L75,85 L65.5,104 L56,85 L64,85 Z" fill-rule="nonzero"></path>
                            <text id="22" font-family="NotoSansCJKjp-Bold, Noto Sans CJK JP" font-size="20" font-weight="bold" letter-spacing="0.8333333">
                                <tspan x="22" y="72">22</tspan>
                            </text>
                            <text id="ssh" font-family="NotoSansCJKjp-Bold, Noto Sans CJK JP" font-size="20" font-weight="bold" letter-spacing="0.8333333">
                                <tspan x="17" y="23">ssh</tspan>
                            </text>
                        </g>
                        <g id="Group" transform="translate(329.000000, 88.000000)" fill="#F53636">
                            <path id="Line" d="M2,46 L2,103.5 L2,105 L-1,105 L-1,103.5 L-1,46 L-9,46 L0.5,27 L10,46 L2,46 Z" fill-rule="nonzero"></path>
                            <path id="Line" d="M64,85 L64,29.5 L64,28 L67,28 L67,29.5 L67,85 L75,85 L65.5,104 L56,85 L64,85 Z" fill-rule="nonzero"></path>
                            <text id="21" font-family="NotoSansCJKjp-Bold, Noto Sans CJK JP" font-size="20" font-weight="bold" letter-spacing="0.8333333">
                                <tspan x="22" y="72">21</tspan>
                            </text>
                            <text id="FPT" font-family="NotoSansCJKjp-Bold, Noto Sans CJK JP" font-size="20" font-weight="bold" letter-spacing="0.8333333">
                                <tspan x="17" y="23">FPT</tspan>
                            </text>
                        </g>
                        <g id="General/genericdatabase" transform="translate(170.000000, 0.000000)">
                            <g>
                                <g id="Group" transform="translate(0.000000, 5.000000)">
                                    <path d="M49.92,0.66 L49.92,3.45 C49.92,4.73 46.3,6.83 39.5,8.03 C35.7019105,8.68513167 31.8541649,9.00968064 28,9 C13.8,9 6,5.35 6,3.48 L6,0.66 C6,2.53 13.75,6.18 28,6.18 C31.8696886,6.20563856 35.7342678,5.89446465 39.55,5.25 C46.3,4 49.92,1.94 49.92,0.66 Z" id="Shape" fill="#4F4F4F" fill-rule="nonzero"></path>
                                    <g id="Clipped" transform="translate(0.000000, 22.000000)">
                                        <mask id="mask-2" fill="white">
                                            <use xlink:href="#path-1"></use>
                                        </mask>
                                        <g id="Shape"></g>
                                        <g id="Group" mask="url(#mask-2)" fill="#4F4F4F" fill-rule="nonzero">
                                            <g transform="translate(6.000000, -22.000000)" id="Shape">
                                                <path d="M43.92,0.66 L43.92,3.45 C43.9231216,3.4899391 43.9231216,3.5300609 43.92,3.57 L43.92,0.78 C43.9230815,0.740059347 43.9230815,0.699940653 43.92,0.66"></path>
                                                <path d="M43.91,0.78 L43.91,3.57 C43.9142735,3.62324773 43.9142735,3.67675227 43.91,3.73 L43.91,0.93 C43.9141739,0.880087108 43.9141739,0.829912892 43.91,0.78"></path>
                                                <path d="M43.87,0.93 L43.87,3.72 C43.841141,3.80016229 43.8042887,3.87721713 43.76,3.95 L43.76,1.16 C43.8042296,1.08718512 43.841079,1.01013636 43.87,0.93"></path>
                                                <path d="M43.76,1.16 L43.76,4 C43,5.23 39.46,7 33.5,8 C29.7027873,8.66518661 25.8550353,8.99977374 22,9 C7.8,9 0,5.35 0,3.48 L0,0.66 C0,2.53 7.75,6.18 22,6.18 C25.8696886,6.20563856 29.7342678,5.89446465 33.55,5.25 C39.55,4.19 43.03,2.45 43.81,1.17"></path>
                                            </g>
                                        </g>
                                    </g>
                                </g>
                                <path d="M49.89,47.62 C49.9344272,47.501607 49.9581074,47.3764401 49.96,47.25 L49.96,51.76 C49.964221,51.8099109 49.964221,51.8600891 49.96,51.91 C49.948266,51.9810834 49.9315583,52.0512557 49.91,52.12 L49.91,52.12 L49.91,52.12 C49.8773572,52.2066691 49.8372045,52.2903205 49.79,52.37 L49.79,52.44 L49.66,52.62 L49.47,52.85 L49.28,53.04 L49.01,53.27 L48.75,53.47 L48.4,53.71 L48.08,53.91 L47.63,54.15 L47.27,54.34 L46.66,54.61 L46.31,54.76 C45.97,54.9 45.61,55.03 45.22,55.16 L44.81,55.29 L43.95,55.55 L43.38,55.7 L42.52,55.92 L41.86,56.06 L40.93,56.25 L40.18,56.38 L39.18,56.54 L38.37,56.65 L37.23,56.78 L36.37,56.87 L35,57 L34.13,57.06 L32.58,57.13 L31.79,57.13 L29.28,57.13 C21.28,57.13 15.28,56.13 11.28,54.86 C8.36,53.86 6.28,52.69 6.03,51.86 L6.03,47.4 C6.25,48.22 8.09,49.25 10.69,50.23 L10.65,50 C16.6806905,51.8442136 22.9536429,52.7745386 29.26,52.76 L31.78,52.76 L32.55,52.76 L34.12,52.69 L34.97,52.63 L36.29,52.52 L37.11,52.43 L38.3,52.29 L39.06,52.18 L40.15,52.01 L45.15,50.81 C45.5566667,50.67 45.9366667,50.53 46.29,50.39 L47.29,49.96 L47.52,49.84 L48.1,49.52 L48.33,49.38 L48.77,49.09 L48.97,48.94 L49.3,48.66 L49.45,48.51 C49.5318225,48.4245226 49.6086181,48.3343712 49.68,48.24 L49.7,48 L49.89,47.62 Z" id="Shape" fill="#4F4F4F" fill-rule="nonzero"></path>
                                <path d="M28,0.46 C31.8702726,0.429792189 35.7355446,0.744368433 39.55,1.4 C46.3,2.6 49.92,4.69 49.92,6 C49.92,7.31 46.3,9.34 39.5,10.55 C35.7010156,11.1949294 31.8532893,11.5094392 28,11.49 C13.8,11.49 6,7.84 6,5.97 C6,4.1 13.76,0.46 28,0.46 Z" id="Shape" fill="#7D7C7C" fill-rule="nonzero"></path>
                                <path d="M39.24,15 C38.63,15.12 38.03,15.2 37.43,15.29 C37.12,15.29 36.81,15.39 36.48,15.42 C35.92,15.49 35.35,15.55 34.77,15.61 C34.4,15.61 34.02,15.68 33.65,15.7 C32.92,15.76 32.18,15.8 31.43,15.83 L31.06,15.83 C30.19,15.83 29.31,15.89 28.39,15.9 L27.82,15.9 C19.1,15.9 10.31,14.4 6.04,11.55 L6.04,49.43 C6.27,50.31 8.35,51.43 11.25,52.43 C15.18,53.68 21.25,54.7 29.25,54.7 C43.88,54.75 50,51.18 50,49.27 L50,11.27 C47.71,12.84 44,14.2 39.24,15 Z" id="Shape" fill="#7D7C7C" fill-rule="nonzero"></path>
                            </g>
                            <g>
                                <g id="Group" transform="translate(0.000000, 5.000000)">
                                    <path d="M49.92,0.66 L49.92,3.45 C49.92,4.73 46.3,6.83 39.5,8.03 C35.7019105,8.68513167 31.8541649,9.00968064 28,9 C13.8,9 6,5.35 6,3.48 L6,0.66 C6,2.53 13.75,6.18 28,6.18 C31.8696886,6.20563856 35.7342678,5.89446465 39.55,5.25 C46.3,4 49.92,1.94 49.92,0.66 Z" id="Shape" fill="#4F4F4F" fill-rule="nonzero"></path>
                                    <g id="Clipped" transform="translate(0.000000, 22.000000)">
                                        <mask id="mask-4" fill="white">
                                            <use xlink:href="#path-3"></use>
                                        </mask>
                                        <g id="Shape"></g>
                                        <g id="Group" mask="url(#mask-4)" fill="#4F4F4F" fill-rule="nonzero">
                                            <g transform="translate(6.000000, -22.000000)" id="Shape">
                                                <path d="M43.92,0.66 L43.92,3.45 C43.9231216,3.4899391 43.9231216,3.5300609 43.92,3.57 L43.92,0.78 C43.9230815,0.740059347 43.9230815,0.699940653 43.92,0.66"></path>
                                                <path d="M43.91,0.78 L43.91,3.57 C43.9142735,3.62324773 43.9142735,3.67675227 43.91,3.73 L43.91,0.93 C43.9141739,0.880087108 43.9141739,0.829912892 43.91,0.78"></path>
                                                <path d="M43.87,0.93 L43.87,3.72 C43.841141,3.80016229 43.8042887,3.87721713 43.76,3.95 L43.76,1.16 C43.8042296,1.08718512 43.841079,1.01013636 43.87,0.93"></path>
                                                <path d="M43.76,1.16 L43.76,4 C43,5.23 39.46,7 33.5,8 C29.7027873,8.66518661 25.8550353,8.99977374 22,9 C7.8,9 0,5.35 0,3.48 L0,0.66 C0,2.53 7.75,6.18 22,6.18 C25.8696886,6.20563856 29.7342678,5.89446465 33.55,5.25 C39.55,4.19 43.03,2.45 43.81,1.17"></path>
                                            </g>
                                        </g>
                                    </g>
                                </g>
                                <path d="M49.89,47.62 C49.9344272,47.501607 49.9581074,47.3764401 49.96,47.25 L49.96,51.76 C49.964221,51.8099109 49.964221,51.8600891 49.96,51.91 C49.948266,51.9810834 49.9315583,52.0512557 49.91,52.12 L49.91,52.12 L49.91,52.12 C49.8773572,52.2066691 49.8372045,52.2903205 49.79,52.37 L49.79,52.44 L49.66,52.62 L49.47,52.85 L49.28,53.04 L49.01,53.27 L48.75,53.47 L48.4,53.71 L48.08,53.91 L47.63,54.15 L47.27,54.34 L46.66,54.61 L46.31,54.76 C45.97,54.9 45.61,55.03 45.22,55.16 L44.81,55.29 L43.95,55.55 L43.38,55.7 L42.52,55.92 L41.86,56.06 L40.93,56.25 L40.18,56.38 L39.18,56.54 L38.37,56.65 L37.23,56.78 L36.37,56.87 L35,57 L34.13,57.06 L32.58,57.13 L31.79,57.13 L29.28,57.13 C21.28,57.13 15.28,56.13 11.28,54.86 C8.36,53.86 6.28,52.69 6.03,51.86 L6.03,47.4 C6.25,48.22 8.09,49.25 10.69,50.23 L10.65,50 C16.6806905,51.8442136 22.9536429,52.7745386 29.26,52.76 L31.78,52.76 L32.55,52.76 L34.12,52.69 L34.97,52.63 L36.29,52.52 L37.11,52.43 L38.3,52.29 L39.06,52.18 L40.15,52.01 L45.15,50.81 C45.5566667,50.67 45.9366667,50.53 46.29,50.39 L47.29,49.96 L47.52,49.84 L48.1,49.52 L48.33,49.38 L48.77,49.09 L48.97,48.94 L49.3,48.66 L49.45,48.51 C49.5318225,48.4245226 49.6086181,48.3343712 49.68,48.24 L49.7,48 L49.89,47.62 Z" id="Shape" fill="#4F4F4F" fill-rule="nonzero"></path>
                                <path d="M28,0.46 C31.8702726,0.429792189 35.7355446,0.744368433 39.55,1.4 C46.3,2.6 49.92,4.69 49.92,6 C49.92,7.31 46.3,9.34 39.5,10.55 C35.7010156,11.1949294 31.8532893,11.5094392 28,11.49 C13.8,11.49 6,7.84 6,5.97 C6,4.1 13.76,0.46 28,0.46 Z" id="Shape" fill="#7D7C7C" fill-rule="nonzero"></path>
                                <path d="M39.24,15 C38.63,15.12 38.03,15.2 37.43,15.29 C37.12,15.29 36.81,15.39 36.48,15.42 C35.92,15.49 35.35,15.55 34.77,15.61 C34.4,15.61 34.02,15.68 33.65,15.7 C32.92,15.76 32.18,15.8 31.43,15.83 L31.06,15.83 C30.19,15.83 29.31,15.89 28.39,15.9 L27.82,15.9 C19.1,15.9 10.31,14.4 6.04,11.55 L6.04,49.43 C6.27,50.31 8.35,51.43 11.25,52.43 C15.18,53.68 21.25,54.7 29.25,54.7 C43.88,54.75 50,51.18 50,49.27 L50,11.27 C47.71,12.84 44,14.2 39.24,15 Z" id="Shape" fill="#7D7C7C" fill-rule="nonzero"></path>
                            </g>
                        </g>
                    </g>
                </g>
                <g id="General/client" transform="translate(168.000000, 230.000000)">
                    <g id="Shape">
                        <path d="M49.68,48.3 L32.07,48.3 C31.6174018,48.2973376 31.1824267,48.4752682 30.8614488,48.7943691 C30.5404709,49.1134699 30.3599922,49.547394 30.36,50 L51.36,50 C51.36266,49.5517818 51.1871531,49.1208655 50.8720902,48.802052 C50.5570274,48.4832384 50.1282183,48.3026443 49.68,48.3 L49.68,48.3 Z"></path>
                        <path d="M32.07,51.68 L49.68,51.68 C50.6094699,51.6800163 51.3645002,50.9294536 51.37,50 L30.37,50 C30.3809545,50.9310643 31.1388713,51.6800644 32.07,51.68 Z"></path>
                        <path d="M51.37,50 C51.37,50.9333612 50.6133612,51.69 49.68,51.69 L32.07,51.69 C31.6191296,51.69266 31.1856699,51.5160994 30.864981,51.1991613 C30.5442921,50.8822231 30.3626444,50.4508705 30.36,50 L0.2,50 L0.2,51.69 C0.2,54.0261645 2.09383551,55.92 4.43,55.92 L51.55,55.92 C52.6745189,55.9226553 53.7540348,55.4784868 54.5510651,54.6852073 C55.3480954,53.8919277 55.797351,52.8145189 55.8,51.69 L55.8,50 L51.37,50 Z" fill="#7D7C7C" fill-rule="nonzero"></path>
                        <path d="M53.94,29.88 L51.21,32.88 C51.2044973,33.9420022 50.3420165,34.8000143 49.28,34.8 L6.66,34.8 C5.60188664,34.7945316 4.7454684,33.9381134 4.74,32.88 L2.44,29.88 L0.24,29.88 L0.24,32.88 C0.251029229,36.4162387 3.12374847,39.275534 6.66,39.27 L49.28,39.27 C52.8178862,39.2755493 55.6934722,36.4178519 55.71,32.88 L55.71,29.88 L53.94,29.88 Z" fill="#7D7C7C" fill-rule="nonzero"></path>
                        <path d="M51.55,41.59 C52.6726714,41.5820156 53.7522471,42.0217212 54.5498603,42.8118275 C55.3474735,43.6019337 55.797368,44.6773033 55.8,45.8 L55.8,49.2 C55.797351,50.3245189 55.3480954,51.4019277 54.5510651,52.1952073 C53.7540348,52.9884868 52.6745189,53.4326553 51.55,53.43 L4.44,53.43 C3.31640263,53.4326563 2.23791477,52.9881697 1.44247176,52.1946028 C0.647028746,51.4010358 0.19999686,50.3236005 0.2,49.2 L0.2,45.81 C0.202649025,44.6907854 0.649797425,43.6184637 1.44307699,42.8289348 C2.23635655,42.039406 3.31078546,41.5973447 4.43,41.6 L51.55,41.59 Z M49.68,49.2 C50.6133612,49.2 51.37,48.4433612 51.37,47.51 C51.37,46.5766388 50.6133612,45.82 49.68,45.82 L32.07,45.82 C31.1366388,45.82 30.38,46.5766388 30.38,47.51 C30.38,48.4433612 31.1366388,49.2 32.07,49.2 L49.68,49.2 L49.68,49.2 Z" fill="#D2D3D3" fill-rule="nonzero"></path>
                        <path d="M49.28,0.15 C52.8140052,0.144426745 55.6879856,2.99605893 55.71,6.53 L55.71,30.39 C55.6934722,33.9278519 52.8178862,36.7855493 49.28,36.78 L6.66,36.78 C3.12374847,36.785534 0.251029229,33.9262387 0.24,30.39 L0.24,6.54 C0.256527783,3.00767095 3.12763665,0.154450619 6.66,0.16 L49.28,0.15 Z M51.21,30.39 L51.21,6.54 C51.2100069,6.02904698 51.0063497,5.53916587 50.6441141,5.17880718 C50.2818785,4.81844849 49.7909461,4.61733879 49.28,4.62 L6.66,4.62 C5.59961328,4.62 4.74,5.47961328 4.74,6.54 L4.74,30.39 C4.7454684,31.4481134 5.60188664,32.3045316 6.66,32.31 L49.28,32.31 C50.3420165,32.3100143 51.2044973,31.4520022 51.21,30.39 L51.21,30.39 Z" fill="#D2D3D3" fill-rule="nonzero"></path>
                    </g>
                    <g id="Shape">
                        <path d="M49.68,48.3 L32.07,48.3 C31.6174018,48.2973376 31.1824267,48.4752682 30.8614488,48.7943691 C30.5404709,49.1134699 30.3599922,49.547394 30.36,50 L51.36,50 C51.36266,49.5517818 51.1871531,49.1208655 50.8720902,48.802052 C50.5570274,48.4832384 50.1282183,48.3026443 49.68,48.3 L49.68,48.3 Z"></path>
                        <path d="M32.07,51.68 L49.68,51.68 C50.6094699,51.6800163 51.3645002,50.9294536 51.37,50 L30.37,50 C30.3809545,50.9310643 31.1388713,51.6800644 32.07,51.68 Z"></path>
                        <path d="M51.37,50 C51.37,50.9333612 50.6133612,51.69 49.68,51.69 L32.07,51.69 C31.6191296,51.69266 31.1856699,51.5160994 30.864981,51.1991613 C30.5442921,50.8822231 30.3626444,50.4508705 30.36,50 L0.2,50 L0.2,51.69 C0.2,54.0261645 2.09383551,55.92 4.43,55.92 L51.55,55.92 C52.6745189,55.9226553 53.7540348,55.4784868 54.5510651,54.6852073 C55.3480954,53.8919277 55.797351,52.8145189 55.8,51.69 L55.8,50 L51.37,50 Z" fill="#7D7C7C" fill-rule="nonzero"></path>
                        <path d="M53.94,29.88 L51.21,32.88 C51.2044973,33.9420022 50.3420165,34.8000143 49.28,34.8 L6.66,34.8 C5.60188664,34.7945316 4.7454684,33.9381134 4.74,32.88 L2.44,29.88 L0.24,29.88 L0.24,32.88 C0.251029229,36.4162387 3.12374847,39.275534 6.66,39.27 L49.28,39.27 C52.8178862,39.2755493 55.6934722,36.4178519 55.71,32.88 L55.71,29.88 L53.94,29.88 Z" fill="#7D7C7C" fill-rule="nonzero"></path>
                        <path d="M51.55,41.59 C52.6726714,41.5820156 53.7522471,42.0217212 54.5498603,42.8118275 C55.3474735,43.6019337 55.797368,44.6773033 55.8,45.8 L55.8,49.2 C55.797351,50.3245189 55.3480954,51.4019277 54.5510651,52.1952073 C53.7540348,52.9884868 52.6745189,53.4326553 51.55,53.43 L4.44,53.43 C3.31640263,53.4326563 2.23791477,52.9881697 1.44247176,52.1946028 C0.647028746,51.4010358 0.19999686,50.3236005 0.2,49.2 L0.2,45.81 C0.202649025,44.6907854 0.649797425,43.6184637 1.44307699,42.8289348 C2.23635655,42.039406 3.31078546,41.5973447 4.43,41.6 L51.55,41.59 Z M49.68,49.2 C50.6133612,49.2 51.37,48.4433612 51.37,47.51 C51.37,46.5766388 50.6133612,45.82 49.68,45.82 L32.07,45.82 C31.1366388,45.82 30.38,46.5766388 30.38,47.51 C30.38,48.4433612 31.1366388,49.2 32.07,49.2 L49.68,49.2 L49.68,49.2 Z" fill="#D2D3D3" fill-rule="nonzero"></path>
                        <path d="M49.28,0.15 C52.8140052,0.144426745 55.6879856,2.99605893 55.71,6.53 L55.71,30.39 C55.6934722,33.9278519 52.8178862,36.7855493 49.28,36.78 L6.66,36.78 C3.12374847,36.785534 0.251029229,33.9262387 0.24,30.39 L0.24,6.54 C0.256527783,3.00767095 3.12763665,0.154450619 6.66,0.16 L49.28,0.15 Z M51.21,30.39 L51.21,6.54 C51.2100069,6.02904698 51.0063497,5.53916587 50.6441141,5.17880718 C50.2818785,4.81844849 49.7909461,4.61733879 49.28,4.62 L6.66,4.62 C5.59961328,4.62 4.74,5.47961328 4.74,6.54 L4.74,30.39 C4.7454684,31.4481134 5.60188664,32.3045316 6.66,32.31 L49.28,32.31 C50.3420165,32.3100143 51.2044973,31.4520022 51.21,30.39 L51.21,30.39 Z" fill="#D2D3D3" fill-rule="nonzero"></path>
                    </g>
                </g>
            </g>
        </g>
    </g>
</svg>